<mxfile host="app.diagrams.net" agent="Mozilla/5.0 (Windows NT 10.0; Win64; x64) AppleWebKit/537.36 (KHTML, like Gecko) Chrome/141.0.0.0 Safari/537.36" version="28.2.7">
  <diagram name="Halaman-1" id="bUO4JxUx3Ye-z49C8RaQ">
    <mxGraphModel dx="1426" dy="777" grid="1" gridSize="10" guides="1" tooltips="1" connect="1" arrows="1" fold="1" page="1" pageScale="1" pageWidth="827" pageHeight="1169" math="0" shadow="0">
      <root>
        <mxCell id="0" />
        <mxCell id="1" parent="0" />
        <mxCell id="FQ2YbZzHv3mOqYBIHx7K-3" style="edgeStyle=orthogonalEdgeStyle;rounded=0;orthogonalLoop=1;jettySize=auto;html=1;exitX=1;exitY=0.5;exitDx=0;exitDy=0;entryX=0.5;entryY=0;entryDx=0;entryDy=0;" edge="1" parent="1" source="FQ2YbZzHv3mOqYBIHx7K-1" target="FQ2YbZzHv3mOqYBIHx7K-2">
          <mxGeometry relative="1" as="geometry" />
        </mxCell>
        <mxCell id="FQ2YbZzHv3mOqYBIHx7K-1" value="Tim SKCK" style="rounded=0;whiteSpace=wrap;html=1;" vertex="1" parent="1">
          <mxGeometry x="40" y="240" width="120" height="60" as="geometry" />
        </mxCell>
        <mxCell id="FQ2YbZzHv3mOqYBIHx7K-5" style="edgeStyle=orthogonalEdgeStyle;rounded=0;orthogonalLoop=1;jettySize=auto;html=1;exitX=1;exitY=0.5;exitDx=0;exitDy=0;entryX=0.5;entryY=0;entryDx=0;entryDy=0;" edge="1" parent="1" source="FQ2YbZzHv3mOqYBIHx7K-2" target="FQ2YbZzHv3mOqYBIHx7K-4">
          <mxGeometry relative="1" as="geometry" />
        </mxCell>
        <mxCell id="FQ2YbZzHv3mOqYBIHx7K-2" value="SKCK Service" style="rounded=0;whiteSpace=wrap;html=1;" vertex="1" parent="1">
          <mxGeometry x="160" y="320" width="120" height="60" as="geometry" />
        </mxCell>
        <mxCell id="FQ2YbZzHv3mOqYBIHx7K-7" style="edgeStyle=orthogonalEdgeStyle;rounded=0;orthogonalLoop=1;jettySize=auto;html=1;exitX=1;exitY=0.5;exitDx=0;exitDy=0;" edge="1" parent="1" source="FQ2YbZzHv3mOqYBIHx7K-4" target="FQ2YbZzHv3mOqYBIHx7K-6">
          <mxGeometry relative="1" as="geometry" />
        </mxCell>
        <mxCell id="FQ2YbZzHv3mOqYBIHx7K-4" value="&lt;span id=&quot;docs-internal-guid-8730eed6-7fff-fa82-aec3-10e13a9a0900&quot;&gt;&lt;span style=&quot;font-size: 11pt; font-family: Arial, sans-serif; background-color: transparent; font-variant-numeric: normal; font-variant-east-asian: normal; font-variant-alternates: normal; font-variant-position: normal; font-variant-emoji: normal; vertical-align: baseline; white-space-collapse: preserve;&quot;&gt;10.200.210.235&lt;/span&gt;&lt;/span&gt;" style="rounded=0;whiteSpace=wrap;html=1;" vertex="1" parent="1">
          <mxGeometry x="280" y="420" width="120" height="60" as="geometry" />
        </mxCell>
        <mxCell id="FQ2YbZzHv3mOqYBIHx7K-6" value="&lt;span id=&quot;docs-internal-guid-8730eed6-7fff-fa82-aec3-10e13a9a0900&quot;&gt;&lt;span style=&quot;font-size: 11pt; font-family: Arial, sans-serif; background-color: transparent; font-variant-numeric: normal; font-variant-east-asian: normal; font-variant-alternates: normal; font-variant-position: normal; font-variant-emoji: normal; vertical-align: baseline; white-space-collapse: preserve;&quot;&gt;https://api-bsre.bssn.go.id/&lt;/span&gt;&lt;/span&gt;" style="rounded=0;whiteSpace=wrap;html=1;" vertex="1" parent="1">
          <mxGeometry x="400" y="510" width="190" height="60" as="geometry" />
        </mxCell>
        <mxCell id="FQ2YbZzHv3mOqYBIHx7K-9" value="- Timeout 30detik" style="ellipse;whiteSpace=wrap;html=1;" vertex="1" parent="1">
          <mxGeometry x="150" y="130" width="120" height="80" as="geometry" />
        </mxCell>
        <mxCell id="FQ2YbZzHv3mOqYBIHx7K-10" value="- Timeout 60detik" style="ellipse;whiteSpace=wrap;html=1;" vertex="1" parent="1">
          <mxGeometry x="270" y="240" width="120" height="80" as="geometry" />
        </mxCell>
        <mxCell id="FQ2YbZzHv3mOqYBIHx7K-11" value="- Error" style="ellipse;whiteSpace=wrap;html=1;" vertex="1" parent="1">
          <mxGeometry x="390" y="340" width="120" height="80" as="geometry" />
        </mxCell>
        <mxCell id="FQ2YbZzHv3mOqYBIHx7K-12" value="" style="shape=image;verticalLabelPosition=bottom;labelBackgroundColor=default;verticalAlign=top;aspect=fixed;imageAspect=0;image=data:image/png,iVBORw0KGgoAAAANSUhEUgAAB1QAAADGCAIAAADqnCVdAAAQAElEQVR4Aez9b0xcSZY3CMfdLyvtp02blal+G2gr7S1S5kMX47GhBGv0SiBGJlswElY5jVBTvGp5ZFWWRsZSj3iV1Y2EdiSyduS0rLZaomghO90y0mANWA8yX4xABXjcuD/gTVp2PjVAPVNYi81qtfs8u/thc38n4t6b90/EzUxI/rkiFXnz3hMnzjnxi3Pjxj03Mu5/Vf/p//cIphP6oxHQCGgENAIaAY2ARkAjoBHQCGgENAIaAY1A+RDQkjQCGgGNgEbgR4jAf8WO4ceIxJPxaIDhRiQaTybjESOAp7xZhqVSJRb5sDliHIRJBfFRGblH+mHp3aPZxRQv2L7FCCkjz77aY9DZk6RPPOKxeV/1enQd5OGB1Ws/+gHIjMeju+tbUNbTL4GCzhOt75dpVA519b8bGEB6WBfYlR0YngfpJIeo61jgaRjXusg33g30P2ypPIgr3cG3iFF/revhw66ha5Ufiv8fPIZao0ZAI6AR0AhoBDQCGgGNgEZAI3DwCBz14C/FEyeW6DORjNq3W2eqm5pPR+xDCWynm5uaqs9IMookIQKCaEqRzIKtkMrTNc2nBee+bwvjsz8mHJbe/amNR2qh9vWwl3BoRJMTro/D1dViymIPBZWSE1y542HJm9m5ubkNViM9hcqjNxIt9fxSIyHJUZ2/eGzEK4tN0mNAWeolMcVLyvcDaHaALvLREAi5xiO7C5mdbpb1LW6/giqp8Lw9sMQwoiNjvdUbaP85Vt07NtIRsbpZo3Lo854b4VA2O9OaTF5dzeXAv694uuwn86X2w4qDS1K/QjvCn5wJJ3CATa56UTGwF67a6T1e0rhBcDPLWgKU08q2yeUeTCZP3p95uhNqO9+z3FJZuFJl012iIMRw665dq6vfhYUfn2hrC7d/XFBhWdoLWgyjcqi//3lXHfbtZFTWPQQRqaul3jpDkWtUtlh0VG4XtYMMnTQCGgGNgEZAI6AR0AhoBD50BHT9fpQIFBX8bY7f++MfzHTrUxMnB/E3sWqTyKo7/8nktIh5ikuCozjoFrMlRvwi8vtorHljvK+hoaFvvmbw0RdmJOLNxqbgUGxzmVR3Q8PAFIUnFCwFyLWtvb2ttQWYHNk5S6WDdni7hfDZL8sOS+9+1Scvd7/bt4rNjyfsz60pHlnLq/ftlcuejpGxwRquenyjeeyRCD7mMpmpqanZDZ9Wxsqlt9TzS2JKIEkqH0G3sRibFzDPs8GxkagVNylXvQKN8mdW1ThpNa4jZ86u9/N+Nc7s9g2S1nGpaXN+9M40HCA10I0+NGO54rnGGyHGdl5cn1xdERIOAM+qdXFajM+T+Vb/L9QfxlbqV9O3uEuNr9toj04XMM7m5CUP+XwvYGuJ2VurV5+8yDIWPn/5t5XW+VWijH1nP9X5ZXsqdbHzk33SVK7+BJHfWGfPjVAo7DDUMOrSPe3h7PL1J09us/OznedEJiK/yz1htvyE09ttusjVW42ARkAjIEdAUzUCGgGNgEZAI6AR+HEgUEzw96dVbObXv7z+GVJi5ie/ut5M0Fxs+Mgi/n7rF3/X+TMi/jT2d+3//nvOaRM3Hv89Cppp7E/sz0vfEiu+fxKclPWbtCzSVNvaXLUwnprKgHntTiLNmvPx2KrmoUeLS0tLEzSByTXDJRKfmOCThZPRPB1x5CQnooBzxh+n84wJmloMRUhGNDkUq6qKjUE+0kTc++d38DgThEAlpaR3MQqaGQcRS0uP+jlszmKyfZt/icQt2aphErdyyWO/TAanKfCJRE0YhCDOShspHUqhLpkUcBLSxBr8LUWvAQUTE/FoNC6MohYwmwyQChoMcLaXSrnUfjBL5aj0Aps84FSSfEsIodbA19e+xGXCQ9aDWSRO5w0PcsSslMhSbd+srWXMT/6hhbReEA5bKPnskfoPYAaM/naEnN6adN+VO1PQO5W60pdIZfKq/XaCn5Ti69OLLH97KfWWeH7BEmm9QFfplZ6/tadr2MJcCpVFSg009o2KIDuEoE6UfPWS6lXVS2UP6Lac0vuBZNQRQZP6A+Qz1tzP+0P0GyjAKebG9KupgfGFKvvPEFJ7gMOjwSaGjm+RutalZL43M4xrZyn+lM2uvTTlMnYAeEIX2goPI+7cQv8f6+8AgRJM9fsbMgwCiFoSvRX6rTg/9dBeOIxwGA0cULdqnpIqOSSGn77OfhJFpX6FSB+MXIN6xky0rYg5iqj6bZMTJR0nnVwvv6RRrRwtwrUxux3R7uiHRPcFpaWe7ygyIerr6K8Iq131z2/nbiP6y0LttaeEmcqtUT/U9fzdwDuenj+sq6d2Ma497CcKLS0Cx+ui/ectIkvGD+kG0Z9bcp53XbPkPH/e/3AIMWinHMi/fIO8OXRjVhTpH6qHECQuhxsDpZY9oFcOCZPe3ZylRyCgBCQ4FTUWvu72AsjSdlGJMirr0p/3pE5k4zMEZ57tVEWYZW/PvVrZ2kovvsieqKjnvs0qQuHs8tXVLaI/nnkaPnuN06PJpWScrrE4C8SP3aVI/S2vSO9pBDQCGgGNgEZAI6AR0AhoBDQCHwoCxQR/v0+nHv+bqPBPKz/6YYvPul0e+QeL+O3LP4nc6vN/zWYmRGz32+l/YT//tFpkmNufdf/NT55Mz5tHhX/OVFctzJlzqHCD/d16PniBwuvjffiMs9jYiBUSAJWxtdlEItE3vMAP+AY3sSNjMWbPIB4yZ5DhJu3RWDMbT0BO3/h8zaA5EzA3NZBIb26macZxQ0NDd4qiz1ySYsNVjs+zKnc+5A/FauZJeh9q7cl189KREU3CzPm+RihFgSqWTtyhkALZPwg5gl4zaNlPZdRfPz6Q0z9Ysz7M5QzPb1hl8/SGhj4Hnb3Z2KyqYRvjicbGxr75mtiQCKZY5eS/xevN5abm1qtig4M0u7uvL73edIm3JOwZARC+9pLrYwz8qnpJ5eQUeqdH51ms374xZjXWTEx1+0r9B/aMlGI/w6equX9kJIlPHLFuilyABjnSegkXl/ibwn9U7YiHK2x+1p7amcvs1s9prQDJ+aXSW+r5FXReyHBWyV+bnd9sGsRTnjitOWHk66tq3xLxRHtJ2z2wHzgT4Z/a2vwiNVRfOiX4eYpuyfrHA+TL/QG+gs6F94d94+tNVj8GsjSp7MllUgn0m5vpYd5l9d0y+14ScurjE/jZmVl7ix8z7TeephrfD3CQ42xEvhgaFFO7xzeam4CJVRbdmLWb/1XLiUpxVvlVXqJ7j+QPKvrto3S+q+zMKfpJ4pedd47aZ3Z2cBQOVWCrTAjIds7eCCOQGW+9fzfLwm3t92iycO7B1eWnKNXWno6dS6coTPv09rOVnIofEdvPbTnxuzvhcDiVruNxz1A47Jo0C6mMQf4TqGNs525r8uRJpNEETWY3jGtSeyD/8o22EMu+iMdfPHXHYblA70bRn6j6Q29x6zi3tTq9PNP6zeO0RTF/365dv7/4gD9g+KQ2HH6/vcL32fZONnzxYV1lfWXlbzvb29iJj63ge1MzG8XTk6ZY9Vxi2HGdlfq5qUX/aAQ0AhoBjYBGQCPwo0BAV1IjoBH4sSBQTPCXY/HpdVr5Ibr1azvmy8nYIKT7Vz/8YEaHcaxMF7svb/3zxPd2/l/96t4f+RoR9lISdpbYOV2zufFG7JrbmtPWUgyb86PTa5lMZvrW8ELTpXzAjjHEdEA3C4ifjktNC8MDUxTbcs4gRvCramEcdPBnplL0J2dxE8UY4s6iaDFbBKYhwW0pLwcpC+NipuGd0XkeNOf0gM3mxizFe9nad+t5LrIfcmhW5tod5wS+PIt3T44PRXObekcQYER9xZRqXlBFZwxy7kxnAMua0yBeSLoBv6RdlPKRwRaGu2FKJpMaaDBX6qD6StpLqpATIaZKUi+1HBSQ6OXRLBGA5i6w/h1vC1X7Kv1HrZdbK9tsrvN1VufmvnuTAdomC8yU1EtlDxWS+g8y0C6+doR7Iqf4pNQbUF+ZXmgsVTWT1kutVyofwc0rjXjKs1Hd2zu2uDhhzctT1guGSvUSndZGoJZac5wXKntgjaIfwKOPIfPTG7OClQgy4onTmzMd0Wj0zHfzm/lnXnJ/gDl0nk6voRdam55bYPluEllnamsRXo7GJwabNs3uVG3PGjQw7/RVCGEVZ0P04/ruO57Q1kTBejwTefQI4ca0uZyCCmeckCw9eodwmL6D53cozxOvFN9zb1RyeJRO0p/wTsEtIvCI5Cv67SN1vqvtJORK759zuZXt94HIiMxYBw/sxicfrLz96voLhFXD7bV8JYZXsTiOWFsKIUzGns7EePxTwX+qs52c8+ltyNl6kBileC5fkzrzmkLQQpd7W8HnsbtpjCnkswh3fgSgHzyYG5lRybSlBfYnsn7DLunbebC6agZ2HVm5HM3tBaG+ruveeXZ38RX2kXJbzy7ez7KLl+9dvtzOXjx1GLowzh8jb+IM4pc0cFNC80quL5Sjvz9SBHS1NQIaAY2ARkAjoBHQCGgEPlgEig7+fnvvs19e/+x37Ms/XHetX/Dp9X+s//OvU8sFEWqO9zmn/c6nrpNAyEzYS0n4ZeTDHv48i4IbGFeww6Lnf2tP17CmQfGv1sXFsVhVXuymGQ7JM5dxD3pLk4+q0H+uH01MLC0O1iyM38nwOKBPToH6uqsAoSY/bkrvXOnrG0fwa8z5d2YV3S2n1KM3G5sF9AqJm74mQH1V7SWKeLYq+4Pl+PVCDs0NFdFfBET8HB7FiI37jAdLsF4wyNLG7PT0FH3oEYVggD3S9hK5ki0gl/mPhLOspF3VtxQLFPXahV5AOpVKDXR3NzYOr9cMJqNGkB0KvaoiKntAV7nSZrqvm3+uXMkHKw0jmpxYGuq9hE9vPiZMCy6X5g8wtCrWy4PLvc3r6b4rYlmP2tO+p2rgzKcS9vYVT7JjYTiRmNuoaWLrwwiI2/1hSf0DyZF9gYNUDipVMs4K+e52N/tDznuEznfgoLYTj128jzXBL8WN16uEzamPKfaLCO/Au3c3t2fP01E4xNdYyuUePI7T7F+Iy8Zj4u2CAfxg23md7zlxuIukki/oe5e/C5MCitS39M+2n5i5/01ii54KC07Ef6+Ojl4YHb34eJtRRFyQ5dty+blcuqZqBDQCGgGNgEZAI6AR0AhoBDQCRwkBVfBXYePGi3/9obLKWszhZ92/+WNUMhdYUri682/r/+yc9pvnccvM0xn7bj0/h80wIgjhmlMxnUxFTNJdg6CF4QbHx5xhylg+DOySWbaDkuTX0hrHw419tGxFQ0O3bSSsccuRwQAmeTpTbc0oRH5t7VpmCsGvBlrGYTC/xIGKjiK7TUXplQoPaC8pP4hS+3chR8z9jRoGYr8LVvAd8lXJ3S4m1y70miV9P9J6+bhMQoD/mBzun+k5xyqwjBmRSIT/V5qV+CljfaWaVfUqVS9Cqna0l/+lPd+9lKRXygxigD1SP0ERaar9ordpfbi7D4tP8AAAEABJREFUewCfK1eGHQvYsJL8gYRvphNXrvDw8oCI/BJxF/3eNp9EGTrr/B//fuMpTKUFf+kf6732mjMBOJfUoQfIKRlnYatv6273wv12SXpV54XPCpMQcL6XZGcAbkKTYdRXnMBudmcbW2V6+xea3cuexpM0V/ek2E4+oFAmrcCQahMlw1/SWhDYD+BHbugsDxtjb7dpv+Xv1i5JOYr8ht/Hv3ZFfg2jsr7ScHC//4tjkRYHPb9bkr/li+k9jYBGQCOgEfhAEdDV0ghoBDQCGoEPGIEigr/Vnf8Uv2hCUH3+rz/a2uSLxTbH7/3jR//hM+cqEAjjsvbuTznvpx2/YH/+lnPiuLmznblW+714SyYTnM5EN6ux/miE7mdqv+iPsbT5t18wVcX6O2gJiFpE6TbnxVIJIMsTBDWZsQN6IxC9x4tk8khfbzxKN40ILvNYBu1DCM35qz4T4bGwSDyZ5DygF5kQRQMnl38pCilGpKPf/lc3cijR9L6JCTsaBRLdVDf1jvTTJxmHXaYxXA7ZDyM7EBhamBMvqkIRJL8cEJkMH1rrc8xc1xg89roSKjp4AtLe9SqFK9pL8Pv1Ku0PlCOkebdrfO7vyMhgjcPZvEzM0b4y/wnU67ffJ94kKOtl5ud/THvwkEPmP3k+zx7ZOSh824hER4bGhr6gc8rDhUMhHzueZNJJDvknciEnaZ1fOFSlgPPLj4/qvGBqvVL5bzZYU6+93nf0UtOmquMQ9VLqVdVKYY/wKVU/4BdGetlp3m1Ev6BXsJksRftDgSBjqfaQ+rd/eU8/bWfP0Y/47jueQg2t5JNC+Dc2ZLadst15xXq5D9d24EmaVZ5+6V13cE4nnio5AThL/YrEy77CHMSspf22v0SAXg/zHvxTcr6XaqcKt7yRpzrDNO00ux0cfExPU/S37cuWesOov9b18GGX+XK2+kvLYqnfu3wtiBuXf8sXg1Dwv33Ml2KAnGskqO7h84F3z7uume9wY+xsxScxU6Bl4vZr0ox4cSUipkMP+59z/gLyO+rq68/dKvzCN0tJ/le0V/54b3tGZQut9vDksVj2Ny/sXONsT+c1VMmojF262JZ97WXIs9JesL8Rh/5qBDQCGgGNgEZAI6AR0AhoBDQCHwoCRQR/EdL9qO+PfHHePw79/F8T9+ZR+erOv8W9Vb1F/8M9vm7v9+nfzfzkV/eI+VeV//I7641wn16/4Z32+5/+k18mxLpTbmqgL816xxaXlpbGmun1Zxm+DAKf7LtZ0ztGdETpEubyCO7S+aNcburW8Hozl7M41ss2zJdc5egFR+vNgyRnkTLGR6fNFfFoad2awbFFU/WcRc8L9e3xW+jBpYkJsorHKSB/fIFLgfCaTf+stKoqx6RcCERoAVuRqqt7x8ZEaBhyEtx+GDnYvD7sfBETZ/bKoUm3EnxITrpmcHERNi4SoKNTHE8Vncs2N8BwboE193eYx/xnj3q5DMkGuqTtZbN69KrsLyjHFmjv5HIZiv421aR9TiVtX2oXn/8U1Ouxn7TTcg3kbHAepHy7y9qL+Bnz20NLlYo8bB3+gyM7wTa7HbF/q28YJxg0wkPZfJ/z3YZrs/ObTaY/D/V3IBYphPj1khzun6Yc6/wS/GILHlsvKMHnlxcf1XmhOK9V8tfuUHOJk5rqm044J8P667UbPGU4wD+D+wEY7ErTo2mG7gqne2/1/PDwQo0IaEJOQuoPdL6bAjjOJr9J8v1ATmn2IPyae7BIcTgWvmhOw4TU/cYTKuyUSXUPr8fGRqj/QR2l/QNOXtHC8MOxQcfqRGuz4+vU76HRq+f7cE1pbqWHHEo5uC5IccZJd8dEjlQ0s7nA6wJwNh1uEea4++2jdL4H2Wk3gGNHhZtgMYz6S5cpQrrzYmSVX18E3b8VazvssPD52e2bs6lwW5i9fryVy52K3QqHGcvevR/7au5iPJtloRuz/UP1Kv7cSuJJ/CnJSc3e3J5tbwvvPL29mH7JXj5efsrfIzebOh9mOxTvDYc7KY789qvbEMvaUj3b2z38ZW6v0y8D5JMc1tY+C+G8HmHXFHhO8m7W6EJi9p94qmb3n4Ivl5ty9oeCWMo2dKPn5ruBAZ66rvGn1LnVydYX7Muem9s3e1Lh9/HHr6QC+SMqeo5C7a7wc2lBTdQIaAQ0AhoBjYBGQCOgEfjAEdDV+6ARKCL4y75P/4O1Pu8vf5MWk3k3Hv/9L20i7Yx8y3HK0y1OkL+999kvecgY+2aSyTSzXD+Z1EC3WK6hO/+35dzUQENDd7eVYUdwDCMSjZqzZV1SELyYsuQ0kCA7N5OnI2PKDC6DHzpM+VA1IIKkdinpDm6lUKIxkSB7EUXj9722eG6uSw40gBMkWxr/G+/4gPVJpK1FcxnL20mrQdAfY+1SfjmcwhVCAV8p02bOpGBjQyLRSLVK5RdJlNKpRlZFIAF1gXLsiMS1WK9o4yROKVkvNPDSrg1EkaHcfjS8Mw9ZIDtxQ67UftDBLJUDfqleFEEWwLGdChSRCI2GBk/75tsFZQYc/gOwGsTH5W8QBZOQ4bRfUEC0k53LjZG0F8nheU57VP5DlqO23CFREKbZ7ZjLV8BnJ5eP8wxWgT9/anC6Uy9kogp+nIP0OgrQiWfZJkRBo40AKKp6IcshxmU/Yiv2CW/LR3AQdYdwnlz8JMpXL5XeoHrlFbjk22R+eqBydAqjG0OzQDUSbEt144jotG9aDyFTKIsM8CBxG73+ABD4WU5lwWPze+jIshN4OAhoXrSbaQ9yPVUDxU5v566/2GGIw/V8nm6pq680DNhpyyH3d/QnKEWiGlznS6l4kv0DUxAlEuBCdyP2kQW7G+gDiPL9mO3PjY0J+w2bDjuJGRjaeKrkgAey/f2k1K9sk5ytIIjO02vKcnIohXBnQgOY/Ir+Gbl7x5MLsVuMoABFJKmdyAIONlY4tBOq4MffMOor64Y6P589H2Js5+6TuZc2v2on9+Aqfz+bWPPhwmRiBZxbgnghgUAwArKTFyh3lGdJ+fNFrOUjRq8+4GVXVq9eEKtJYDvqlJN7IMSCTukCf0EcrvtCtSnHtAfynXKI/6TJjyxV8rcXUYCm5QZoCfSrquJOOqK6JydXbUpu69mFZPJkPk3aM3xXnk2aWaN54hR/k6qtHW1nOyrat6HB25/YivSORkAj8KNGQFdeI6AR0AhoBDQCGoEPC4Figr/Hp8a1rb2DYxPJeDSe7G3alL2La9/rksvkIxGlKlvjf9uH+dEoajAxFGOqv6WXKtnDn8mYcaIi6R62XR+q9O5aoKfgfsuHur20L4rvLgXUy2nPgfkPauHUi8N9TYdVr4PUWxKAAf5QkpySmHO5lblvWu/P3M2ycPjirYriCjv95MjiqarKoeAMYwL0HgKeMKjYFGm82H6CZbMv4ve/+Qrh12LLfbh8zvY6srUM8Lcja7M2TCOgEdAIaAQ0AhoBjYBGQCOgESgJgQ8q+JvLpK709Y1vVF+qZvPDrv90lwTKYTHnpgaE+ZcuUQ3G+674558ejm1a63FA4EP1n8Oq12HpPbK+hvjv1mpicvTC6GjhmY/+Whw0nvai5n5TPgjKQeNZCDSapUu+cWHyGU28LcSu8zUCGgGNgEZAI6AR0AhoBI4sAtowjYBG4END4IMK/qJxcpnMVIrWTUhN7X4GLuQcVrLMRxVQA/n83MOyTes9+gh8qP5zWPU6LL1H39N2Z+GB4ZnDk8AB+o/97uw8LqUODM/jAoi2UyOgEdgHBLRIjYBGQCOgEdAIaAQ0AhqBY4/AsQz+GpF4Mh4NwN6IROPJZDxiBPCUN4uWG+YqVWJhEmyO8BezqHjKRS+IT7kUeeQcll6PGftxWLB990NpgMx9tcegsydJn7h3Be191RtQ3/3OOrB67Uc/AJnxeHR3fQvKevolUNCTofV9MplROdTV/46/ZephXWBXdmB47rdjHBH5xwJPw7jWJd5A1v+wpfLgLr4H2UZG/bWuhw+7hq5Vav8/SNy1Lo2ARkAjoBHQCGgENAIaAY2ARmBvCJQa/N2bttJLUzxxYok+E8mofbt1prqp+XTEPpSIPd3c1FR9RpJRJAkREERTimQWbIVUnq5pPi04931bGJ/9MeGw9O5PbTxSC7Wvh72EQyOanHB9HK6uFlMWeyioZCp3PCx5Mzs3N7fBaqSnUHn0RqKlnl9qJCQ5qvMXj40spJMeA8pSL4kpXlK+H0CzA3SRj4ZAyDUe2V3I7HSzrG9x+xVUSYXn7YElhhEdGeut3kD7z7Hq3rGRjojVzRqVQ5/33AiHstmZ1mTSXPZhX/F02U/mS+2H1QeXpH6FdrScyvzFCRxgk6teVALshat2eo+XNG4Q3MyylgDltLJtaNmH5Mn7M093Qm3ne5ZbKgtXqmy6SxSEGG7dtWt19buw8OMTbW3h9o8LKixLe0GLYVQO9fc/76rDvkhE6ep/DiJPeA4j6NgalXUPOfF5V0u9deaCrpNGQCOgEdAIaAT2goAuqxHQCGgENAIfAAJFBX+b4/f++Acz3frUrLWD+JtYtUlk1Z3/ZHJaxDzFK+Fn3b8xxcYvWuVdv4j8Phpr3hjva2ho6JuvGXz0hRmJeLOx6WL0HuQyqe6GhoGp3S+bUNva29ta65WrPqZ/GXOVapYDzCmEz36Zclh696s+ebn73b5VbH48YX9uTeUKuG657OkYGRus4arHN5rHHongI62dMjU1u5Gvvr1XLr2lnl+2AUXuSOUj6DYWY/MC5nk2ODYSteIj5apXkeZZbFU11h791riOiLLnb96vxpndvkFSOy41bc6P3pmemppKDXSjD81Yrniu8UaIsZ0X1ydXV4SEA8Czal2cFuPzZL7V/wv1h7GV+tX0Le5S4+s22qPTBYyzOXnJQz7fC9haYvbW6tUnL7KMhc9f/m2ldX6VKGPf2U91ftmeSl3s/GSfNJWrP0GcN9bZcyMUCnsMPcGy2eXby5RGts08w6hL97SHs8vXnzy5zc7Pdp4zM8r6o4VpBDQCGgGNgEZAI6AR0AhoBDQCxxGBYoK/P61iM7/+5fXPkBIzP/nV9Waq6MWGjyzi77d+8XedPyPiT2N/1/7vv+ecNnHj8d+joJnG/sT+vPQtsSLy+4/1fzbFppaJ5PvWtjZXLYyn+Oq9a3cSadacj8dWNQ89WlxaWpqgCUyGs2gkPjHBJwsno3k64shJTkQB54w/TucZEzS1WMgxosmhWFVVbAzykSbi3j+/CzZ7CyFQSSnpXYyCZsZBxNLSo34Om11GsWPzL5G4JVs1TOJWLnnsV4hhTIFPJGrCIATZxaV0KIW6ZFLASUjb/MqdUvQaUDAxEY9G48IoagGzyQCpoMEAZ3up9ErtB7NUjkovsMkDTiXJt4QQag18fe1LXCY8ZD2YReJ03vAgR8xKiSzV9s3aWsb85CO/0npBOGyh5LNH6j+AGTD62xFyemvSfVfuTEHvVOpKX4F3JIKflJb9dBwAABAASURBVE5MoE6eWiDL315KvSWeX9AlrRfoKr3S87f2dA1bmEuhskipgca+URFkhxBVvaR6VfVS2QO6Laf0fiAZdUTQpP4A+Yw19/P+EP0GCnCKuTH9ampgfKHK/jOE1B7g8GiwiaHjW6SudSmZ780M49pZij9ls2svTbmMHQCe0IW2ymSm7txC/x/r7wCBEkz1+xsyDAKIN2YSnQrOZjr10F7UeXEYDRxQt0p0zg82yXlKYjjZ2U+iqNSvEOmDkWsQx5iJthUxRxFVv21yomTm8M93qZ2E1a7657dztxH9ZaH22lMcFPXGqB/qev5u4B1Pzx+KqbjGtYf9RHlYZ+BzrYv2n7fUU5MZMn6I5/TnlpznXdc4M+Q8f97/cAgxaMPIy4H8yzfIm0M3ZkWR/qF6CEHicrgxUGrZA3rlkDDp3c1ZegQCSkCCc3IXpCGFkw0gS/thJ49z36isS3/ekzqRjc8QnI6sirOh99Nzrx6sriKtbFn+c6oizLK3516tbG2lF19kT1TUG4RDNLmUjJOf4ywQP3aXIvVzhyK9qxHQCGgENAIaAY2ARkAjoBFgTGPwQSBQTPD3+3Tq8b+J2v608qMftvis2+WRf7CI3778k8itPv/XbGaCx3bZt9P/wn7+abXIMLc/6/6bnzyZnqeji92Xt+7aEogi+Z6prlqYM+dQ4Qb7u/V88ALc6+N9+Iyz2NiIFRIAlbG12UQi0Te8wA/4BjexI2MxZs8gHjJnkOEm7dFYMxtPQE7f+HzNoDkTMDc1kEhvbqZpxnFDQ0N3qtC747jK8XlWxdXZG8gfitXMk/Q+1NqTa7PZO7g5hJnzfY1QigJVLJ24QyEFsn8QcgS9ZtCy3y4o3fHjAzn9gzXrw1zO8PyGVUxFZ282Nqtq2MZ4orGxsW++JjYULyKOWbzeXG5qbr0qNjhIs7v7+tLrTZd4S8KeEQDhay/LXu8v+FX1ksrJKfROj86zWL99Y8xqrJmY6vaV+g/sGSnFfqpPVXP/yEgSnzhi3XTHDiLkSOslXFzib9Ek1Pr9R9WOeLjC5mftqZ25zG79nNYKkJxfKr2lnl9B5wUq7PMTlfy12fnNpkGEZOK05oSRr6+qfUvEE+0lbffAfuBMhH9qa/OL1FB96ZTg5ym6JesfD5Av9wf4CjoX3h/2ja83Wf0YyNKksieXSSXQb26mh3mX1XfL7HtJyKmPT+BnZ2btLX7MtN94mmp8P8BBjrMR+WJoUEztHt9obgImVll0Y9Zu/lctJyrFWeVXeYnuPZI/qOi3j9L5rrIzp+gniV923jlqn9nZwVE4VIGtMiEg2zl7I4yAZbz1/t0sC7e136PJwrkHV5efolRbezp2Lp2iMO3T289Wcip+RGw/t+XE7+6Ew+FUuo7HPUPhsG/SLIP8J1DH2M7d1uTJk0ijCZrMbhjXpPZA/uUbbSGWfRGPv3jqicPCTl9S9Ceq/tBX3iTktlanl2dav3mcNgnOn3Dq5k1afru/6xqvKeW9Xbt+f/EBf/DwSW04/H57he8jq6mZjeLpSVOsei4x7LjOSv0c/DppBDQCGgElAjpDI6AR0AhoBDQCGoHjiUAxwV9es0+v0xIN0a1f+yK2COn+1Q8/mNFhzqvYUMD3nye+p9zqj37Cfn7DXCDi3j91/5SIvu/pms2NNy5qzWlrKYbN+dHptUwmM31reKHpUj5gxxhiOqC7inVcaloYHpii2JZzBjGCX1UL46CDPzOVoj85WzdLiDu7JAQeIDANCW5LeQFIWRgXMw3vjM7zoDmnB2w2N2Yp3svWvlvPc5H9kEMTfNbuOCfw5Vm8e3J8KJrb1DuCACPqK6ZU84IqOmOQc2c6A1jWnAbxQtIN+CXtopSPDLYw3A1TMpnUQIO5UgfVV9JeUoWcCDFVknqp5aCARC+PZokANGNovPXveFuo2lfpP2q93FrZZnOdr7M6N/fdmwzQNllgpqReKnuokNR/kIF28bUjaoic4pNSb0B9ZXqhsVTVTFovtV6pfAQ3rzTiKc9GdW/v2OKiPX9ZWS8YKtVLdFobgVpqzXFeqOyBNYp+AI8+hsxPb8wKViLIiCdOb850RKPRM9/Nb+afecn9AebQeTq9hl5obXpugeW7SWSdqa1FeDkanxhs2jS7U7U9a9DAvNNXIYRVnA3Rj+u773hCWxMF6/FM5NEjhBvT5nIKKpxxQrL06B3CYfoOnt+hPE+8UnzPvVHJ4VE6SX/COwW3iMAjkq/ot4/U+a62k5BT9c9T3uupjUUut7L93j5S78Q6eGA3Pvlg5e1X118grBpur+UrMbyKxXHE2lLtbSj+dCbG458K/lOd7eScT29DztaDxCjFc/ma1JnXFIKGAF+q4PPYvWSFfBbhzo8A9IMHcyMzKpm2tMD+RNZv2CV9OzSxN385sLO3X2ez8ftfn0wmW7MnUp9fqufx31xua2VrC0z1dV33zrO7i6+wL9LCOH+MvIkziF/SBFXt52a+/tEIaAQ0AhoBjYBGQCOgEdAIaAQ+FAT+q2Ir8u29z355/bPfsS//cN21fsGn12n1BsW6DU7hzfE+a9ovJ/9grRrxy7F/v/z/y68azDOtTT7sYVH8v7g/dQU7/By1p2tY06D4F+/i4lisKi920wyH+AuVgQK9pclHVeg/148mJpYWB2sWxu9k+I2fT06B+rpNh1CTHzeld6709Y0j+DXm/Duziu6WIzsKor3Z2CygV5Te9DUB6qtqL1HEs1XZHyzHrxdyaG6oiP4iIOLn8ChGbNxnPFiC9YJBljZmp6en6EMhFcEAe6TtJXIlW0Au8x8JZ1lJu6pvKRYo6rULvYB0KpUa6O5ubBxerxlMRo0gOxR6VUVU9oCucqXNdF83/1y5kg9WGkY0ObE01HsJn958TJjB+NL8AYZWxXp5cLm3eT3ddyXFVxioPe17qgbOXSWYtH94kkULw4nE3EZNE1sfRkDc7g9L6h9IjuwLHKRyUKmScVbId7e72R9y3iN0vgMHtZ147OJ9rAl+KW68XiVsTn1MsV9EeAfevbu5PXuejsIhvsZSLvfgcZxm/0JcNh5b5dfBAH6w7bzO95w43EVSyRf0vcvfhUnSIgjyJiYnH/DVHl7OLT8NCcxM3vqW/tn2EzP3v0lwBpMq+ymXn8tka5pGQCOgEdAIaAQ0Ah8qArpeGgGNwHFFoOjgr6jgxot//aGyylrM4Wfdv/ljVDIXWPC6ttWdf1v/Z3ParysDB8tLK5X/H9nc3+/W83PYDCOCEK45FROF8ulMtTVjLk9z761B0MJwg+NjzjBlLB8Gdhcp11FJ8mtpjePhxj5atqKhods2Esa45chgAJM8ufCprV3LTCH41UDLOAzmlzhQ0eUii6IWpVcqKaC9pPwgSu3fhRwx9zdqGIj9LljBd8hXJXe7mFy70GuW9P1I6+XjMgkB/mNyuH+m5xyrwDJmRCIRPoOMlfgpY32lmlX1KlUvQqp2tJf/pT3fvZSkV8oMYoA9Uj9BEWmq/aK3aX24u3sAnytXhh0L2LCS/IGEb6YTV67w8PKAiPwScRf93jafRBk66/wf/37jKUylBX/pH+u99pozATiX1KEHyCkZZ2Grb+tu98L9dkl6VeeFzwqTEHC+l2RnAG5Ck2HUV5zAbnbHehcZDvzp7V9odi97Gk/SXN2TYjv5gP7gQiswpGjSL0qFv6S1ILATwI/c0FkeNsbebtN+y9+tXSWUo8hv+H3868KRXyG0JH8TRfRWI+BAQO9qBDQCGgGNgEZAI6AR0AgcGwSKCP5Wd/5T/KJZoerzf/3R1iZfLLY5fu8fP/oPnzlXgUBomLV3f8p5P+34Bfvzt5wTx82d7cxc7RdHjDk52cWG+q3/xFeD4Hn5Dd2sxvqjEQOk2i/6Yyxt/u0Xx1Wx/g5aAqIWUbrNebFUAsjyBEFNZuyA3ghE7/EimTzS1xuP0k0jgss8lkH7EEJz/qrPRHgsLBJPJjkP6EUmRNHAyeVfikKKEenot//VjRxKNL1vYsKORoFEN9VNvSP99EnGYZdpDJdD9sPIDgSGFubEi6pQBMkvB0Qmw4fW+hwz1zUGj72uhIoOnoC0d71K4Yr2Evx+vUr7A+UIad7tGp/7OzIyWONwNi8Tc7SvzH8C9frt94k3Ccp6mfn5H9MePOSQ+U+ez7NHdg4K3zYi0ZGhsaEv6JzycOFQyMeOJ5l0kkP+iVzISVrnFw5VKeD88uOjOi+YWq9U/psN1tRrr/cdvdS0qeo4RL2UelW1UtgjfErVD/iFkV52mncb0S/oFWwmS9H+UCDIWKo9pP7tX97TT9vZc/Qjvhae1Jei3cuPp1BDK/mkEP6NDZltp2x3XrFe7sO1HXiSZpWnX3rXHYx04qmSE4Cz1K9IvOwrzEHMWtpv+0sE6PUw78E/Jed7qXaqcMsbeaozTAsxZLcdK0Tnc+299DRFf9u+bKlHuPha18OHXebL2eovLYulfu/ytSBuXP4tXwxCwf/2MV+KAXKukaC6h88H3j3vuma+w42xsxWfxEyBlurt16QZ8eJKw6CXuT3n/AXkd9TV15+7VfiFb5aS/K9or/zx3vaMypbnA/38NXaVsUsX23Z2xJxn0Gm1hyePxbK/BZUU728FRWkGjYBGQCOgEdAIaAQ0AhoBjYBG4IgjUETwF4Haj/r+KNbnHfr5vybuzaNO1Z1/i3ureov+h3u3KOb7ffp3Mz/51T1i/lXlv/zOeiPcp9dveKf9fp/+hzEmOP/Qx37/m7QVJoZsO+WmBvrSrHdscWlpaayZXn+W4X//pOVY2WZN7xjREaVLmMsj2AU9O7nc1K3h9WYuZ3Gsl22YL7nK0QuO1psHSc4iZYyPTpsr4tHSujWDY4um6jmL7pHsPOS30INLExNkFY9TQP74ApcC4TWb/llpVVXuScsILdgSq6t7x8ZEaBhyEtx+GDnYvD7sfBET5/fKoUm3EnxITrpmcHERNi4SoKNTHE8Vncs2N8BwboE193eYx/xnj3q5DMkGuqTtZbN69KrsLyjHFmjv5HIZiv421aR9TiVtX2oXn/8U1Ouxn7TTcg3kbHAepHy7y9qL+Bnz20NLOIo8bB3+gyM7wTa7HbF/q28YJxg0wkPZfJ/z3YZO+UP9HYhFCiFOOqLFoJMc7p+mHOv8EvxiCx5bLyjB55cXH9V5oTivVfLX7lBziZOa6ptOOCfD+uu1GzxlOMA/g/sBGOxK06Nphu4Kp3tv9fzw8EKNCGhCTkLqD3S+mwI4zia/SfL9QE5p9iD8mnuwSHE4Fr5oTsOE1P3GEyrslEl1D6/Hxvi7PVFHaf+Ak1e0MPxwbNCxOtHa7Pg69Xto9Or5PlxTmlvpIYdSDq4LUpxx0t0xkSMVzWwu8LoAnE2HW4Q57n77KJ3vQXbaDeDYUeEmWAyj/tJlipDuvBhZ5dcXQfdvxdoOOyx8fnb75mwq3BZmrx9v5XKnYrfCYcayd+/Hvpq7GM9mWeiB7AlfAAAQAElEQVTGbP9QvYo/t5J4En9KclKzN7dn29vCO09vL6ZfspePl5/y98jNps6H2Q7Fe8PhToojv/3qNsSytlTP9nYPf5nb6/TLAPkkh7W1z0I4r0fYNQWek7ybNbqQuMYDTo5cbsrZHzqzCu7ntp5dn3nf3nNz+2ZPKvw+/s2c/WI3Bqh6+IvgBgbeDTjeBecQyh9R0XMUaneFnzvY9a5GQCOgEdAIaASUCOgMjYBGQCOgEThGCBQR/GUI1F7/7JciWVHajcd/b1IE/frIt7zWebrFCfK39z77JQ8ZYz+flkcsCWbZfFZ+L5Ma6BbLNXTn/7acmxpoaOjutjLsCI5hRKJRc7ZsXgTfQxGTvYEEcRptMlOWfEgcmDKDyxTscGcE3sSSIBTJpKCiMZEgexFF40VsKdzcARFsNfmpFtYrzjiJ/413fMD6JNLWormM5e2k1SDoj7G8BG1QNWiEaDrgX07hCpHBV8rkZNpwGxsSiUaqbkpMGFLScXPYbVUETKgLlGNHJK7FZT+nlKwXGoRA5xaiACaZ724v8CALdGd9QVTVC8xSOeCX6rVEIdMFMuiERkODp33z7UKAOvwHYDWIj8vfSI6v3WGkYLW3du1gJ4j+9iI5PM9pj8p/yHKqkFkjmGa3Yy5fAZ+dXD7OMxgA/vypwelOvWQMhIKPUl5OkF7U2WoYtPCuzwuHmLxesseRYctHcDBvJqgO/6civnrtBs+8Apc9NpmfHmheags4ApoFqpFgW4qfbOa+2S1ByBTK2mzcRu/5i7rys5xkorjN76Ejy07gobaC01I3atqDXE+TgWKnt3PXX+zw4NLn6Za6+krDgM22HEhCB20zY4dENbjOl1LxJPsHpiBKJMCF7kbsI8tyH0CU78dsf25sTNhv2HTYSczA0MZTJQc8DQ1enKEaMTuzZZCNs4J38qAjQZSzFUBBcp5eUxYzcaK4I6EBwIyk0ousvePJhdgtRlCAIpLUTmTBHhsrHNoJVfDjbxj1lXVDnZ/Png8xtnP3ydxLm1+1k3twlb+fTaz5cGEysQLOLUG8kEAgGAHZyQuUO8qzpPz5ItbyEaNXH/CyK6tXL4jVJLAddcrJPRBiQad0gb8gDhdxodqUY9oD+U45xH/S5EeWKvnbiyhA03IDtAQ8SFXcSc+tTp6cXHVSVlYnLySTJ5FGJ+15vggKm0TQKZlZU/xNqrZ2tJ3tqGjfBpmfO3UVua/ZNAIaAY2ARkAjoBHQCGgENAIagaOMQDHB36Nsv9u22tbewbGJZDwaT/Y2bcrexeXm34ejXCYfiShV/Br/2z7Mj0ZRg4mhGFP9Lb1UyR7+DH/vk4eIQxUdWWVJx10+QNhL+6L47lIAbk57Dsx/UAunXhyKtE/bw6rXQeotCboAfyhJTknMudzK3Det92fuZlk4fPFWRXGFnX5yZPFUVeVQcIYxAXqPNp6RxovtJ1g2+yJ+/5uvEH5FXX7kydleRxaKAH87sjZrwzQCGgGNgEZAI6AR0AhoBA4fAW3BsULggwr+5jKpK3194xvVl6rZ/LDrP93HolFyUwPC/EuXqAbjfVfsSc3Hwn5t5OEi8KH6z2HV67D0Hq4XBWhH/HdrNTE5emF0tPDMR7+cg8bTXtTcb8oHQTloPAuBRrN0yTcuTD6jibeF2HW+RkAjoBHQCHxACOiqaAQ0AhoBjYBGQCNwtBH4oIK/gDqXyUylaN2E1NTuZ+BCzmEly3xUATUw/8d9WMZovccOgQ/Vfw6rXoel99g5XpEGHxieOTwJHKD/2Bdp2DFlOzA8S8BHs2oENAIaAY2ARkAjoBHQCGgENAIaAY3AEUPgQwv+HjF4f6zm6HofHwSiySXzMxGPGEZBww+X34hEk/GobSct8x1PJuPylb4L1qW8DLAt7rCtvMLLKM2IArIkffaGG8CPT5i+s5SMltHCgxFVLhwOxlqpFjQBNebe2tGWbFQOdfW/o1eFDTysM/C51jXAD/sftlQW7hmEHKP+WsvDh108tQxdqzSKLSiKH+L2YPwhuP9EH6L7tz36QLnaESdXqf0bipTxfNwjDkeweEn44Fw4lOvp7vT6z2tUtlT/kTbZ7uyRijruREC63+eXvx2PO2jHyP4DaF+jsm6oq+shT0MtdfWB4xPDqLzWwplbKm0YjboWUZy2DrrNELAD7bxUAb0BEo5DFitjO1LvR/cqyUO5FuwFbYAQx61poIPtSX4E4stw2xUwXkIV9ru/3QsCuuxeEDjqwV/qK/v7nyN1tTi7aXTKuE8FHXelzvpL+W1m8CPhvtZZRLVPpUhvnZOBiF1kj0evk8e5L7UHDPV1LbCEUktRlwGpXsOoewgLnanFZS0UeVJZ7LGNIfv7+z14Ui5M6ipgCQwz6rqEBMe265qBarnpVtN7+S06iapsedgvAhUD7/pJCBE98h38yP0gE3XWyQn+octOkXXcTPc14EMTJYuabH6o/Kdrmk8763W6uamp+oyTUsZ9jDwQaS5a4Olmt21FF/Qy4rLOGxGbZCkGeOXIj9/Mzs3NbbCa4nGT4kCza/lrvxqHF+SK9kw9FjjsuZZ7EnC6TP5vVA593nMjHMpmZ1qTSVrWg5ZxSJ68P/N0J9R2vme5pbJwGNcwrnXOps63hdnr6R0WPn8j1ZOOVRqFC+4JgnIVLtN5UdCcwP5T928F8SvEUKZ23F3/Vq7zsVAli8qX9ttFlXQzlS7HXd5xJMVHIf90ua6nDv2u3fLq9ZzXu/Cf8trjquqxOlDgQHU4XabrHclSfD3taFx72P/8eT49HDr0K5pRf63u2rW6+mNyYVXgLCXva/vi3jLd034jfILtvH7NTtw43z7bea4+cHzycTjchhRyvORie236NRX30qX18RIrwpAWdkjzMnwgx2VpR8OIjoz1Vm/gfmWOVfeOjXTY836OA0xnqou/xdpFfSC++XQk0HuLkho4XipPO0ai5b+NLapumkmJQFHB3+b4vT/+wUy3PjVlOYi/iVWbRFbd+U8mp0XMUxwSpERLhv0reupwdvn6kye32Xl003ZWrLOnfQf0ZRbusYOPAfyMXkOzfHuZ0si2LUa5gwgmVNwIhcJuFhD9et0s+SOVPaDfag/PLD+5/mR5Jtx+61y+iGpPrvfc2fB7AoHXK5sNhbLbr1QSQIdeXPn8eIJeqj0qPFW4Qbs0hQnh7O0ngEKkxw9yFH8kOq/azHsWDp+f/fySuEJL6UZly3LP+bbQzt2Z+60vdlgonArkl1ryYRA7RsYGa+bHE4nE+Ebz2KN45AMcHTpbyry/GphyEsu4X9va29taW0aBxYgyosmxGJtHIyLNs8GxkejeL/AOxbQ2ztTU7IaDVGh3VzgUElooX+NQCCFWRv8/13gjxNjOi+uTqytOvVurV5+8yDJEci//tvBNb6yDrpjZmcWv0s+uXkiePJm8emzW/z2C50Uul0nh+Yru35weWWj/ENtxv9urUNW9+eXqt8slR4VPueR761/o+LD0quw6avao7NxvugoHlf/stz2hcDiE25Trt7NZFmq70bNcxKVwP2061flleyp1sfOT/VRyCLL3vX3PnW1DtXayI3OvEpOjJ5PJkxju8FtOkP0pl9tKjCYFm52b29p6sLr6eMcm6B0vAmVrx45LTZvzo3emp6amUgPdDQNTGXVjeY344I/fbGyWo44B46VytaOqPy+H+VrGLhEoJvj70yo28+tfXv8MKTHzk19dbyZdFxs+soi/3/rF33X+jIg/jf1d+7//nnOaRMY2Hv89Cppp7E/sz0vfKogkwf09VRFm2dtzr1a2ttKLL7InKkQEEMHKjrCgr06/32k7a0VPFfyMVZwNvZ+ee4UuG2llK+dW4z0yKuvSn/ekTmTjM7jpzecq9eZZ3HsKe3K51avJ0cTq1srW6l/eu4vIjlR6c6uTF3Dp2lpFpTIV4badFyOv8uXtacFddVYEcFf2SOQo8FThlrdJsZd5+xZNzJOraYDPV4+f3MVVNnTeGSL30D+pDfOIwzIgfTkn+MOdp/LKPPz5DN8e4k3mH9knippxSTMTxR/fwV9EhM6gAlzDBBXw6fcSSuIHc29Nuu/KnakMrQV6pe/4vfPQW3/rmGDjOD/q590Pp6O+E+LjW3MgEk1ylFEGOJuLQnD+ZDJplnFGxm35S2C32hHOMBSrqoqNQQrSRNyUA+UQBTEgLnnbsbn/0aKfzvmJTPKtiDwea0NIPBqNC2Mt1bWna9jCXAqNiJQaaOwbnbJGPCXJAQa2zQaVLDwZnLgEcDDGtjOaVOEAKPYvfQA4SP0QiMlxhsNNTPj9QdWOECJcGW0Fmc6ELLgWOZzbPzmdyE4/REHDuHaW96HZtZc49KS3c7fpQhhqr3V0qh4eHBr1Q5+n6N6KhW/0bG8PvHs38PAa6Eg0eQqHIj1/KKYsQWmXNaOKmJGLLOvsQyl/2lc8/epsihQ3NFe5zgu7/9H9m+gLnf5pAOhSzgu71fw7+9qOEC49H2E+qkPXHTrzJtAL+w3zUCBKfv6iLyAhSxBoT6VRyQdd5Z9cPheEvsPRz08sJaP8BCTMl3D1oKFjgByP2TikCw2Xgn2RUBxSsQ+lKnxUdjImv55Cmj9x+eW5vpek12/J7igAqiQcqI1k5wW0AwrPeRTQLuBXJb8ccMJO3sLcN3Bg+QllUUfGBxBFXHcgHFx0XpBb4LQggSREMd7g/MQKnwWbM8EKrrWo88JZsKT9rZUHc7Hr/EnojcYYFcUlr+v5u/zFq96qQv01+9Impgy31ONyx2cQ84nDOOjC9e7dc9AhyKgfksqpvPawn9iEiudd1+qJ+drDyzfoah26MStU9w8RHVnSxHGTnBdB/iPrZyAcouT9ErW7tz9hjKmu11I6hPPWhVNEoctOaFx0d+QnpMHVf9pqMQ6fmCBHtEv5d2iSUDvhxkLnZ2/epAWtusz/p9a3dD3ny10R0f7naKX199zi/skKjVDh+gdqpekPtvztnvPcAvCaSXZ/bWb5fwCFxM+JKhk3onhJ+BC/3e5APGre7/B2KcF/OD9vyeSe2hFyHg02MdyALfJbKktagN866psUFzJUKppcSsbpHguuI37sLKgoqZ8kpMkJ3f0MUeX4Q/vpji+4Cig38QTRn4L7Z7+dpoSq5iF+v0nS+YXbpCt+uBzuQXSSmc6p4GVg5q1IrB4eZPFKuXEA0BPcTwgiskiUAjzq65pg0dtDQKCY4O/36dTjfxO2/bTyox+2+NOG5ZF/sIjfvvyTyK0+/9dsZgKxXRx+O/0v7OefVmMvn37W/Tc/eTI9nyfQnpRIGfi+Xbt+f1FMBaUA3/vtFREEQRBzZyfDGLraL08wOyjMVPwMn3BKdPdWzw6SKuW2VqeXZ1q/eZz2cKj0etjswyB7GF0P+gcQYp52RGztoq6dQnoRHb51nt19MmfiYxUOhWimrHXEAvEJsscrhyRK8FTiRvzqbyh8q7NzLwshRUIhSH/6mnDEFEAOhwAAEABJREFUo1oeTw+dLf2PNbiojAzWzPc1NjQ09M3XDA59EQnsT9GpjTVvjNv8jwrxR+KPxprZeKIPn3EoKDCjEz1sSfy1rc1sftZ+NIoHeoDlA0jAYSiGdgFqfeg9quwqrc0mEonxeZan8Cy0Y/9gzfowb8fh+Q1ONDdVTTUb4yiVGGcxa0atqh1zUwOJ9Kb5H8CGhu4UuhwSA3uU7QJTxsnOvvH1pkGzfWHPyFiMjdPaGk6/yuWm5tarYoOD5ER9fen1pksdJH9tdn6zaRCXXMQB4YF2O5YqZ3p0nsX67YEOq6kh6eqvUr4CB7Wk8uQcdxyAp9QPQR8pxR+U7ajyf0U/o9JLrXXq4xP42ZlZe4sff8rs4AkcCzv/++hnyq0knsSfEj17d6a19T5SjC6huNHtTLWFWPYFKHezLNzWfo9mTuVyD15nwzSpKhzeuRt/gaLhtrP8ppqE+L6wf3/x9GkUBOiVt1eZzgv0Jx9w//Yj6t8U5yN7s7FZVcNw3WlsbMQFIDYUjwTdd8EfpNcX8sNBXAf5dQ3DB3t8opCvvH7Rf2ll16OpgfEFXLXoItQxMti0MJ7K0MN4lRxxdni2uVyGLl+XOnA3G+XLNOYZFPgEyZddT/MC/XvluL6T1FL1Upm9fkvFIacYP5Cf+K4vQe2iMFwqB7ywU+onQX7rswdyKMnaC/Kl4y6m8B+ys5TzgvSW40vXtdkb4TDLxlvvO65rhlF/6V4qHA6/n7m+PMP4Bc7U59w3SYyp5Vxr5NfNbLzifvxu9mmWLsKM5R5cfQJ1jO3cbaX/1pw8OZpw/VmH+T9SnAP8R4Znqe2LdlFdr6V0Vfuq+k8at8eYdb+Gu4B04s6av+o2Jbf17LqYzrXzIn7/fivSY7pnNOq6Zs+Hw4L4wvHP0bdrt5eX6b+noZAnYmvLdO7gNjxN/0BlT2fum/9AvXyp3jAQprgH+WiumZm7Zhs6yzGIR3KRZAfAU3p/quwHxD8IzfvTwvhAvrxdYEwp/lOudsxlUonhBbaZHuZ3VH23pmEIUlB96VbKuj467sebmtloIs2aYtVziWHrPgv1HfH1SwH9JPHLzouc4jyCqQwqe6spRoA7V+e9GM9zbgro9dlpl13n95v8dpYu3Dbdv6M6f/2cJiWgv5XaU+I4xNSifw4JgWKCv9y0T6/Tyg/RrV/bMV9OxgbR27/64QczOoxjZbrYfXnrnye+d+dLiSYLAnkrW1s4qK/ruofg5iL11Di00rn05dDtJzQnSVDU/Nuvs9n4/a9PJpOt2RMpa00AUUq6fbC66gmkOti8eh1Zrl21PZxtbWfm/U42dKLDmrjMqQEbpd5YZ3tbdjnhntFM04uTqPHJyVUawUPu7uzxy2FMiWcgbjBBlnbev379ehpp2wruC65w+/P+/uXPe8S/kUfsxvfSzbjFa/dqHuEKa5aal19Il207Ltk3PGt3xheqCiwli0EqIoJvznREo9Ez381vFuJHcLZqYXyA5uXSzFz6E4t4mCGzBbRS+c9U45YF5Y5c2qtBqNgCbkQz+NwZnecPn0gkrpegvKFdz5euQk29I/FoJDOVSk2ZQVvOtDB+Zxql1qZH05s1p2uJFtCO0Ewc7m9Qu2zOj06vcflzC8yUz8ivhtHuELN2B2OQZnslCRjKFoa7YWImkxpoGJiiUxWDniuNfePzG9W9vWOLi/l5LiXKwSAMUeRL5pAAVVn/LmhszALsRGEYf8Dp+OOA5q2S+GGZ2lHl/0r/VOul/3KoWzeXW9l+r8525LzNvBY3qNsvX26trGyJ/i3G14J4evvZysrbr/gk4rD5bA4XEir9ND6aePDs6kncyk4+oFOAiJLv/uIpUShIatzKc15AyoLu34L6HzS8v588av2b6nwkJ8J1AdcdnA5r363TcdA38PyFn9AJ4h2fKOTDsySa1P48fWsY4d9kMonQ77B1sw0JcjnIkCWqIr/0nW7mS+BT4xFfAD5K+ajXtO96SsJU34W9X99JdMl6qdDev6XiQND6xg+q67iqXZRml+gngX4rH/8wJmkv2CPFQek/ZGdp5wVUlJzaUv3Pn3++jDghY9m7i3isaV7X4pMPcF0TM4Lbaz9h7JNORISJ56uXr77idKHMujiKo/xWJYdldujuNhz+Ml3LHk9evfrsgRnkrThbTDQyr0GFs9p/JHiW3r4QLxv/8Giuf1ykbF/UA+ejtP/c3JjlY1rybbAVSi+3OaKMmX82RYeMYPrqZMXX91uXt1lFRYS9J8hDoQjouRKXdxBrSmRnrq5uuf6BWsFjx7hDX139ajFL8h12yu6vHdnOXbWfA2jJ9RFlS8MHYqTtBUHy8xQF/HrL2I5rpIC9WaNLQIY3FkxBIrKv3wu4j4P15CabadydobiZCE9Jv7SGS7Ts+sX7Vcl5AWlSe0DHeTd85RZu79jad/wwaBOoV2InycJ5wa+P/MJ9KT/Rh/K8X+X562U0j5XtqMCNisEe/3nKmLQ/J379PTwEig7+fnvvs19e/+x37Ms/iGUfLJM/vf6P9X/+dWrZOlb+Nsf7/NN+pUSPiPqW/tn2EzP3v3EHN0O3Pr/4+olvci5jfv5cbisxOfmAx0Zfzi0/DVHPDi14kpOkCer5bzIaNCMDRRiT6A2W47eHy2ErW88Sk6MXZ963XaTHg4Ko3kr0CmajsuXL8M5db2RcZEq2e7dHhadEWVGkncevxIocFOjPl9h5QU/NQyybnTk5+iwfi3fTrX8pq6f6uvnzcvKazL3a0zWbG85YIr8CmJmSHwOPnieWhnov4dPbGysm8uqWL5HpIZXK7yn+YRzWetulQLVw0bpzpa9vHMHTMfG/lOACxj63Y+3pGtY0KHqZxcWxWJXrKYG0iVEFRK0HursbG4fXawZFv1SqHAiZtaO/uGBLNTmgCZbvYNzlrgGcBQrWVtQrQByqcHxxgPFSP6wt0R8gp6R2BJ7Spg7Wi1L7lE59THeqO68zDvnhCtwkW8fuLIvq+wUOh4LnfuMG+dL28gFgElQ4mNm+HwPn3X5ep2pL9GcYiCoc3/Ma9u93kvoDcHbTC4xPVEZCjup6lMtNUfi3qWlh+NaU42ZbJUpOf7NhP6AlhsO+8zNK938y+5h83S5BRteqzscS20UphzGVn/iNgUEkRz3+AcMeE+S79e7yvChgRvZuloURxtt5Gk9ewM1oTlzXWFtq4N27m9s8KAwGRA0LCPJmq+TgmevcxVaa88vazqdmB96Zyz54y+/t2A0dyQrA08+MAuCX9ifo5KXXaxUdokpL8GdaE+DRxMTS4mDNwvidzK66LJqx+3nPbHv7lxfPfhmmuH1pZljcn1ScoN1w+7uBge2bfNISo9tSQc/uuGcnEWtpX+C8qb4/dWdxySXis7t2kejlykvYlGinkOzXa5TYz9eW2E+C363U1c+4s4SN2DYN0poVE4tw0PRogUsqcEAJO1nXTeiVnl82I99BYZc9nOjdKIz0sgUfF2dPsAyde/gIFB38FaZuvPjXHyqrqsUB+1n3b/4Y3fLPBTaznT/VnX9b/2fvtF8p0VlKRHLD7+NfeyK/iMGG2TInVoTC9nIQAfxuseIII5iBBtdHzLwTufItLv4+vQFyKNLqs98wKusNw5SPR5EhMxhtUqQ/Mr2CkRbEwENFHtoWlIBt2ewJ0FGurPfbXz15gcek4fDFoUoLLgh30xGJ5us8MDHVF9jyPzCz7Lb1B2Y3PwQEJFdYjhWYKVn7RW/T+nB39wA+V64MLwTItbLc8i2q+rck/uk512RlIxKJ2G6mVnEsckrCATWqrV3LTNEbAuhvtoOOpQ+QZybr0srYfrfjGp4kLww7O5rgfiaanLCjouhb5tbNKcSlykFF+coJ9EAYsd+FQoPjXciHiuIT6lJSf/sB4CD1w13gXFI7okWk50uQ3m0+Y5duVVDamwyjnt/X7On+JXTWeVuc3bae2nmVBR4fCp5BuAVaW3ymtL0CiktxcPPr/s2NB2MH0I5elbs9VvmDm15gfKJSHoCDYURHBps2FzabegusYaUSTnQoMA01fzZdMQti2f/vnvx//83bRw2An0nHG8gwG8T8CW4XsMvlMKbyE1Muc30C5Dj48u3lIBa769a7y/OigLLsX+au8/ePtH3ZUk/3I2//grsTxhALPkn/WUnybf6fK9a/WwqIZSxAzik8Is18NXnh5NetUB0Op27V7XVIXxTOKjzddLNmAe2ruk6p6KbE4n74TMbhxr5EItHX0NAdPKgOEPnJpYttIcayMxdGJy9+M/M0gDUw66X4e1R2hv5vm0yK7VXrf7fh4DWzAiXbmW78C/j5LvApol2K8h/b4GJ2dmGnVGyp93FKv0WGCbT5Y/eT5rGpvgD+nGthuLGxsW98wfU4lOf4Nwq9IKv6YYeMotrFbb+jdCm7xdlTikTNexgIFBH8re78p/hF07bq83/90dYmX0SzOX7vHz/6D585V4FAaJi1d3/KeT/t+AX787ecE8fNne3Mt9qvlAhmOxmVLbTaw5PHYtlfm87ers3Qn0vpf/2xs2H7llTFD/rzgX4EEBEZjKGj36H1gvPSit9T6FUJgF65/ecaZ62lJyh0W9CeQL2RUEgsd+sxw7+Q/O7skcrZJZ4eE32H9ZWVTlpu69n1F2jp0I3LrsnRHnr6NQ3Cwucbr1Uan1xq9C4TwZiH36nCuc8jLL3xiGEYkQ4EdhfmphxPkumx4kQ+KoeC1Amy05w9+gUtTQ9aPkn4Z+dxUxXn6+hDBY9t5QMie+dniP42DSaF/Eh0ZGhs6Au+rgE3yi+fk+kvWGLHsz06/LxdLkU50B39QTOsEe1GLYxIfGjMXG8Xh+6/2dac7iBMaKCwOe/4y5i8HfE4FddLaIacSDwpsF0LbEdwWskaHFC7kF+BbkSiSXq1Cd084FCa3mww+94b/JeaLENLlEPCua2XRkYGa9Kj5pJZRPZ8BW7cf+R2SnHwCCn74fHCwX++KP1wn9uRt3mvpJ8J0PtWPEHLvzzV1ZqnOsO4O3I8UHPlFjp4+5hfrumeuf7cb7+kacBPp1cdXWshAWb+YeFZ3vMCp5JZH+uHt5fu31gAzhZUvl+B3VHt38x+1Wd1MIHXSXL+mnRcjQzJ+EQqE87mv36pcMaYhIYxC8NXbiXSLOYcPMjlSFXaRLqnp8eWHZdqrAuhnWfu2PgUJ18lxpTGf8pwfedynJti9CrHUU5BBffLg0NAPw8LimgXcFFSyFH5iemfURrTgic/vlXIIRVwEN94DPTicGDCf0y9pZwXUKFKUK3Kyq0kntzFvUb4PF+znqWnccDouobHo9e6Hj7s4i9zYy8f8//2t1387SenYnwJCJfEsxWfxC4tp+g6KOgKOUb90OXZ2Z7ZtAj4vhfMfCuWSwqdjVTinnboYf/zgpOCa/zjXi5JslHhadKLbl/V9VpF95sSiQSNk+n+q6l3pJ8+SVpenBzPL6QgxQzasor6yrrfft5cRs8AABAASURBVN7OX1krL4T70/pKiUkm/dVrChzzuUpGZR29xqarpd4wXq5xdwifvVZZGWvc/QvfTPwj8vtTv8XB+JQwXiXRJfgPsbu/Vju6qdZRsJ0WV+FfkqO+H5eUD+qXGPP1k6Xib2vMZaboitrciqaziX78zSyfXtX1mvirYv2i/+zI3yYSnTG/fNN+//nLvB9Ve5n0YNy8wugYnapkHEI5+ntoCBQR/EVI96O+P/7hHqWhn/9r4t48rK3u/Nt6xuot+h/u3aKY7/fp38385Fec81eV//K7x+ZCwJ9ev+Gf9islQrI3hW708PdyDgy8G+i6ZlDPm8ttffXkRbi9593AQOrEi+tz1hxPKivjRwxx5n17z83tmz2p8Pv4N94Xo1G5Ir6BelXlZfasTsbfh8X7RmfD7/0vavPICtCLS7+Y6OopIg5Dnhe+EXU39njkUCy1HHiSOfiGrFevDgzM9vQ8rKMmBlmklWejcYywwNPpWhrZSc+tTra+wPU1nOq5SX++2sn6IXXyC8n+bY4WmF9vHltcXBwbbF53rnknmKuq3Es7TI+mmWDvrZ4fHl6o6XUEW1HEw2/KHxxbWlqCil427lqBiLG98uembvUNs14uf6yXzffZ7yiDMUge+aAEpyPCD9zGF2oGebv01mwyXEYcdvNL2uDSBL3DFNFuXF/Bn0jXDC4ugrY41sxcf7epinH8x5rX0wnrb2LqdqSlFblmNBkkzU3TylEkf3i9mctxtaPj4WsuNzVn+QP2b4F/jF5Zu4h22ci/lM9Rj/zu2p0EZ7f40wnzxTtoX54BY4qRA4k58fqdppq0XVlQeXLiNtTfQbip5Utx4GL2cXPscPCcL+QnMj8s1R8AcZHtmPd/+InPPwP05nIPFulfFix8kV7FBo12Moz6S5fNB2q7iNhCDt0zx5/usPD52dn2G2GWfToTS4Neajp4PA/mvEC9xnX/hme06v5H5SpFnhcH047CSGe/Ks5HQRdbnINzC6y531yIXRA9W/gDXQD852+h8QnkeORL+23wSK9HtR39uFj23ZoGqneuoAcZm4ib8RSpHKhTp6bBoerxPsSQccEbd0zKEws1u67XECKXr7iegl+dynB9Z7vRq7aolJyy4KBqX26Isl14rmujkqPyE6XfBp3XsvZiTI4Dt85/fpl6+fhQOm5HOdSl4HkHtoJpK3GBpoaGb/SkY7hoPjava9s3Z1PhtjB7/Xgrh8/K3PU4bkhCN2Z7UnTpNMW+fLz8NMvCbe2zKYQAd3Bfw8Lhzk+UcsxYc1v79vbNWbpwZu+OiEswLZ2P4m2pnu3tnhttIZZ9nQ7+K40cZ9Mw948KT5Pu75cU7Uv80vEP+jEZXVjhb19BF9scjaut/hMhJUHFtrq6d2zM/sMcCCWkV4v0HjYMT3ra0Vr8lWzhLy/R3DIIsUK3tJgD7k9nL5vzkDz0e43nPmGvYjO82RFq6GlvC59gO2srcIetZ7dJKO5PEX+ASMbcf/b13F9zDsmG8KReWXl/6i1TCJ8ix6tcbAn+w/nl/bzIwnZf2lF9HweNduKhS/pfC2yQXgc5p6SfLBl/LsjcwK2ZGag1Kb77fU6X6VWcX/w6tVnD7/fHBiW3eJL2hf/4zl+u19VeYrzkp4vxTCBuohCtC+TsbwP6c7OA/jlwBIoI/rLv0/9w/bNfivSbtJjMu/H4702KoF8f+ZbbnqdbnCB/e++zX/KQMfbtJCXauXwHQcYL1r8n+H8oJu0pwPksx2qweaJZKs+/sjppihrNE7mSoA2iiicnV50ceRUOvU4G536e2WfPg8lRWmP+/tcnRycTW/QGD2dB/35elFsv4sKJ0aT91xJnwdzqVaF20vrjSV6IyEjmoQiwxy8HWoLx9OOGIv5EbKYlSd6+tEVdTLqF/INJoqMhVHRIXnlmtS8EWpAG8KOINGWmBrob+If+ReRql9zUADIG+Cu5RFncI9HKAqA2dA+kplDUGWz186NUXj7/n1LGMf2tLPx4xpivQMq5yCaTyodJdKdT3RqlDx7s5SPvR4of2BLMAK0b7YNGyDcNLskgNSYSxIAG4JBmUqA1JBKNKDHgwoH+hsM5QTaFBLQjrnMWniRpigsHaNJ2JMQsA8ADm3GEHSRkkUGWYlBEgp02j6BgC3tQlnjpC9fKt2NJciAKCSpguggf49BOArcGwhPuOyVcUSVfhUOE3CbacbrGFlvETrEsxwgHVAnQobngmti3Ewdf4odgLt4fhDQuCs5iOq0gYiva0ev/LgcyG5eY83SXXyHr7dz1F/xfFj2fp1vq6isNfOor64Y6P589H2JsBw/Ugm8vIYMhzjt68qRYEpGOre/Wg6tERxbSBerjRQ7upZMnT44mzPfYCGLAloNwEHju8bwIqIK0v7WbpZvORzhRvpXl7av7Nwti7hLK82KP7biL/s3fXkQhA802RVtjcGGZL/+VXl/AmqdDhHUxCpCv6rel/Q8Jt+wUBXEEpUjisEF8HKqR5U/EDE6wibYZmHLykLUNDZ7+iopYHSJdjXjVYGQDLOD7kEC4uS7loPlTGa7vu9LL78R946hS/adUHAAwEPKjgCpYcOb7eRLegLHAwBSK8V9/QQ9FKifATygLKnii9rfaTiqH65K0F+hkqlUB2x9AR5L6T14vtNpKUU2gYx2S/7hdEdL8yd8/5x5cxUUqefWBYF69yhd54IfIyl/XTl6YtC5kuZUHkxeI7euKVv5QlYrmciurVy+QKFwEcdXjDOLap5Ijro/3W1vvt1YknfJzpnxTmuOSSpokXznOAiE/uxRPsOXp3H/EoBF0VftCPnzBPw5X0UkUz3P2D9TisnakKZIL4wPWJ2G/wRlSFMm8BfbfRE+O2negF0bpfvPCM/MNNKJIxf37rffvE49VVtCJglvOZPLC5CrFeVcd96HJ0auWENxf25x8J3/rLb2/VpjP8vg7/BzMwAwIYceZgvFBk6FpMNRwFoEcEP3tRS8ua8TNFLW681YC/H69QiC1WoOrnycKuH3nY4CdniJCMrZSvbhfkN6PT/E3aduiqOKWGdi3upmi+smS8KdOjN7hTdd9sq0bB65buYYGUCgXNULi/ISwv3+W24mKYXxjVoCqBCF2QhGPfGTl7Rd6rLZAFuGDAjT+pB43f2oD6wZXOxIzOtMG8XHgBk6ywqwRWOCkYEaiqpl2csUOvcjV6VAQKCb4ux+GaZl4NrK1UkTY98CQQhz5SNlzYBX/0SvaZDXNvfTpP1MUFkeNn4zOZfKXVTrm30zGvA7xI70pMwKGEe0nt+ntbWbFLGlVZvXHR9wB+KHU/0tCCLemc9+03p+5m2Xh8MVbFVQ40nix/QTLZl/E73/z1daRGbEdAJ5U+/36ltp/kh3S9j3mOFC9jvJ3L/2btL2OcmUP2LYPER/veb0X/zng5jh26vbTf7zteOjgbK2sbK0c46Gs/zolIFXRkVtM+659t86aepNxmoAQT04MxZi5jhvKlzvltnC3boaDyy17v+TtGp+AdinV1qPWjqXar/kFAsW0o+DU2+OCgA7+HpeW0nZqBPYFAXpA1y0+eAycK6jjqPEXNDjPgNGQDlLm4djrHn+cKzyn237Gu1ehuvzhIYD479ZqYnL0wugoTc7N5R7w/QuTzx4cncjv4cFTHs2l9p8laD1W/VsJ9TokVt2/HRLwu1V7qP7vP6+1/xRoyENtL5Vt/nZUcRZLz2b5Cg/Fspef70jivPdq5qYG+vrGN6ov4VPN5sf7rjgnpe5d/nGXUDZ89tl/ymbncW8wbb9G4AAR0MHfAwRbq9IIaAQcCBzwLr8ZKyrAfcCGaXUaAY2ARmCPCOj+bY8A6uLHGgHt/8er+X4M7YXnqc+uXhi9cOHZ4U3d/YBxzmSmUuayD6kp/T8/3/lfFnwOwH/KYqev9ppwtBHQ1h0qAjr4e6jwa+UKBAwjEo0nk9b7RhRch0DmdkUjRn5t3EMwQqv8gBAw6q+1PHzYxVPL0LXKsrqWUfdwoH+o0qhv6X/XZb1K0ai81tJSZkXlahCyrUtim4pepF7DqK9redjVUl8Mv1E51NVyrRjO8vIclt4y1qIgzmhHYFtpePtP0Ftk7V6qbXuUY5TiJ8XYtkd7bBV7lFOwXnuUb9vp2Smo18Nf8LBIO/dVL9lQjv6zGDnEU8p5AX7P+QVKS9fDrq6Hzj5fel0oCL5mkCJAY8L4ER0Tkm1JiW0qurSCfmJJ43MjEk/Go34hRNnP72HpLWOdCuKMdgS2R+F+JJpcMj8T8V3bU7C+TmwPq30PS6+z7nvcL4izyq9Aj8v6kz3ao4sDATRKfMI8h5aSxXaYRmXdEK7uPA211NX7htaQbCcjPxqozBPp1ogPESCkJU+3GQJ2oJ2PLQroDZBQ3iz45176QzRBeeNOe7SnJHBgfEn+cyyDv0Y0OWF/ECAMdPeS4DtIZlxCUAlcJw9SqVSXC0/YNJGMHhSkODcwMpVadbq5qam6uEVopeVLJxoeIGSuVdvaG2MsYy1/iUZMiv76AEErvWb7W8ING6Fm61Phg9sBcjT60lBC8DtPa8qZIExF1nHZGvXX6q5dq6v3xrZU9hvGtc7Z1Hl6T/T0Dgufv5HqSccq9/3s+zgc/lhqEsYGdZUS443Ka3UyulTIXoinar88z5h/kQEVvXhdFeG2cChSFH/FWeBTue+t4LPlsPT6DNkLoRDOH5/w+B5XVmT7GpXXuvqf9yN14ZGGxFGLlMN1yjeF7JeXUlGLtOfQ61Wknapqwv66SklzgF+Kp7Hb/qR4O6V6Yc/ukluvsv8sUXhhOW69xYh3nV90fen5MrQz/fr1NAt92dNZ5osL7jesq7brul+MofvBEzCelKorlV8qhLHTzc2npVkq+Sq6VMheiJ7xqi1KRbcZCu6cLn58fqa6qfl05OCvp4eltyB2pTAUwvl0jcL3/EoMPPPppwunJ8tPx6NyfpXtf14onOQUtZnuo5dAOV765Mwtcr9QfR1iDqt9D0uvo+p73y2Es9yvPP0Gxf5oNNb/vKul3nGCq+il+pVUDndXDAEdqaWuICCIew7B1K48J1HM0SSJeljnGsBQrps/WIWU36hseQghSF24KczLl9LFS+FwBjUOLwTrsnMBRbqn/Ub4BNt5/ZqduHG+fbbznLMhbE57B2OOtnC4LcRf6iGo22sYH6C4ly5yC2wrwpAWdkgrwJ/PdsUNaPiQxyfPVPKe3G89YgKuv4XOC4+kgodF2VNQiodBan+p/nOYwd/a/+Gep0rFH1atjyfoMz7PmscefXEIA4vibVVw0jsuq6qaW2sV+QdKrmLzAlACNXFrygpu7rcRuJb0ttYynxrTjwemfDn7SMjlpm6h/vAp4V6jd+wgr9CKW53W5qqFuWnzMBJ/NNa8MU4jnr75msHj6YeiLnvc5v1nnE5I8UgDkV8pPuj0x2JsHlAjzbPBsRHxsGGa0E8kxtdtaaMm0nu07uCKn+r8sj0LUKMGAAAQAElEQVSVutj5SbEqYx1hsGZnFr9KP7t6IXnyZPJqWddX3X69A/ns5fZ7+in4RazhYq3EeBW9oMCSGAyjvjYczr5Oe0qp6B62gEP69+XoyeTkgwCefJYJWp5wQHuHpbd81SsNZ0tvke1r4ElJT+pE9vaTJ9eX2Q1EsiwB5m+Rckxu2c/u7JdJIlqR9hx6vYq0k6qk+Kr6BxWeKn6FeJNcvJ0qvaagEn+K11ui4ALsZdB7riO8M7M4l15dffBs8gI6QPO5mtnVFHtdUBnaMTI2WDNPQ8fxDQzExXVfxXwAdNV4UqW6VH6VHBVdJV9FV8nZHd0zXrWFqOg2Q8GdXC6T6m5oKHJ8/mbjcF61cFh6C8JXNENpOBcSG+tsbwud8HN56Igo3WoPzyw/uf5keSbcfuucv8R+UUqr72G172HpLR/qpeFs6fX0G/ATRB7D2eXrT57cZucRdhSMAXSFX4ly3q1KDjt3NvweSpdvLyNls6FQdvuVt7D7GJHZWGfPjVCI7racWSdYNgshlEa28xlK/jyLa0/Kjwjvck+YLeM8Aj4UlhVlVHSRW9r23Nk2FNjJjsy9SkziDid5cnJ1RR29yeW2EqPJk0liQzmRcltbD1ZXH/MbRUE5sK0ItOCe/4DjeKrr7+7OiwODy1akst9mKGbnMIO///N//M//z0//p2KslPJk6DN151YizWL9HSYL4k35mZiR/JOESNQkLy1NJKP5+V+GTSeyyU9E60EEzQZdov+xQAHtT0zEo9G4EIYi1sMurpdPAXVPV+R0PpMfzA57zG40nWbNrRFLCKngUyKpgEROCfJV9VXRofrN2hohSl/zrV+Ew5I5C5jqbuEAZl6vYu0BM2qTTJqzOe07BMgfilVVxcaovmiYuNkunJ8zJ73/fUARrhXcaMZ8e6FVST4JmkDTwUI70dPufnqM3VVn8ttZ/p1cJrP2hpMJDRMHfsw3Hf0xlrYjkhS+XxhPTWWQt3YHfthcMJKPfv9h/8C7AZ766f+cKIuLnPl4sL8/n2XgUyelU5G6rudCCLaF5IBflXaBp0qU6T9TA+MLVWLGtgqf2tM1bGEuRZ6WyaQGGvtGxcMG9LygrXEFpjT1ZQxchnGt6/nzfp4G3r2j9ByPb6mVjfqhruecAjqI9USkIvX5IqJgSz3EPKT9hzSXEAddKPLuOeicXy6n8trDfmITKp53XaP1BIxrDy/foNFF6MYsGfPuXf8Q0SFHmoz6oc9TdO1m4Rs929tU5KG52gBE5eVb9pNtvLKwlphhALIMs2pSFUR8/xd+w5/dcQxuGGtv/HwbvjOAZ/Z1pgScKZfPh0PnZ4k+8K6/xTReSa/Eo/SHXV10cvX3P2ypNOVAaSU8l/v4wMBzPPMGxU6Qxh+E55ntLHbu1nl2d9E/kPPR6YG6kN9vtjiEGAp7OJ0b2WXCC+YCKdR+mePDJ8rkTZXWy4Af0hSZay3ipHSb1CXOaRAd+Ci1l6IXQuT20FofvF0IIpqTAc7g5MATQLma3uyuirA/AGdb/ueN7RJL3O2Lvi3ve0Z9S5flWqc+PsGeLs+lt7ZWXi3e3TnxcaXH+d1yoAgmSfGX40b+g+o/R4eKss5k24/zBZ20MA+ePNAfiLPbnjLWy2FPOfzfbScqLsVNVV/Q5f2GAk8Vf2XLc+BZx9vUQLv351eqgUmUfHYeSjuSJbL+E3RpuxBd2R9K+mHwm8ldXzQKull5f9tiDiuc5xf4P29vY6EbPTd5V+/p/eTXBWbA1OLGSxin9dak+67cmcJleyp1pS9hv3CppHEFmJcmktLxG1SIsTYGeNFIvh/mdD4SxMgyatIhRzqeNMH0/QTwI4tLd40zfQKchOb+R4t8+ImBfgF7IFxqJyqF2hAONPjFMNaUAzUB4/ag9nKPVyHHTD463XaQ9by+/AQEp8oeTicTUVWwFZWqmoc4PjQ6t+SjoLReBgAKus/ihkK3wx8gSp5K0QsJcnuiSbgftQtpphqAMzg58ARQdOMk+KlmJITjXMj+AJxt+Y/6m4Vke6vyB6OuKxXeyfpCPH56Lrd6NTmaWN1a2Vr9S3GTBmztnh3bTgAYtdqd14uf78CG4DT9nNOJhLb1yFEeltK+2q8EjAE42+3l9ysq6+k3TlWEWfb23KuVra304ovsiQrcSxGbgl6yX6nkrE5eQIhzaxUhy0xFuG3nxYj/loHsML9GZV36c5o1EJ/JmiTzp+Js6P303CvIQVrZMu/31fxmMc+Pkr8iFM4uX6XzaCv9eOZp+Ow1cQqo6B65hQ4RTFhup/tNhnu2mzcpdNBlzmvGoNkVH+B6wc9Ht+bVvZB4ykcRc2CBe0IMiyvNU9WWv91znltAzOKr6n9Ern+LsUMmU3Qczwy98f6TV0oILOC3gsnaGtGk+vor6X+iyaVknBSjrxI/zq5MOj4pyR7YBZP84w0i0iiAMKe+iy4jfF9hP+SUlA4z+Puf368i/e//zeclWRzADIBGxmLMnok5ZM4IBr1/sGZ9uLGhoaFveH7DEgH6yGDNfB+nz9cMWvzIr6rBxptyuam59arY4CDN9uzrS683XeJBZ3Smj8aa2XiiD59xCDJnMpJ8mT0klwfG5u7MziP6a839VcrhM0yLlw+9qvpK6WRPVXP/yAguyM4FU3IUyGsaHKFKdowMNiHQydfUV9ppREdU9a1qqtmgCSKJcRazZnpCfiK9af5XqKGhO0VRVDJmbTbBHwZV0UH+i3rJ2wtPYtFgkN/Y2Ng3XxMbirvHVXjgh5QXtNu9jktNm/Oz9nTgM9X5WcAIXH63bgY9VeIR5E33nG8Lsacz91tf7LBQOHX5Ur1h4KI4/T4Uhol4hvli5m6WIavjHFPRSU57OMx27t4vSo7anuju8FQJ9NBV+KzNzm82DeI+Jx7FDZ2BgLunYJGHudyD19lwKExp5278xVPGwm1nY8wwrnXO3ghjYBJvvQ80w23t935baeBTf+leKhwOv5+5vjwDjFHQVMWFmPv2j1rOtcYUmjGbjVfcj9/NPjVH1LkHV59AHUPDtNIc3pMnRxMrtjT/Tm4l8SQOoxnL3p1pbb2PFKNJr6SXy38BCgRa9qvq65fsoDxefk2n1fbr267Yb4ix5Va4z/3lbLg9XWfQRQVj/icvsjsvWvFgGGn0mWm8ik5aQm0ndmgm5pNldr7HlGMY1xrbAXIFhNyfmfHdbrBQyDNgIEmM4Yl+2072MQ9VmxTxg8fbTrpR97An/Hr5fgXJh/mfU+MKTiazh719/OTJ9eUsQ6VNtiJ+3nN8nDNMVfWidnkfPt+Oe6vbgPTF+7azfLIM+Dt7bgBn087LDjvVBhSvF/LlOG+/3gHCaJevK76+P3Pi/L2WSmpflU4DeJ5nWRNPoHT3ydxLMEN+Z3vYoofbC9qvwNmoHEJwMHuf/I36Noh2J0/7vlqcYedv1XGfJMYTlrdA/v2RVf5A6FRte8iMXhGL+HrkGOgHZPiDLscN8mV+osKHFcLZY0/Z6oX2Kqv/e+wEPnK/VdRX2T8o8FTxv527PoPTuTMmWhPdovt5lbd/gJ2H0o5kHroS3j84+0/yE1m7KO2EIJkckEXytAsRZf2b6vzKbSWezDzF1QjDDfRL9x/TxYWE0FdxXaAs6p9D6ED4fsAGY1jmGA7Z1/GSx2mK8RvJkY0nVeNP5XhSUQcVP+kdlN8XKCQxhqHqOEb/fX3j6xgxi5tDlXwVnYTLxsmwRzlupzLK9upwj1c5L208dNxkjtEtjXUf5PwHm8wephifk2j1d53jw4f/HYJLVa+c6j4r4P5CSJRti9ersocp/FOmjWiEZ4xZ95VwjXTiDk1pgHz5eJsKyb4KnOH/QzH4J/nbPHc9T2GcvEhOorhleDrzZMZJZUxFZ4xRfKd/IHUiO/0KR7tJhIP2KwaQo/Lz97j5laffYG/Xrt9ffMDHY5/U4rZq25xzqqIz+pTgV4FyIAveS7NFnsyZekGSpdzW6vTyTOs3ruufxRhOibBpf5cZmWUskN8q5/hV8m/vZMMXH9ZV1ldW/rYTj2FPfHyKF1PReWbxm9zWMwyYiH/nRZwu8PdbH9O5atR1zZ4PhwVRxBk+pzgD2uv28vLMe0ahBipW4At4pfEKRITvQT4NLBCs8N/eKa9HBfRZ2dRPSq/70aT0OlWwP7QEm7/K66+iv0WxpmY2mkizplj1XGLYjvsprkel2kP1VYw3ENaCdk9S2u/hK3R4mMHf/7KTEel/+b8aLTuL/uXBIwQrHz2Cm1iTMdE5LQwPSGZiUi/b1DsSj0YyU6kUZyBNxD8uZius3bEnLDK62FO25AtBbGG4GyJozmLDwFQOTBgEVy2MQy89xJhKdROZ6IzkS+1hvMjcVC7jjP5yokSOiq6WDzOrJPWliknpjG2ub8zxz3dv7OAmqjZ9a3ihaRA4I/Q7fMv8E37p9kDSwvidaeCzNj2a3qw5bcW7ER9EnichkArONx4qDglPWXsha3N+FPJxHVr7bh2HjoRbTQRfkCZXeaM4skraxSndi/g3H8ahoGFETtdsbritzFcMHP6EmzkQszN4GPhy7slddJuhcCe/HmR2cMBYdubCs9XEZPJkMnmVWyunm3KWE1tbL+eWKXwYColZ03J+KJWmXeEplQTimdraSCQSjU8MNhEsAfjkMqkrjX3j8xvVvb1ji4slPOeHGnfafo1oEmNP46OJB8+unkTIdfJBjsX4WgpP45MPVt5+df0FWMLttJjBJ52ICCPSuvjVy1eCLqRlXnP0xYFjq5LDMjuQycLhL9O17PHk1avPHphx0oqzVqDKISZg962levvly60VPHvmLmrqvf1sBfbf5qrOikWV5PVVK8htrayukm30mNx6sk3sOzOLr15uba28fTWdZeEK7oSgV4Tk9qvogF7MxHz7auTFji0ns7MTDl9Mt9TVb60mnnEDIFwkcT76T0aEMC6Gny7zsKPgFFs/nSSMJrYrYnV11yq2Z3ZCJjicHxJoZqjTnlxuBTV1xb45a9DGwufV43g23FFnBiKV9cJwjmXjo88eQNGzyZNm7c51hLPxSV59BLZesPZaC2el6tL0Ku1hkDOXpjD62+Lm7uy8XntLRr3dJnejPXzJ/tvPuNu8nbuddeGMbG9S4lxxNpSFHGqFuUXvwwB/+yJYn90xA+iMRfBEbJvbJuRDa2Xdw8vn2YtFZzCLSeSQ/VL85bgJ+XI/keIDU9Q4S+x5+7gs9Sqv/0vsVOKG51ozizK/kvYPAXiq+F/NXX9x4ssWelaRb3fAjGRUDvn6h0NqR1iDdvf1n+p2kdsJMXSe+uQQncn8meEj6d+Y+vx6i3g9Y9tvqaun3gACeFJeF3Dru3oVgyUksxPj/NKNdPBGnLsYV0jHbyRHMn5Wjj8ZU5pEZkm+cn7SqxhnSmRwEuyfXsOodW16boHlh4Fy+UF2LoxjHJvJuMfJqvE8qSavowGjddEhGn0941Ui8a+fjpvJhu7ULUJ0MwAAEABJREFUmzMd0Wj0zHfzm645DBJ7lONzLl++sfDhNxSXRHCcqe9HUGH/fRajdpH4g1yjoJamF2pV90fK+wuhx7vd3JileC9z3Y6Q/SX4lRJneNUC5MDdMndG5z1Lavj9wTAqf/t5e/jF/RiFhvKWqugmx9rOzPudbOhEB3+SbRJL+dmFX6FK7juqQvpKa1+GBtZ+tTu/kvQbuS0M6dBC9XVd9xx/2csp6OCkVLRfFZDDWKyzvS2Lu2B+00SilV+a2IvggDcft1PZ+P2vcbvdmj2REhFSzqPg53myjZQfwdmL97Ps4uV7ly+3sxdPrZtMFV0muADtJd14EE/m7Vu0hQiC51YnK76+37q8zSoqIuw9DehDFB8AnrDzsWUGFQv+mnEGX7yigt8lAvnV1a8WsyTfIcff/zgyfbtNNAkM8aVi4njK/iSwP/SpJAJK0I/7qzwvGFsY53GfTUQaebcuClJ/LrseQfqCsn8WRV1bkgN+cuMi45DQ4JKwq4NDDf7+r3/5Lzz9d//1YsnGLwwnEnMbNU1sfRgDlww/sWtP17CmQfGvmsXFsViVOYpBo9650tc3jmDT2NISYk0iUMbAv+mK3uUHbQH2uIuYjFIi5EvtQRk0Hq7ZNNhi66w5v/KDVA74pXSVfFV9VXTIZ2xjdnp6ij40T5BTaIOH8BT+bWpaGL41xUEmKmMl2SOK7H2L+rr1FtVee9crJOCWg6VHnSDgobtY30AwFNx+UnGCeMLt7wYGtm/23AjhyBVQyXpmOiGfJw9dyHETrYeKMn5Ok2zKiWdVrHeIPr3N6+m+K+KBSgA+cEU8hRno7m5sHF6vGUxGDYl9RZN2+ORWm/3UxzyC2ZYaePfu5jYegiInTFc//JaSVHIQ1Ji72Epzflnb+dTswDtz2YdSZAfxCr3uSoUrHCvxurOCRB1KHuHzTev95dehi7P+ZR9UJp2qxQDJnNfp5PHTDeNaV/+7yxc7zp7tuHiRn0bOAkXvkxxaGAGno5m66vx+SIEbERwPrtfOjqvnhBX0r7VwaoCruHlz9nwoHKoAuchUWG+wPUWqITZEiEI3em4u9/e/u9kezi5/JeJEsN9dqbDAgYqU8vXJcRX2ty/qtZbNhs/yGaAIRO68dgZkK1ue98DI+xdFVNqW5ZcDvUyGP+TPleSfCnxs1dIdvz3QW5Z6GWXyf2G2304VboJ/X7e53MrccvZ8Y4yh3bPTq44hh99O4Hko7ahCQNUuJdvJFfjry8mSDdrLfZ5KeA6SVK5xBeSoxs/ucWCZKwe9bvkHOs70VwaDJen9i5/TSZGNVynfTzcMWvxuqPcSPr29sSri2s2X5Ii7L2srG9e92bAmfwTXy90EZE+t4v6O8gp/C+sNtqewBpsDqqpiY4uPJiaWFgdrFsbNd4fA/s3S7zdtqfaOT46do9g514hBUjh8efnzyzdCoRuXO81Jjio6F7Oy9SwxOXpx5n3bRT5tkBNL2hjarzheH4Zf+fsNXjlW39I/235i5v43CT5LQBCxVdFL9SuVHKOy5cvwjmyROCgvKiEYmpicfMDNpklUoV3cIxZQhDjv1dHRC6OjFx9vM7rfN/lVdDN7bz80Y/fzntn29i8vnv0yTPOddidPxBmYL14h6FlFsKI0XaXE8VT9Sa1/Fl5pRuySG3ql4xPQ3f18Afk+/gMabxxm8Pf//N/+I1L1qV2uKkQLhdBM7F77P/5r363jsV6D4yNm5gL72tq1zFRqoLuBlgUY7I+aM7mYGR4GB6X17xxhfSIU/XXLMYup7DGM6KUmhkfMvfg01zjf+iaVA3FSuko++FX1VdFRRJpg6shg0+bCZlOvuYaGYCvVHlGKbxH35r+72rj17r69SlUOHPpjbF48zeeFcUWHu9mnKZ/oyoINeineupWdwZNGO4kZvlxkaRt3JOn9X/jkuNJEeKOzweYHyt5MJ65c6abPgIj8BuCDWw37rgBPF+bWHVNluJI9bt7+hT+MfBpPnjxpJ5oRLOSGnRNFBUm+DZBzCqHYzFeTF05+3Xp3h4XDKce/1OXCSqaGzprPqHjJ7PZL/nt0N5GQY3Bz6tTLrVXcO5ykZQfaC4ODuEnjeZZd81ZSSj916cvw+/jo6NXJyavffBPnje3HxWWPPxuUXO4Bn2Rvn4veyVPgYcwlp6R60SzabDzJp2WJbcHJdFyj2BSltyR7hFz/FmGmUDb+9f3rT560JpMXnEa6x8NZMQPXL6EgxS0nzy5tX2S/XZvZ4ROuz51ts4PRoFPkN5yd+dob+ZXKCcC/JNwC8IFJ0iS1B5xlqVe5/B/2SO0MwA1F9j29ms6GOzrPhp0BTamdsOSw2hGq/SmgXUqyE5JV9UWWlVz9g+r8spj35Xd6zlrdn4s3IpFIWcfVAeNb9ziQqy/rxi1/D+Oi3VvlGifvYtzuGa8KQ/zjWNBrv+htWh/u7h7A58qV4QWQJMlljySfMYzlBhw3X9i1778c/C45JdUrwB8c8lW7RektyR6VJoTJqhaGG/sSiURfQ0O3E4Ry+ZVbjsoQk55bnaQVl548uf5k+e7Ozt3lx+Kv+iq6YVTWWycy297J7rZz0X5lxxmOu19J+w24F0VmMRb/Whb59dF34Vcq+VBNC01ki5r2C+ZDSVRf+g+Trdy8SVfRbb497nxy6WIb7sWyMxdGJy9+M0P/DN6VxOB4RbiUmSwB+iVxPARWFoZx+bCT6EID+pOS+sMAY0rKCrgelWqPm/+AxhuHGfz9v/+P7//7s/9tQbjp8eHEhB0tcvLnMimEf2P2Wr0YjTaZsWAjEk3aiyVH4kNj5jq8KG4vC7A2O4+gJmLHiNx1YAC0MOeY10lzOiHki0eDTSgTmEw5UQrWQBSPbdE+U9jDOi41bab7GkWwrLsvzZr5m8JUclR0lXxDUV8VXVU51IWqvzB8hb9Vb+iLWsFZqj28VM3pDipOJ/BmPohKz8irz0T4UCOCOAnHkPO7NrirwLGpF9xGxNdeyJcno+gXmMjLcyqZvWDOzOcE2qB5q2L90QjNFqz9AoPttP0uOMr2f1+9po44fJHeLFZZ97Cr62FXS36Y5edXUF6u8b9akJzKGDp6sGVfi/EcdotPu8OzePkqfN5sMPtZghHBgxCHQxQvPYAzPU0BwbYvCdz6a10PH3bxl7mxl485cG0Xf/vJqRhfAsIl5GzFJ7FLyyk+bZhnKOQY9UOXZ2d7ZtN13G/fc16x2ebLUCBuW4kr/NDD/ue7mRT89jH/azzZX3/ut1+SPU9dk+CErvJt80E9MdSH8RBe2fKwq64eO0gqOmPhinMIhDMKfOzMiKUDjMqhy9b6vyjrxAeH4nz0zLGl4rQyQA4MziSlU3CK0cu+jMprlz53tBeVlNhDZPe3spLOWTfNfRS60Sjqda4jXFy93OX5EYWxxH/YGUzt6qLznmfQRooDK0VvMM6kQ/b16yU8w192Nt5qbLzV1TJUV2k2Oo9Ukv2GUX8OAXf3TEy/HL82gTOX01FXaRiQQ5OQ8ozS9qVssUJCZ7r9RH5uB9X3PHvxJLbqmBBKzIy7n99/FPiTHLV/CoFia9q/nWUyfASPdLuv9aL2KpP/y+1U4CatqSCq+weRb24FnjgI4McjmdfZtnDY9ShIaudhtiPqkE9m/6lql6LtNOVAsLS+oEv724DzixcpbSPO637Hi0CV5XGBbxpMRmmsi+v4yNCYGCKWbVxB8iXjeVO+0AvFSdwdkA2ws8jxJDhFkvKb8iPor0oYZwqBfJu/eZPKB4+KzvAc3DdODh63S9tLOl6FXimdbmLZaV7dKA34wZdPNdJxez6f74nxOd9VbDBQFvWiex9z/B9UL6kYhT8IXvl9Yil6S7aHK/brJTybekf66ZOMx6MR0zmD/covh4t3bSIRGrdwOZeiEe6f/d6Z2lJ/WNmif+i/fMv/QsM3Qq6cfq5x1voLPIXYnE/hRDHZFi7tIRMO2q8Y+wD8StpvGJUttNrDE/NZArM+KjoL9Cu//yvlcEV4+Pn0tXsdE073y+FkyQbynw/006Dc4PfRxfl58fKpvj2d1ypxnnL59k06cJDSJTbuhmQGbVlFfWXdbz9vb1PLqK+srK+kLsXDYtIV8Qor/nD2WmVlrHGvL3yD6iLjeKr+JLg/hHx/QmeFeCt6UGQVjDuBR54U16NS7eH8NM5BwM0X15LHIYu0X262RT3M4G/dz81XE1rGKH+rqpR/RcqkuofXY2P8pWR48nxreL15jN66uzjWyzZmM/wukftWzeDiIv0NZ6zZ/vM+0Tn/4uLYYPO6vaYtW5sdXyd+CKme77ODsyr7TDmDY0tLSxDVy8ZHp2kKscoeMf4RtkHm2nfrVc208oNSDmLcsLNo+SQnTfZL6iujwwZGf1Mi3FAFJBFqr+3oB1h9t6ZzucydK7BgbCJO45hcifaQfCjg9o81r6cT5t+gQKclTmoGxxZJNVpmjuMGOtIaheYHl1CHpSXcVeBENfWC29Ne4LYSMJ9bYM39HRaBfkOhMBLtBX7xeDOJFhzDcKoJ3rKE2hrUM+KcbG3Ov9vNlpGbGoBv9HJ/g/HOetk8zp1cbjU2g/Aj/cV6u6e9LXyC7ayJZXqcbAX3c1u00HsWgaKentT5ENvJxvlC7wULehh2jadHjupQhc/anQQ5E290nGIsnUjxFwmq5JRKR/jgcfzpDgufn92+OZsKt4XZa3qNGP399nqcN8BsT+pGyJb78vHyU8R32tpnU7iU7VDkOBzu/EQpZyXx5C6Y2tq3t2/O3kCYInvXXK/g7Ve3IZ+1pXq2t3tu4Plr9nXaO5vVVqvayUG+af9sO4l/OsNfBKfiL5lecdauO+r4Ohu+eIkCuJBDS7ueSPXc3B4YeNcD2F6ZxqvoDCC3z3Lm7Isn5nIB9KKhF+H2m9v9/e9u9kgWc/CcjIZRXxsOAykY4EwqOns18oK1w8ibPV+GsvEZh/1Se4RMHiJJDfTTW3B7gt9dRvhkT1zk9WoPF18vocjeAtvHMK6HwISpbIec0M7FjgcHWruTlaC3IM5QARvwPCLcGMO+nbx6tx1rXofOXuyZFaF5ks/tv3lztj2cnfG9MMMrhyvw4ww5y9lwe8825Fw8gX7rbAXnVLYvTSJbWctmw+E8+LwENuHzHE+43MDAQ/H0RSUHdZfiD3ueqP3Tbz+92A2aRXLgIwhiC102zip7wIkuCE/u9livcvm/yk7URYob7LcTeOz6gqjuH5gET8YC+CENoWFmPXHBodLOrcThtCP1D7CLEsfB6j8V/ZLS3xRyVPUlfYr+Vnp+cf7dbHBeIxUsmctN3eobZr183Ivx9nxfdyqDUnsZV0CmPX7DvnI8jwEEH086x9tQHTCeRK4/SfmLsd8lyjGpFDbPLdT02vMk7owvyMa3Ur1cZlWM12vMMU4me1Tjdl4GjYXEd2mjGq+q6Gx6NM1w20RYVs8PDzvsZ4pxO9T4x+cgyhPhs1nD/WRssCadMAL9wQ0AABAASURBVMf/BevlkQZspf5gs3nvE0vUW4w9sMH2T6Ve3JrbedXVvWNj4n6K5MNv1fcvXvu5ED/OkGN6FUbPNZuev6+iEJwBCTu7S7nVyfj78Cx/EdZs+P3dQi/UUmrRfhUYf3DidpT9StlvUAXoZvYdH429G8i/M43RzelND72gX8n8Xy7fMCo/5msokgm+r0yOjwmDTLqPfi9uJFLh9/FvCrw4zhZRrPzVydYX7Et+o0LyrZt04CCl2/L3uvNq8W6W3/72tOMuF7u4Lfrykvm+ESt0S4tPzvb0zF42F3Xx0O/R5JdX0ngF4g+3SWg4hfgDTU1Ca7tWzEDng1RSLYqJ46muUwX7Q78l6usvgn/zm02DzriTpzgP+dL/4HHOSq9HpdoDfjMg4olrqeOQAfZ7rA04PMzgb4BZzqzcFP2XaIC/Wk3QiTIwJfaxpXzrEFndDeLTPcBHomBAgm+Bmkg0NjS46VMDJj/9O8ecd4ZYp0UmZpQVg1ohx97HoZ0yVgFogaQM7/SRK7UHBjuFgKcBx7yISo6KjrKm/Z56pYgsqa+MDiEw25kE2qTUMgyODqRwhEohUZZVoGB9wc/YwnAjwBfwmziDLsSakiCIgwA6Ek6J7oaGxkSiAR8o5ll5vQ5m4rQYUBBNgUzsiFT8AuRkDHTZyZZZ24oguHRWb4aWEuEFyFPy9RKq/Vv0+xfEP8BpO3r12ZbgWXk2ejKZvGAdCiK2SvrqZF7O6KQ97VfFD1HStAs8/XLIf2ys3NlSfBznF6Aj4JyFAqQ52cT+VuJC8uTJ0QS900xQxDb34Opofs2HC5MWQ27lweQFWgvi64rWF4jfcm5EZFavkhyIQhrlDEKmSo7Qe7+19X5rRfKkQ37OlA85lC5c9c9S5DrNDeK8ZOeFhFhl1aQytuW03yFE6BW22cyl7tAZMZrXuDp5YfSZCSBiGZPkiXDGk8nRvPEqOmNPZ76usHw57/9bz8g9nzxB1oVJS7iwk7Qn3QssnOoMs/wET8FGWwUd7fXMdH8If+C0X2UPpOW2EqPJk18/uc6tzVcfWZ7ELbwwOspBoJOycL1QXxtDpzSIglLSmISpJsiCAVmgT/L3OjooJeuFEA/OVFNP+04+ECqw9evlyxrcnpykZTSwffIie6LCfBiwtXrVtN/hDBCC5JcDIhJp9+GMNoKdSKOjcAzLrxTtCyFIgJT3iHnwhWQIsVJhOTDStD/pwp8LP+nBDUqRhBann6jwIU4pzvtcr7L5v9pOKW7K+uI+Cv2eeb64+g0pnkSU8dd1vetvoVnnFaFw1lp4GsxMbeehtCPASXranXdxAe0itVMlJ6C+qv5Nfn6hXdDpOUwlMAt9yaokdX3OrklVKOccQDjH2xiE4dqOhKEYH7lBgmqcpqJTEVuOZ3ybpyNjKj/exuiBRr5QTEPNKUs1REkTDflk/M5qFRYyNWAP4KEFpmE0hB0klXwVXTVOxj0IqpTw3b+QCv8L+lTjVQUd4zFrGIvB2JTTfpU9pJfb5Bmfg+5PaBM0RreJM7DJd+lcRoO/XqCDTyrKFINmd/gbOLkWetc29kXilO5S9fpxDvBPKOJaXHoBM70AfMD8JBxvuA7wK78cCEci7Q3e+yC0UQP/8Orhdi0PacD5S4ucjlJ3ALHO5Kc/mByt+Pp+6/2vT45OYqjkZFbtU6S9ujVKn0jEoEkz2q9srODPaC6Pn1PLwsutPgptis7SLuL3h0PzKyhmkn+1IgiIwRxdKswBmXkfqqKjagF+5a9vbovfRZjCcU0y5UMO99gkxn/Y9yS/HJsBd9+48bAPsbOSv3DmhYMukp8f9NLkWzcqOI/sm3QIWVHQI3T6RDtO14CnmGRCjXsPy4tQisDJ38UlL/ARsB1bEEUq7uPsvk9tZ5UVdKJwwC9Mrq7kckDA0cT5eAXa0ebkO3n0Avof2OZMhKQVuAN9CnE+6xBZ/n4+oD+ZQnAKJ5h5mXH1h5DsT+rrL6OzssHV38IwkohzmJ+tsM2+3GPfbyfUlWqP9LqA+lpycF3OCP0QjqSyvyT/OQbBX1S1XClT1gmG5bJq/+So6qui758lu5acy9Bckl0XL0tB6g74aV8WaVrIB4PA1srK1kp+2P3B1KtcFdnaKgocT1DJ1q6i2wy72MltuSKwu5CAIkXWC5zlTSq9KnqR2t/yZQ26Wq7V1V1r6Xp++bzrH/dFCvGwFYNzudp313ICcHPaXyo+u7bHh2GC36oXdRJ5yqoOnfUql50qXU66U6+T7tx/9fppKHwLHtgefvr6VT6noJ1HvB3tmgTYafNgp2B9wfOjSbqieQSKHLerxqsqel5B6XtlGZ8XWa/SrStQQqVXRS8gzspe+26dNfUm4xTIiScnhmLMXOfCYtjFb1lwLkkvQkgrxY3fLLGbrKa5lz79ZyzSrn/LUt89tuOujVfpVdGLVHRYflXefqN0vyoSnmPPZhjRfjp9enub2eY+1ybH14HZZyXHWHxZ+p8Drn+p/vPjCv4ecGNodSYCuGrtd2dmatI/GoGiEchmd6zJv0WX0YwOBN7+5f2O43C/douWe9TsKdrww2XEs/r792/vhDrOnu0IsZnl+97XqR2ueYeu/djgc8z9n3Befg0PnLkfC/7DxO5cguQfaz8/5u27u1b7EZU6auPko2bPMXGF3NRAX9/4RvUlfKrZ/HjflfIua3Y0YZga6LY+NE8uyEjtV0HoKPN+nH6lhOODy+DTOfPn0AdXP12h/UWgVP85LsHf/UVNS99XBLhTFhoQ7KsFWrhGwI0A/UX36oXRCxee6am7bmSKP+JrQVzdjzBN8TY4OY+aPU7bjvj+1taDZ+ayD4nV0ub7HPGalce8Y4HPB+D/W6uJycl99MBj0Y4ql/0A2ldVNU0HAkdtnHzU7AFExyVlMlMpc9WH1NSP7P+mBdtoF35VUOaPhEH71Y+koXU1NQL7jcCHFvw1jEg0nkzy95IVxI544/TS1IKcmkEjoBHQCGgENAIaAY2ARuDgEdAaNQIaAY2ARkAjoBHQCGgENAIagb0g8KEFf4HF6eampmrvokOI8yLKi1x3Ot3cfNpNOaAjhT0HpF2r0QgcRwS0zRoBjYBGQCOgEdAIaAQ0AhoBjYBGQCOgEdAIfPgI6BqWFYHDDP7W/g/3yloXEpajxckbGqyXBhKJf2tbe3tba/nukdgcNXuOBCjaCI2ARkAjoBHQCGgENAIaAY2ARkAj4ERA72sENAIaAY2ARkAjsDcEDjP4+z//x//8//z0fyrVfsOIxCeWklHDLmhEkzjGIeVM8E8yikM7gWEoVlUVG1vinwnXohDN/Y8WiTwxkXTItMs6dwwImpiIR6Px5AQvghKmGZRDpKUliImYRJSV0kFU24NCkoSqJSeEUijIy4+YpnC9hkmH/IlkPMIPyeYl1NjMikSF6bAVciK2Ji4fRC4nYjLbuXpHI6AR0AhoBDQCh4+AtkAjoBHQCGgENAIaAY2ARkAjoBHQCGgESkTgMIO///n9KtL//t98XpLNuVxmdn6z6VIHosDReNy1mMPabCKRGJ9nVW6JuamBRHpzM93XwD/dqUw+H6zjffQZX28aHInygGk+172Xy03NrVfFBgebN6hMeh1WEAcCrCODNfN9jRDfN18zOPRFhMtR0YPsIXneLyKzj8aa2XiC2wkFpp0I8o6RKZbeR6ZelK+qwcabYE//YM36MOcfnt+w8kEfGYuxccLHab+Vf/R+tUUaAY2ARkAjoBHQCGgENAIaAY2ARkAjoBHQCHz4COgaagQ0AntF4DCDv/9lJyPS//J/NZZUj7Xv1lnN6VrGzCV732xs8vKIC2cymTd837M5U40or4fGDzfnR6fXUGptem5BCOVk1YZULQx3p6ZQJDXQMDCVI86OS00L46kM7a/dGV+ospYcVtEZU9pD4rzf2tbmqoXxAdJJb/vsJrWkC0Hkhu7UmzMd0Wj0zHfzm7ZestIrhB8jo6qpdwQh88xUCpXgRMbIzmHIx+HanUSaNR+lFTJglE4aAY2ARkAjoBHQCGgENAIaAY2ARkAjoBHQCGgENAIaAY1AyQgcavD3f/3Lf+Hpv/uvF0szHDFMZ4GSIqnOgrva39zwhpdrT9e4iTwyzZiKvgu1bvmmAMOgRRyGei/h09sbU4S3TWb8IDh+50pf3/hGde+YWN8BRKTa0zWsaZAv+rC0uDgWq7KjyMjUSSOgEdAIHEEEtEkaAY2ARkAjoBHQCGgENAIaAY2ARkAjoBHQCBRG4DCDv//n//YfkapPvS9spodj7bt1Mz5p/khjo55C+3po2mHqWP9uzdxT0c3son/ccsxitV/0Nq0Pd3cP4HPlyvCCSQ76qa1dy0ylBrobGvvmawb7xTIXgJMtDDc4PuaM5iBJOk8joBHQCGgENAIaAY2ARkAjoBHQCGgENAIHh4DWpBHQCGgENAK7QOAwg7//9//x/X9/9r/dhdFmEVoNgVZq6LhUk4+2mnnmTyRiiL03G7QoQoQvxRuJJ5PR/LvOBAPfqsTwTPVmjRYh7qU3rBmRDgRkF+amcrQsg4oOScXZA0ZKphxuM610nDTf1UZBW3YalTIi0S8eDTYRr/2lpSc8dCMSHxoz1wsG3zq+Ik3PLTSR/ThCkaT1sjgc6qQR0AhoBDQCGgGNgEbgCCKgTdIIaAQ0AhoBjYBGQCOgEdAIaASKQeAwg791P68rxkQFT9PgUPV4X5rFxnrZuHOm6hqFYgeXJiaWlpbGrHev0VK8NYNji4tEbGZz03xqrmO9iFxuam6hpveLWoW6IHIuk0oMrzdD+uLYYPP68K1pwa2iI1duDzJkyZQzOAbjFxepvqPC/unRNBNqe6vnh4dt+9dmx9drBheJt3q+DyCJRXxJTprowGZxrJmlR0WQGnW/xe0n+RC/MZvhwWuZLZqmEThyCGiDNAIaAY2ARkAjoBHQCGgENAIaAY2ARkAjoBH48BHQNdwVAocZ/N2VwVQIwcqBhoaG7oGpTKqb/xLV+iLECWJjIgGWhu6UiGNSEVCJxAvw4KZ4YZpgQOmpgW6wYycgQaGUJ4PCbuFCiIoutUcUkW7zcrj5wuYcqjogatU9kJqCCcI20LHPzQE947QZ+6AnEo0kJpWxdQEKIchDtxn0jkZAI6AR0AhoBDQCGgGNgEZAI6AROCoIaDs0AhoBjYBGQCOgESgOgWMZ/C2marlMPrJZDP+PiieToVUpflRV1pXVCGgENAIagQ8WAV0xjYBGQCOgEdAIaAQ0AhoBjYBGQCOgEVAg8MEGfxX11eQPGgFdOY2ARkAjoBHQCGgENAIaAY2ARkAjoBHQCGgEPnwEdA01AhqBYhHQwd9ikdJ8GgGNgEZAI6AR0AhoBDQCGgGNwNFDQFukEdAIaAQ0AhoBjYBGQCOgREAHf5XQ7D3DiETj8WjEMPYoqlxyVGYY0XhSfOIRD49BupNJH93DdjCHZEs58DwYa4+UliPVjkcKGWGezXn4AAAQAElEQVSMxkfgcCjbcp/X5awE2ZaU9OEqepG6S/I3IxJPxqNFSi4j22HpLWcVeDsFXL+QD2z3fo3eu83R5JL5mYjv2h7tV3tviGIkFMRZ5Vegx2X9STFKNU8wAmiU+IR5Di0li+0wjcq6oa6uhzwNtdTVBw7XDaPyWgtnbqm0jTHqWkRx2jroNkPADrTzUgX0Bkgobxb8cy/9IZqAbibi3vuIXRu5R3t2rVcX1AhoBDQCGgGNwIeKwIca/D0i7XW6ufl0OUwplxyFLW9m5+bmNlhNU/UZP8fp5iYp3c8ZQMEYDhEUDwNGivHkhP1JRgtGyU+r8JTKhzoVHVklJZgaNU1FJKGgnSXJ3g2ztF6WhTaiE05IT5ejHUu1VWqn4TUUZh4QpFJ7RKUOBx8YdOT9SuAj3cJ8/3kt5Qwknj6s8zrQKsqsbe2NMSZesEnH1ldFt/IL/54u/nw8U93UfDoSGJUorG8XHIeldxemqosUwvl0TdHXaMOoe9jfNVTp7az89Pq6luf9/ZQKhZOchm+m+xrw6TbfUuvMKn6/UH0dkg6rfQ9Lr6Pqe98thLPcrzz9BsX+hJ90tTjDjip6qX4llcPdlTunUI1tS11BQBD3HAJnV56TKF15OQ/rXOcF5br5g1VI+Y3KlocQgtTlCo9K6bmceJ9xQ+PwQrAuOxdQpHvab4RPsJ3Xr9mJG+fbZzvPORvC5rR3Pg6H25BCFTaFba9Nv6biXnqeI2CvIgxpYYe0AF53lmscRcNSF/5u3uKP5H7rKR9w3S90XngkFTwsyp6CUjwMAfZ7OPXhcURA26wR0AhoBDQCAQgUFfxtjt/74x/MdOtTU5qD+JtYtUlk1Z3/ZHJaxDzFLcFBt2VaUvTvgSKQy2SmpqZmNyRKzfH0wJQkrxQS7nl6W2slJWrY+vy4+Iy+keQXSVLJV9GLFGuzdYyMDdbMjycSifGN5rFH8UhZxtm2+JJ3pPWavgX7YOF6FeOmJhKj06bkcrWjKa7oH6mdKG1byC2+NZU7oDcQquw5LHyOhV+hvVRJhaeKv1S6Sr6KXqr8YH488mltrlqYs84ii1tFt/IL/5bmb282NguL3AeOw9JbvqqUhnMhvbHO9rbQCT+Xh46I0q328Mzyk+tPlmfC7bfO+UvsF6W0+h5W+x6I3v2CmMstDWdeBBtPvwE/QeQxnF2+/uTJbXYeYUfwIAXQS/IrlRx27mz4PZQu315GymZDoez2K+gNSIjMxjp7boRCYQ/TCZbNQgilke18npI/z+Lak/IjwrvcE2bLOI+AD4VlRRkVXeSWtj13tg0FdrIjc68Sk6Mnk8mTk6sr6tFILreVGE0KNpQTKbe19WB19fGOODrQbdU6jUkx5ptnGJZ+ETmoB4Sq6+/uzosDhYwrU9nPM/VGI6AR0AhoBDQCHzICxQR/f1rFZn79y+ufISVmfvKr680EyMWGjyzi77d+8XedPyPiT2N/1/7vv+ecNnHj8d+joJnG/sT+vPQtWC/eGvr5vyY4Z14m6N5kRJPmH7km6M9yItsg6kQ8Go2LTGRZg56ISVpaoumPSxPxAv8/cvDnpx8akfjERDKZJBHYiUfykT4pP6xCEbDTX85QwDWDtbn/0aKfzvmJvATjHfIhSpEC5HCEvHrlYrjeYvnBLCCAjR5xyBLYO+1Hs+CQcKOaTSTjJvigD8WqqmJjREbLWHTGzlRXrc/dmUboGSmTKSYCKMFBJV9JV7evp5riEJXtrUn3XbkzlUGYPHWlL5GyTIUKjiZq5fDPaFKFg5QOLVDhx9Oicw2O9oVSKZ4YecPANRRj7M3aGvbFjEUIl7YjzEzG6YRBU4mfqHUeoYjcHun5CCIam5elc5NOOzplVHZyAy0LuZWCAv6JJfM0dMpBLrfHi4NF524FH7XOIzADrWRygteaLAMnEuRLceP8gtf7X1EU4VqLal+oQKLZgf0056/LPRMKWZ4EvcfCrzxm24cAR4onGJDlxw10ddrf8zoCF+VuIhrSaUZQe3X0x1jafoKSL+WjS68LaF+5H1L/I/e3vArPXlXzEL+O4FSN8BNN5EvrRefOhPz6CJOk57WQJtmWohfF5fagoxHXU2oCqgE4g5MDTwBFHYrgL8mvUFkUppT0nte2/Ef9fDgjpPOtyh+Muq5UeCfrC/H46bnc6tXkaGJ1a2Vr9S/vudDdbmw7ceFwds7ar4AonAGw+McbyFIlB57wiwP1KzLJ02+cqgiz7O25VytbW+nFF9kTFeacUwW9ZL9SyVmdvIAQ59YqQpaZinDbzouRwNivUVmX/rwndSIbn8lSLfLfirOh99NzryAHaWXLHL+p+fMlnXtK/opQOLt8lc6jrfTjmafhs9dE16eiO4UWsU9B5HYezQ6dn715893AwLsuc15zfUvXcxyK1N8l9IKfruv95tW9CA0MRR72D5BkiIIc608DtvztnvPcgrwwVf+T53Dv0QAqM3XnViLNYv0dZh66Pmk/7/D/pN2foIxN9/eHyPUkI5qUXvehFCcVpWTUWSSaXCp1nFmSPdAFk/zjDSLS6I+PRXFApzvfV9gPOTppBDQCGgGNwIeAgK5DIALFBH+/T6ce/5uQ8tPKj37Y4rOQlkf+wSJ++/JPIrf6/F+zmQmK7TL27fS/sJ9/as8I5gw/6/6bnzyZnuf7jG1tbvC9jR/+nf/6N7iJHRmsme9rbGho6JuvGRwyn2znclNz61WxwcHmjfG+vr70etMlPujB9X0sxix+VsXSiTsiFOaXTRTiJxGW/EemfMqraqrZ4A/Vx1lsbESMk1T8GPQ8Gmtm4wkY0zcOQ01+LocxsrGvb3y9adCkU71g6Dj9x9NZL+JXfatkciJxpV6ZnCA7ZfxsbTbBJxVAuTNfaf+bjc2qGgbcGhsbUbHYUDxCg63c1EAivWn+p7WhoTuVcUhrGlwUwfGkANmRJduFKT48VfJVdJIra1+iy761rc1sflYEUpGfy5j2Ew6DEv9kChxUdJIj8wdVewXVC/b5k6IdwdjUzEZx19AUq55LDNvnkREdkdoDurS+jKHZIc2Tguysau4fGcEDFucCc+AfX8BZQidzx8hg08K4CLKrcFDhRmbI2hfy5X6owIfkS+ural9STN9QKIxEe4Hf4+5XKjyVuAWgsZ/nNezpH6xZH+b9/PC8uOw4bUFjITkpYr/jUtOm48QXRGw9dNV1AZxM5oeqfpX41d913u/xyxGdIGBU1Sunuj7i/JWd1xAVkIrXq7JH1e+plBKesus45EvHAyo5KpzRnwzF0G/T5RqjEbieRwKcAclJpEmU7eGnM09mnFTGVHTGGMV3+gcQMpsOjKyBU5UIh1LGJ6r6quQLevHtq/1KIKbCuaBfefoN9nbt+v3FB3ye6Se14fD7bXPOqYrO1ZfgV4FyIAzee+s8u/tkztQLkizltlanl2dav3mcluSGUyJs2m9GSMESyI98b1Lyb+9kwxcf1lXWV1b+trO9jZ34+BQvq6LzzOI3ua1n10U4e+dF/P79VqTHdK4adV2z58NhQXyxw0Lh1OeX6hF3frt2e3l55j0r6urOeOfQc74txJ7O3G8Vci6THESE70E+27k7M3PX/zSJsVBx4wem+FA/KevnVf1JQb/16FFd91XnBYqXNs6MxIP7Zwh0JqqvdJzGWFWNk9HcV9pv5usfjYBGQCOgEdAIfMgIFBP85fX/9Dqt/BDd+rUd8+VkbBDS/asffjCjwzhWpovdl7f+eeJ7nr88ktj6W3OBiL/5T4l7uAfjdPem45IdAFq7M75QlV+SFuEXtjDcnaK5mKmBhoGpnFlyc2OWx3vXvls3KeofDAIQiXxzpiMajZ75bn7TIZ+xhfE703iovjY9mt6sOc1XLFDxI4hTtTA+QLbQzNBuMse2Z350muZgrk3PLTBTDqN6DYMfpq3dQeytWboiAnLzaVMiJ0hvvmR+r1R+MZP0TV6AtRdgP+wEbrifcTfAmWr/LTakvdlYWBi2g/vO4DsypQny/XjyKcRSdoVe8EraF1RpUgohHMwApcc/GeyU4SCnkxyJPwS0l9IkWQWU7ci9nE6XzTS8NF9UYQ/3W1l96WzMl3buKe3cXN+Y45/v3mTgLVaZ6VvDCP8iKIzQ7/At8+/2ShxUdpI0eftK7VHiQ/Jl9YV8VfsyRtP+zD+GWp0A+GVJagwx7kKv1B6Ss49+BVPlVSC9CtxQRppg/z6e13DQqqbekXg0kplK4aLhNEHVXrgl7sXlx/f40E9XXRe4FokfKv2NF5BvLHz4CXLJek6mrBcyJNdHaheJP8g1CmppeqFWgTPkSPtDocW/3ZRdx8n+EvzKxNkvHF67ADm4vGfujM7zh9l5Jr8/GEblbz9vD7+4H6PQUJ5TRTc51nZm3u9kQyc6drvsg/YrE0n2IfiVpN/Iba1sbaGO9XVd9xCEXTTdK6egg5NS0X5VQA5jsc72tuxywpqxS8IVX5rY67hMW1zbr7PZ+P2vTyaTrdkTKREh5XkKfp4n20j5EZy9eD/LLl6+d/lyO3vx1Jp0r6LLBBegvUQcmbNk3r5FW4ggeG51suLr+63L26yiIsLe02znUCiCK3uuxOUdxJoS2Zmrq1sv557chf2hcCfi1xV89Qwgv7r61WKW5HMbxMbf/wi6fNs0yP8EkHz0COFejOI4F/WTkn5e2Z8E9odconeDEl4S4UM9quR+odRxJqQvKPtnv95yjksl0jVJI6AR0AhoBDQCHxQCRQd/v7332S+vf/Y79uUfxLIPFgqfXv/H+j//OrVsHSt/m+N9jmm/P439XeU/QyBS4s9/ba4a4S1be7pmc8M5lrCCp5zRncVJdI8QG1t8NDGxtDhYszB+xxlX4hyujYFH4RNLQ72X8OntjUnDk84CAfybLjudhST7tadrWNMg/QV2aWlxcSxW5Yo6SwqoSSXphZhS+VHEn8plP27OUwOIgVOMzBs89WvdC2V/ygIHN54u/yxeJ+So/MEtv3iRe+JU2QO6255d1pcbtzE7LZb7MKdRcyLL5aYo/NvUtDDsWgjYrVfwMtijws3k2NsP5Lv17qW+JZhSLr2Qo8LHXa8SbCuGFXrd8g8IN5Vt6GfuXOnrG9+o7h3zL/ugKoVHDiw9OuULefjpRonXEZVGkiOuCtY2GTV8zG827IeRuUxAvdxNQGJq93TdKax3dziTZZ4vVFVJruOw312pXfqVT45Hve/wXOONEAuHLy9/fvlGKHTjcqf4GzhT0Rl9VraeJSZHL868b7tI0/2IVOLX0H7FEfsw/Mrfb/DKsfqW/tn2EzP3v/EEYVX0Uv1KJceobPkyvHPXijgLY0raIricmJx8wGPHL+eWn4YoQlqShILMiPNeHR29MDp68fE2C+XZVfQ8xx72DIOWuZhtb//y4tkvw2HPsgzFC/6k4gQxh9vfDQxs3+xBH8JY6GwFE/TsjmONZOLb1XdhOJGY26hpYuvDDd0pcb9Tq+jnDUV/+d2pAQAAEABJREFUUuu9z9qVJaUXgl7p+AR0dz9fQLSPf5fXhQJqdLZGQCNwLBHQRmsENAJeBIoO/oqCGy/+9YfKqmpxwH7W/Zs/RiVzgc1s509159/W/9ma9svYpx2/+OGlOdt34/E//9Debb1HzlkI++6w6Pp3NE0RZHnC8LpqYbixL5FI9DU0dOenA8vZWe0XvU3rw93dA/hcuTK8IGfDY2gzI4DfbafJr/pZ+26dLQw3OD4FTVWJKkkvhJTKjyL+VEb7/cIPnJJvX5Xq6TnnpHNmRCIRwxDMbjwL+Kco4t8G4OmW7y+6L5Si7dllfQOMNozoyGDT5sJmU69jDRbGpDgE2OlQUbh9HczeXbfeMtf3A/arfcXN20jyY1e719auZaZSA90NtBzNYH/UOn/lRRmDH/bH2Lz4FwnLf6T0gOtCviStb+44ku3iyceA46KAXdl1Yff1Ku58kVlGtKL0loozCfZ9A67j5fIrtxyfBW5CbnWS/hL+5Mn1J8t3d3buLj8Wf9VX0Q2jkv4kLoRs72R3GxTTfmWfp8fdr6T9BhyEIrPh9/GvZZFfH30XfqWSD9W00ES2qGm/YD6URPW1FsnlBrz/y1v6VdEpT/ktIeOTSxfbEGjOzlwYnbz4zczTEoq6WF9u8wW/szMnk/yvQHx7dZXmOoAvHKrAdu8pk5mifw829Yo11iBQ1c8H9Ccl9YdQUZakshPCS7XHzV/mcRrs0UkjoBHQCGgENAIfDAJFBH+rO/8pftGscPX5v/5oS6zV2xy/948f/YfPnKtAIDTMrDAuwrvsz99ayys2d7az/Gq/jH2/9UP938TMIPLFhvqt//S9qcH5szY7jyAQxjSGEelAoHZhzj8Py8WPoGpT70g/fZLxeDQScebSY++JCedcKhp8sNMRA+KjXzwabHJys5rTHbUg0IBp0wwCqPhNO6OkjmQloYX2UdydrEEJoj7WWM2IRJPWSwkEs99OQXdsTTnBev1ygvkd8lkkYgY3nUTsm/RA+8HmTzSXq/pMxCCxkXgyKbCKxCeWJvLt637c77ffJ9bEAXSp/AA6k7Uv+JEkeqm+g5bN0ZGhsaEvyDdMPFEroyj/hHB5Ivnm2N1w+IMpX2BFGXm/UtVXLt9HNdvRRzcJwfbI60tLssBGz3lUkp04d6j4wvAV/vYSATJMUuKgsBNFVO1bpD0CH1OvvL5ciWxj1D3s76cXw3QVeuEbI/uPt19J8dwdbg4sy3xeG5H40NhI1KDOB1o86wFJ24u6/YXxVMa8UUcpkaR01XWBF5FcRzjdtRH+5iJ5Dqpi/eJ61MHXIeYPQYPr5RFAh+Rvkn6GshiT9HsMT11K0FuyPZDPJHoJT9l1fC1wPCC3n7k+Amcu51JUnNf93n/8SP2B/hK+tfXyLZ+sxzdCrpx+rnHW+gs8hdh2djKCO3CLU8mTTziUMj7xFMehqC92lEn7FWPcH+i8wAXIP84si19J+w2jsoVWe3hiPkuw20hFZ4F+5bdTKYdrioRCT1+bC01wgrnxyzEzfD+Q/3ygf6jSQDQ2hoBpcX5evHyqb0/nNVt+9rV46KKk+yzcHcEM2rKK+sq6337e3qaWUl9ZWV9pXlacXCb91WsKHIcvEkSVdQ+7uh52teCx0Ms1vtRD+Oy1yspY415f+Aa9uUwqkWaxIet5uaKfV/Un3P+V/SHk+xM6K8Rb0YMiyx7PY9+TCvQ/Kjupny/BHm6/6vwtw7jUUyl9qBHQCGgENAIagWONQBHBX4R0P+r7o1ifd+jn/5rg6/NWd/5tPWP1Fv0P927R1N3v07+b+cmv7hHzryr/5XfWG+E+vX7DOe0XgG08/vvfb/1iiHP+oY/9/jdpK0yMTDvRmGZ4vXlscXFxbLB53V4D1Gbw7mBIYpOqq3vHxpyhXuRUVVVhm0/To2kmxPdWzw8PL9T08qAeZ6iKDY4tLS2NNa+nE9byEQp+007OD1N72bi5gqpjslQuNzVnycf+LV4vyF8c62Ub+ZeJcdWsqsptp0oOxnyQ49crpODO3S1HaSfn50OowaWJCVg11N8hBnbIcdIR9QS9oP0oBZ65Bdbc34F9JFrVoWYQLQnhY81sbpqiF6Y9oIr2vWLhjAI8FYkDeKXyA+jARtK+KMCTRy/qcqtvmNF/xpeoveb7uvk767z2W2vUchnmBmWdOJhUWh8N/mDiAx6pP5jyZe2rqq8t37/jb0cPDx+K0/1DAXvs9rLruzY7vl4zSKcpzqO+PpxU1iLWSjurYhADZxBJnKe1Hf3NLN13a5r/zxeePYYnAzBShYPKThRRta/SHjMEYPq/6efi/IKhwj/t+nIFYgMb/O0bKu6FLSh73P1KiqfZXoG4CfTMraJ/Q65UfgBd2u5kT5r8E33bInof32IOnvZCDKi1uWphzlxyGupEUtGZ4rrAS8muIzyj4PnIufiG8Nms4f3P2GCNfT0qWC9eOL8hf6Ozil6wSf3YRjHXnRL0FmMPbJhzXBeEcZ7+lpZ4FRnYOq7jJJ/bj4usdDzglYPiivN6fIFfjYBCzab/bwUef+BiStjkVifj78Oz/EVYs+H3BV+opRSt/YovukLtHnj+AsCj7FfKfgN2s9CNnpvvBgZ4yr8zjcnoBf1K5v9y+QjXfnyC1Eu/MjkSxtzWs+sz79t7bm7f7EmF38e/KfDiOFtEsfJXJ1tfsC9t+fxtbBACHKR0ZJUnvVqk97CFz8/2tN8IMf5KtvCXl04J4VbolhZzmO3pmb1sLuriod9rPPcJexWbQZyXmmC7p70tfILtrK3kcsDtNgkNp3qAG5fq/nPALvqfTKp7eD02NkLjbZwL0vGk6jqF8yu4P+Qmujaq6zKY1ih06xpHgehMxYwzS7IH9iek14W10selTkP1/geHgK6QRkAjoBHQCACBIoK/7Pv0P1z/7JciWVHajcd/b1IE/frIt5DGWJ5ucYL87b3PfslDxti3ExHdZe0sx05maqC7gX9oFYf8PCyMdUQAzsHL+N9FxwesT8J+Uxtnyk0NQJDzj7SIMdE/gUFt6B5ITUGVQ+bCcGOjmWPN/wrgz9vJ15vIiJsWaIREvg8TnPJhjFkvUu2aGIQs6HXZqZYj1QtdSH45IAbxA1Mo7ia7ALaoAopgaAVSYyKBTHtZMQgHkSgO+4nTU9+BKUhAwnjUakgOkIVJ3h6otIjgR4IKyC8SB5V8FZ0xSftCKZJfLxGdhvLIL4hITvKUZb8KBxUdcqDUjyfoefkctnyjOAqgBWzVKIIcu5lwaCfS3tDgbEe4FeAlOm81Z0HsF7DH0V44L+DbDfTBeZSBH0Ge0CvFH8KJ1/GFGeCnyqIkh1EUxBHoSJRl8UNzHgdLMcHjaBdV+wqxpiQI4rogH4lwaHDhA2Jer4OZOGGZVRYmIBPMIpX0wpacU4HDfifZblyVXhUd9gDqAu1IwE3l8XQU8PgVpPmTCk+p/f7iggKdTo8lPC0oVPJVdFW7wycbGhoSCXTp5KJCr9hK2gsXEma9PEcwia2CDv8v6ToihFGrNXj9TWR5toRPQzfvmBvQXM75yKp6gQ4P9cjBIURJ/UFkQbo4E3GIBGaoK1UvhHhwpprCGtX5gm6ogd6RCo0iAWZ6garsOh7gV9xalxwhjbQ3eHGGjzXwD4cVlc4PLST+IAQxhrBNYnQ0sZVnFjl++oPJUXpn1P2vT45O+vlFKc+WIvzVrVH6RPCEFbnarwCCSPBnNFdZ/MpyqwHn+HB//QoOLetPEAS8wJcCsJYFmBQzW1V0QBHgV37/D5DDPTZpL0EAyXbyy8lnrU6enFy1D7GzsjppVmHUNB5EOyFK6+FHVmnyn8nlryjoETp9oh2na6ComGRCNPoMMVmbn8CZHLUaJXlhNIn9C8/o1XzgEUUq7t9vvX8f9JNWWUEnCm/TC5OrkAkETHyIOHrVEoJ2tDn5Th69gP4H2p2JkLQG2KBP4f7GOkSWv58P6E+mrNG5vz+EZH9SX3+Zv7+FYdTD4hzmVwHYZl/use+3E+pKtUd6/qK+lhy66Av9EI4UYD9yddIIaAQ0AhoBjcAHjEAxwd9jU/01vuxDMk4DwHhyYki2aOOxqcwRMzSXcUWoj5h12pxiEdDtyBgLAEvjEwDOcc/KWI/xgitCt6/8NtXDpqJ72Eo6LIu/FVmvkgwrhlmlV0UvRiZ49uM6XhacYVvxCSGkFV+YOLD4Jqtp7qVP/5lAvmIyy1LfPbZjMXZKeVR6VXSpED/xsPyqvP1G6X7lR+LDpNDCynT69PY2s819rmJua2tlywwH77OqYym+LP3Psay5NlojoBHQCGgEjiwC2jCOwAcV/MVj5L6+8Y3qS/hUs/nxvivOSVK8vsVtcJew34PH4gzRXPuCgG7ffYH1yAjV7XtkmuJADTlq7X7U7DnQxti9srJdx3dvwiGUnBrotj40Ty7IAu1XQego836cfqWE44PL4NM58+fQB1c/XaHyIaAlaQQ0AhoBjYBG4MeKwAcV/EUjZjJTKfN/famp4uZ5oZQn8UFkoRswTxl9eHwQ0O17fNpqN5bq9t0Nase/zFFr96NmzzFq4bJcxwvU99hma7/addNpv9o1dLqgRkAjoBHQCGgENAIaAY3AcUfgQwv+lrc9jEg0nkzGI5L3+ZZXkZBmROLJeFTs7/eWV41eeL7fioLlG9wOQBzMtrtckh0PrGPRcvfVTpUVUAqHiBgH5H4qM2y6QWdDkj7xiE3c3Q6qRsL2LMfWjrbGubN/WEnlG5VDXf38VT0DD+sCm6ns9bUrHrADpR+G/wD8g+yHAyAtKcswrnWJNzn1P2ypPCpncUlV0MwaAY2ARkAjoBHQCGgENAIagQ8IAV0VjcCPF4EfS/AX4QNEAUtv59PNTU3Ve1+Br0jFZ6qbmk9HAqNIRUoqyFbb2htjLGO9hKcg//4x7CfEp5ubTxdvOWLvE4hDc/x54IwO7OKnS3EFEjUhPsldOZ5QC4cozfukfm4Y0aSwRWypWrsKRb2ZnZub22A1xZ8SUntE3UrCUxQJ3J6usdraVd1dV9arLC9f5BiVQ5/33AiHstmZ1iS9OydHjW6p0/4jUHJtS/cfq3i5ncWSq/o1Kuse9vc/R+pqqecdguDM01vqnPT6uhZiBr+Dnss9mEyevD/zdCfUdr5nuUXHfwWIeqsR0AhoBI4EAtoIjYBGQCOgEdAIaAQ0Aj8iBIoK/jbH7/3xD2a69amJjoP4m1i1SWTVnf9kclrEPMUt4dPrlszrzVbp/ftFrLO3tbZU+fSmjoaGgalcqQV3yf9m42CWGkZkqrW5amFuepd2lq9YzoK4fCL3IqmmqinW32FJqMm/M7okOxF8HIux+QT/zLPBsZGoI35kSd+XX6mf53JTt2DL+DyrWh/Hzuid3QX9c5nM1NTU7EYJlkvtQfmS8AR/qUlUNJFAnZvHHn2xHw9UzjXeCDG28+L65OqKZZ72HwsJ2e8u/EeIsTqJfeqHhZL81jDq0gAVA4cAABAASURBVD3t4ezy9SdPbrPzs53nRJ5hVP72sqAvZ8Pt9y6dsuh1t9rDM8tPrj9Zngm33zLZRSbbWr365EWWsfD5y7+tPKh+wNStfzQCGgGNgEZAI6AR0AhoBDQCGgGNgEZAI8BYMcHfn1axmV//8vpnSImZn/xKxGovNnxkEX+/9Yu/6/wZofnT2N+1//vvOadN3Hj89yhoprE/sT8vfcsoRvwrdlcQf89u/I+iOInY45cm3y3xz0TSjrgZ0eRQrKoqNsYzliYkfzaXqI3EJyYmqAQE2dlS+TSv0pKJuKrzH8pSfluaZKeqeejRIrTaU1AFj0pOBLrBTQkVzv8Zn1aQ4MYvEdkQQvLbjv4YS486Yr9SOcDNNoNmjxJyJAp0iE0mBTzEkpcs21Pxw0hATCnpXewCRYT5UFTMzFmIssxBhclIy5Dmfo7n0oSHbuW7fzc3N5sGvbFaCCcj8S3OztrTNWxhLpXhn9RAY9/olDXDWlUvqFDYz053fJEkLFw4c35qdSc+EK7yc8Td1t7wqq6tZay1sKPJpWQ8DuEQLX7EKQPhQIvaF1VGXsSJJxdS3EZlD5dPotEkTkkqe8CDIrCTKowyDnvs8+JRv/cREkd/6s6tRJrlA/oF5RCejgidSr5hXDsbhl3Z7NpL/NhJ+w+gAMhl8R+IQtrvftiw5/jWWX5+qiLMsrfnXq1sbaUXX2RPVFiTfCvOhnZm1kBfHcnuhEMVMA8pl1u9mhxNrG6tbK3+5T0I3vR27jaivyzUXsvDxYYR9XLoY42ARkAjoBHQCGgENAIagYNFQGvTCGgENAI/KgSKCf5+n049/jeByk8rP/phi89OXR75B4v47cs/idzq83/NZiYQ28Xht9P/wn7+qT0jGBTGftb9Nz95Mj2PfchZeUk72JdxgryLhGDTWPPGeF9jQ0ND33zNoDXjLzc1kEhvbqb7QEfqTmWKEb42m0gk+oYX8rwq+dOj84gvicAZcVszRlX8xKP+ro/34TPOYmMjHYJLJQdBhP7BmvVhXt/h+Q3BzRjoI2MxNk71JRyGvDMfOy41bc7P2tM/wS+Vwxiryk9+xZGV3mxsImNjPNHY2AgFsaF4xIqbWCyuXxU/h3h8nlW5uLn9gzXzdjv67HezMwSbHo01s/EEcOsbR8M7orcQzfHsG1/3R3U9cuhwPjG80NT7hXuSeIl2rs3OI4SM+Fc8isC1gcArSWbKegXZz5pivdXk0315H0N7Sdt3F37e1MxGER1tilXPJYbXmy6ZHoeGb6pB++IM4I6Y921WwkdpjwJPiJbao6ovcBuKwU+o2dGZoKkhISAp5UST0n4jSP6pj09AEyKBb/HjSNp/BBhVZfAfIYk7y/72w6FQGEmoo+3btev3Fx/wBzaf1IbD77dX+D6CvCMv2I2ezx929c+eZ3cXXxGz9a1v6XreP5A6kZ12kUV2ZmcHO2ERLs7lpnCgk0ZAI3B0ENCWaAQ0AhoBjYBGQCOgEdAIaAQ+bASKCf5yBMQqDdGtX9sxX07GBiHdv/rhBzM6jGNluth9eeufJ76n/O+3fqj/xDtVjzL29EWwqaE79eZMRzQaPfPd/GZVfr3UM9UFQ0Ne1YjZZTKuMLFSPo/2WYEzqFr/bo2kKfkpU/HdnB+dXoPe6VsIQl4SQTe1HIqqNvWOxKORzFQqNWVZi+DuwvAAP1y7g9hes3PFC4S0epsWxu9wE00rFHJANhl8P7DzzjSFj9e+W/dlSggy/hyHWExIdRUh+8dTfILq2p3xBUc7utisg1paw2Ic9QVuwKGbFuqw/iEOvRzPtem5BVZz2h3UtQS4fqdHnVNFKatUO3OZ1JVGRKE3qnt7xxYXJ+z5wop6BdnPFoav3KKWXfuOTBFfkiNvXzifYClya/rBZhpe5y6CnGnguQY4NovCzV3cPJLao8STMWglv/TYo6ovpC/AT2Bm5s7oPH8oZeplTYMIvieTyUeP8BgEteN0hRz7/PL2GwHyK86GuEj/BoDhUZAdRQeDsr5kD+wnX3X6ufYfgGYn3klYPRunKttrV/0wTdtNnkwmT06uUkNAQy63tbK1hZ36uq577iBvRNXq4F7bmXm/kw2d6HAv+4CcXG5l+z1+ddIIaAQ0AhoBjYBGQCOgEdAIaAQ0AhqBo4HAj8yKooO/39777JfXP/sd+/IPYtkHC6dPr/9j/Z9/nVq2jpW/zfE+c9ovWDYe335SecNcHfj//4uPQCpDMgxaBGGo9xI+vb2xksO9hUxQyUdwZ3Z+05w2iYDO5oYIaKr4C+kR+Yi8mkE3lRzovXOlr28cQcaxJfq/urnsQ+3pGgS/6D/yS0uLi2OxKlf0FKFGls4vRABlKjnIOpQE+y0IhX4TB3Eg3br5pSzFEhF6G19oGhxpLVggwE5Aimj8QHd3Y+Pwes1gMmpAWgC/2v6mwcVFNO7i4mCN1WqQE9C+UPSBJVV9QVfitjCcSMxt1DSx9WE8EMrwmZvgl+JmKPqN2tM1SvlqiLX/qLEpT46haC+cdGXsh+tb+mfbT8zc/yaxZQaFjbqu1Ils69ffXJ0crZh5397Tec2xQsjK1rPE5OjFmfdtFy9Zy0SUp75aikZAI6AR0AhoBDQC+4uAlq4R0AhoBDQCGoEPHYGig78CiI0X//pDZZW1mMPPun/zx6hkLrDgdW2rO/+2/s/mtF+e8W8Tv6FoMgLKvxz7E9vatNcs4Lm729R+0du0PtzdPYDPlSvOBRt2J89bKkC+mHMWNQzEfhfGzRdqBfB7RUuOz9iTlQPk1NauZaZSA90NtPzCYD8MgKS179bZwnCD42O/s84wov0xNj9L0yvBaSepHDv34Hdc4WpmzqQOMMPNH8BYIEvImR5NbzY1FzMzXfBbQk078QhCRHtBz+Wm5tbzU46l/GBz00Gw08Iwra0xvuCY1xrQvnax8u3k/bB8MkuTFFBfNW4sk5miWe9NvfaaJCo5AeeXUv72a/off+isueyrVSHBr/3HwgO/5fefgPYqVz9Mkd/w+/jX+cgvavJJxYlsdk0sAcFevc6yEx+ba/hW5qO92zvZUMh8CocyPBlGfQWtEpLd2ebHenOUEdC2aQQ0AhoBjYBGQCOgEdAIaAQ0AhqBDw6BIoK/1Z3/FL9oVrz6/F9/ZAZqm+P3/vGj//CZcxUIhIZZe/ennPfTjl+wP39rhXSbO9uZWO2XZzo2P439j44ZwY6MXexScIedjhiGEYl+8WiwySHizQYtAoEs0CLxZDLquT0HuXAKkM9E1GFkhOZnWi9SC+JnjKavTUzYUUImPlWx/g5am6AWUeRNM0irkmNE4kNj+fVt88svTM8tWDEvQJFMIvxlCPEUN1kw/2kuKNgq5SCP0dIZEOLBk3IUX3m9FMweciRCdq7R/D2K2aEhOxDQX5ib4jM3BbNfvsnP2xRFeOxV2r5mcFYlR9CxzWVS4wtVVeqp48F2vtlgTb3mOsuAji+wTNF2084IOaizXiZdbX8uM0XvLWtuRVGYx9TtWxY/JxWIVws/BP6bph9yumsjcBAkf7uAXqQ9Tjko5U2K+nLcLkUBihHp6JfM9M9lUok0i9lrRv+/7P3xaxtX9v+P3/n+B04DdfZdWzVKWIvmh643re0gkfzi4hKrJAsKjRpEHX8pLiEqS2Xo4hfa1rzNe8FalsqUhoKrIhK1xLAOK4eXqX+psYidrTfpD16kpTFZy9mNAmn8J+jzPPfOSCNpriI5tmMnR1yNZs6ce+65j3tmnBxd3dHZwZclTveNevYfqid7vXWk5jf+cB7tcvx0bEf8AGZt0d0PSVONWVP34ZoHvhmtJ2m1hxvX1bK/ZFa+7zx67HZ3vtdK96jfvHbkLfH4X2rF59d65y+Ys31pjeDNzazUL29ePu2m9SLWHin98gneYwJMgAkwASbABJgAE2ACTIAJMIGdIMA2Kwg0kPxFSvfQ4HdqiYax13+MXl6EhfbTv+sSosuSf3N5hHK+91Nfzv3qg8uk/EHr3760ngh3fPhi5bRfGKBZw2Tzf964/X9/rxYChvQpy+xUSvgSS0tLiVD74vh4xhWyntxFS2q6RnFqeXk54RMLs5SMa7o1vX3zF8deVypqTvsl43p9OitEdX6RJsltuEIJchJZ5JIpjR3kmKIp1+jS0vT08hJ6ZS0LUCymR8bXAQJ2gELkzWe7ITFKq+MuWMlp5YQQOjvIaCfXyT6MtC8ODgKuffFgWR1tLWSEb2hAHpmb6n6ZYvqo1ZfpmtFl9AFDI/N05I/0HwM56lsfH6l2uMq+qT9K3FAlJJLmCrbEkxrFW7ZbjgdIUKrsQFIqQG6ba0vixv3MTUaV+yb/VFStX2z6iShcStj7Zcpr/admrTeap6Vk6YsB9MVxfKHqGOcG8rLLiBCkR+UiEtPlLwNQpVRkatTMWSM2g9KfhG89VYpDqQpHNrzmeI0NDSD1KsW0qeXp6A+pCgTXYslOQo67kpe2JX90/QW3ZEZe1QhQ14ZQ025L9eVONh4YXw8mJig+dXYEBtvpvlHHfrF4dWllDS24uz9rNSgbiH17gUmOH8T/U8aPHWl5H3CdxgsKW7sPt1Q98A2GRMvF8x//EonIckYt71Bcnelba/lIyue7xRdXzOww5OHH7vmPSX/e/fiLGwvm7GCyIwyj68Spi8j9bq5MrNq+xJInecMEmAATYAJMgAnsAgFuggkwASbABJjAi06ggeSvuJ/6w/C776vyaUpN5s1f/70pUfLhiZsSZVluaUJM6wXLlDH2rVJa9mHbMr9IYiJbEwnI1Q4CkXg6HQkE4uYcLOR9zDM4HYik6/4nHElSv99h6igyC7TCAiz0VNtHt5Bm6pHLi2Jflfr6xXQEluCKUsZWSgIB1QObqTp2ZKM90Wgvmo5YnVWmTDPkqglBqOV+q1OpUBeOdtAuGMJJZRw6iicwE1mLIXRAlKzIt+wFPXNNHtHmCfqw29PTG4324IUGpNksjOIQBaalhAzJd619iMv65Gs6K6uQpmUQOjCJI+yoQmd7KvwkRyJp8ywdQN1c7hNC6kVPQ37auPWQO7ZxKftZ2a+ynCpY/pOLCBDyATbj9CQ7cyhxxmF86RJAL9GoLFYTFPxSYG6oW2QTAUjW0VMpgU0ZdHRKCFpugvQR6fLJeyCgiuLQI8MULSjUOEXVK3mSEFLLUUSi/bpTduzjXscfmxlyCJZVKfVWXjbUG8ihjHHFjiowWzrEKcudsh1ia94dIKy4bzjaV2YfLgyvbApKEl5InTza1WoYAFluiA4Iq1LGtra/EJbHHShl0EIIf0rtUji8qPGzS/fh1XOxWOUD3wo/vKlE5namNAX49g8z5qmpmdJawBiyqzNTB/98pe/Kn1+yyQ2jq/Xo2OkL88co9Yuc8B1ocnnWBLh9JsAEmAATYAJMgAkwASbABJjAC0egkeTvCwcFSdLQaGI6FvaHYyHvhvn4tj2MIVuZntN5Suknykep7J6DVoN2HGrLNc6PAAAQAElEQVQ+taiYNdOaT22pEQNb19kvfm69h7tbc//yLBZvL3zdd2XuizXhdnePVC3+q6O4f/ur69EOyjv79tF9uFgs3C5U3Vo9vd39B8Ta2kr4ytd/LFjJ/R0kxqaZABNgAkyACTABJsAEmAATqCHAAibABDj56xADSJKeHRxM5ttPtIvFcfM3+w56LGICzyWB3L31qjULnstuPnWnkP8trEZnpt6cmjrHv+gv49ym+Nnv9+Fi8aqMjTdnfrjKmd9yePAeE2ACTOCZEuDGmQATYAJMgAkwASbwAhLg5K/zoBez2XQ8glc8vT9mpDp3g6VMoHkCtEyEbRWC5g1wjReawDbGz47eh1/oQeLOMwEmwASYABNgAkyACTABJsAEmMALQ+BFT/7WH2jD4w/HYmGPwwOd6lfc2lnDE46F/Vur22wt2TW/x+lZVc2aehp9WtZTIn4aI7q61Mfw9vRxR/3U+i8D4pmPUck9g66GGL3CDitil9TsO9vCbQvt2n1oah8xg2uwirnROnZm6Bf59K9vj9a9ZLalv005DGU0ihtHlc+QP6uy5fECfHkz2KX77XbxMYz3zqgnww19e7J1nzm/XRDYDhNgAkyACTABJsAE9gcB9pIJMAEm8EISeFGSv0grIAvY/BB3+Lze9sPN19tajcPtXl+Hp252aWuGa2t19oWCQmT3wDKUO4m4w+frqO27ToLc+zSl+il9IxNqdFBS7mgmFMjUtHrFthR4qlkERHPR5xjnhuGPKV/UlrpFfVRtNLG9O7+wsJAXrqYuiaa4OTujabeiW1vuVHWTHa7KmDFaxy6cv+huWVub64vFaHkHGlyrOY6Tan441owXzjypbEOwPKmJivNdR0/+fWiIysmjXbYbr4FRP0NyZHPtFYzWk98q/TNlfVreIfbSlbnvN1veOnb+1knO/9qR8T4T2MsE2DcmwASYABNgAkyACTABJvBiEGgo+esLX/7uG7OMHDfB2ISfBttNoWg//RdT01F4uVTdWdMys+2fyHWG+jqbNVvMxgM9PZF01WN8mjXTsP7d/O4stYqMVZ+vLbMw27BnO6VYtBDvVAPN2XW1eYNDA1Ydl8vaE035iaRkIigWo/K1KEYTE35bXqlkcyd2HOO8WEyPwJfkomhbT2JnanJrSX/6DX46PZ9vwvGmuOns1mlXdSgaRd98iWuXtvjFia5hKX+t92KLEJsrwzOrt6UAG44TQNCWOuOlrSNPWDeDXbrfGsbRkX733K0bwzduzbn7R16TTshN8PT5/s1bkAv3+W+Pmt+UIPN767xbkP6Nz0X//GlbBSEKq+durKwJ4T526rPW3brepbO8YQJMgAkwASbABJgAE2ACTIAJMIEGCbygao0kf19pE3OfvD/8Lkp07lcfDPuIVXfPIUv4VeGdD0+/SsJXgh/2//crqVkWdo+Mvf5jVArL1R01ycRTvmlS3rJ8TcdKGTck48aCbW3BhDyxPN3Yj9Y94enpaaoBQyWvHO3TvErLJvKq9l8uO+qXrDnstPnGri2h1dIUVKWjs+NB29Cmgg6Xf4xPCwZI55dJbCYvlCnaDgwFRWrKlvt1tANuJTdo9iiRI1OQw2wspvCQCtnUv3X6cBKIqcSqF7tAFeU+Gmpk5ixMWe6gw+Sk5Y5vSPJcnq6SW+crPzc2Nryj1blaGCcn8W7Mz84Ol8gsxLPyFY/0Dk6lrRnWun6hCY3/omPgUoxYVHCW+jTqdj4wrotz5ONyd2VXc7ls1kyu+WPLsXAYxmFafahLBsZBi8YXXcY5j52nNNLYRtohE0Bvr7G97UrK6cmRaEqUE/doGv0iQGjb5r/2OqL+k/q1IXl7s9w1jPeOuHGwtpa7g49S4TgBCkDeljiBKZSdvt8aR0tzds14LhZXz8WmoquF24XVfz2GC2ZBUnjAvfb5wj8hn328+dYRK8l7sMW9dusc6RdS1+e+dx95rzLJ+3Dhc2R/RUt/58umKf5gAkyACTABJsAE9jABdo0JMAEmwASYwItCoJHk7/1U/Pq/FZBXWg89KMjZqbcm/mAJb975hzrbfuwNMTd9Ux7cnP2beP24OSO4sJGXwvyD/8pPodVUp7e4NfyxhC+fHOzt6ekZXHSNWjMBi+lINLWxkRqEHCUQb+gZbrn5aDQ6OJ4pO6OzPzu1iLyTSpyRtjVjVKdPOvr3enIQr6QIJiYGlJbOjmH4h0Zd6+Oyv+OLijGqQD6RCIok9Zc4jFXPiBw44d1YnC9N/4S+ox2YaitPfsWRVe7mN3Ain4z29vaigeBY2JZfs5Rsnzp9iTi5KNpsutiFPxOjrsXSONb4Dx17QRLqWsInklFwG0xi4G3ZW5iWPAeT67VZXbsRc38xOp7xhi5VThJv0s/c/CJSyMiLhf1IXBtIvCrjun7V8194g6F2iunBcoyRHafx3UKce31iCllTb7B9ITq+7j1hRpwQbV4XxhdXgAzEcmyrnjS41XBD7R1tV8dHex15wmNBxBuFzyK6Dv9K5eVfH8D+5lzuIT5sheNEwdiWOJGmZLDs7P22pcWNIlsrb7pOnvn7UCR+YG32n5bw5YPuzU38kTBaT350QKwdOGiuCPFoc83d/e3R1q7W1s9O978lDvy6Osmb3dyEEXfLQWwFrmv64Pf+IMBeMgEmwASYABNgAkyACTABJsAEnlsCjSR/ZeePD9PKD/7CJ6WcrxRj82rg7d8+eGBmh3FcXW5NRAu/M9eCePs/0ctIr1SrbNMxkl89gfjdwwN+v//wvcWNtvJ6qYfbkQVsrhnk7LJZZADKtbT2ZbbPSpyhqfV7Oaql1aeTmvfG4tRsDu3OjiAJeUIl3fR2KKvqDU2E/Z5sOh5PW94iuZsZj8jD3CRyez77ihdISYS8meSkdNH0QmMHYlOh5gN+Ts5S+jh3b73mpIPASb8oEasJqRVVyP9kXE5QzU0mM7ZxrFCzDjppDYsk+gtu4BCghTrMya0C7UqeudmFjHB1VCZ1LQOlT9qZnbJPISVJs34Ws/GzvchC59tDocTS0nRpvrCmX/X8F5nxsyM0srl75Ip6kx3n8UXwKZUGt2YcbKQQdZVVcGYWPHPAsdEQt8rqdKTlJgSsU/w9fbveUSTZY7HYtWtIh6MX1K7Q8NFeR6CWQbyhu9nJqUX55Za0g83BIy3YOhWAwVc+pWw5VLT9JX9gn2LSHs8cJ4BWKvJmYN3BpFQ7Xlu639I039hLsdhLM6s0ELIFucltzj3eXGs5MGBN8JVSbF5LnWr5/AbN5cUBSrHwQ/eVNdF96vKpU/1i5XvK80JcLsXi7UePy4e4rssHvMcEmAATYAJMgAkwASbABJjAHiPA7jCBF4dAw8nfm5fffX/43S/FR9+oZR8sRMeH/9T10yfxW9Zx7ecrwQ9b/4q6KNGf3jAXiKhV2waJYdAiCGOhE3iFQsGm071PckFnH0mf+cUNc9okEj0beZXQ1Ok/qR11HplXM+mms4N2J88ODiaRZEwsy9//q5qdHS7hHaUfsS8vLy0lgm0V2VNKSaTKCxGgis4OTj2TAv8thKp9k4M6cNxW6juqNCpESi6Z8Y5O9D2xQh0/gRTZ+Egg0Ns7vu4ajfkNWKujr/ffO7q0hMFdWhp1WaMGO3XGFw29QCUzHo0u5F1esT6OL36ycnkNHR9Dc3/o7HDp+WtZcpxo0WzTCUMzXri4tvF+e7vwQ3Rmqnvu8VvdJ8wZvuR/y8iF7p9vXE/RfvmN/O+5qak3p6a6rz8Suq8Fyuq8xwSYABNgAvuGADvKBJgAE2ACTIAJMIHnmEDDyV/FIL/y44PWtnZ1IF4NfPqd32EusHlafRwfeOfBHXO2b/76Xx/0B6xHxqnz27jtvBTyro8HAhG8zp61L9iwPY3Usa/movkNA7nfTNJ8oFYd/QYcOlyarFzHTmdnLpuORwI9tPzC6BAcgOXcvXWRGe+xvUrPrDMM/1BQLM7TtEtoloqjndLZ3d+pSFcLcyZ1HTcq9esoPuGUsjM7ldrw+ioWf9XUU/rWSdNPfAWhsr2QF4vphfXylGNHfahVyiEolcw4ra2RzNjmo9YZ31K17dspx+H22WzEUqPtZrNpmt3uDZXWHtHxqXMdafk/+pnmd7Yckb/jL7ut9DlOykREo+Nlq/KE3TrjtS33W8NoLWd7H22utbSoRdPJrRa3uPV1tFAUB1vcjx/dll8qkH6rQWfN9+N/VS4GYhhdB2mVkLXNR6YGfzABJsAEmAATYAJMgAkwASbABJgAE3jmBBpI/raf/ku423S0/dgbhwpqAV9f+PKfDv3vu/ZVIJAaFlZuFzlf8dPNvBD3Cw+63g6a+eLunq7Cf+4L4ahptrH1D0r6iA6PYRge/6Vro16bpbt5WgQCpyDzhGMxf/m/+ZDUFkdJHftCZSMmJmh+pvUgtXr6QtC0tunpUpZQqFdbcGiA1iboRBZ5w0zS6uwYnvBYory+bXn5hdmFjJULA4pYDGkxM2dB+ZSM+Qt01SC2Wjs4J2jpDBip4klnNG/nfmmUq8QeD/mZo3l9lMvDQA4goZ9ZKD0wDfq19k19OaaoInOvjuNrJmdhBKXWDoSqyEmdbW36qeP1/bybF96Quc4y0MkFlinbbvrpoQC198uU6/0vZtP0PDNfH6qSh/rx3ZY4pyaQr1ZxCP4bZhxKecVGcVCiOjyVArZ2fRw6FVdHk+3CCMYrmhLB0trQGj6660jyP+EHXMMzMFT5i4GH6klg5Yd+oblSQbvJDMeJvF9ta5wowrrxorNqzJq639Y88E281jt/wZzt+5tOt1rnl4w/zM1Ryp8W9A0ecZdTudA/f/q9Vly/rcET3W+t/XxVJoWpinq/fNpN04HXHsmkMHxUYt4yASbABJgAE2ACTIAJ7HUC7B8TYAJM4Lkm0EDyF4naQ4PfqUV7x17/MSoX7W0//bsuIbos+TeXR2g+7/3Ul3O/+uAyKX/Q+rcv5RPh8td//1XhnTEp/GZQfPVpChlh4aT59KBnp1LCl1haWkqE2hfHxzOukPXkLlpq0zWKU8vLywmfWJilZFzTDertm79E9rpSUXPaLxnX69NZIarzRjR5bsMVSpCTyCKXTGnsIPcUTblGl5amp5eX0CtrWYBiMT0yvg4QsAMUIm8+2w2JUVodd8FKTisnhNDZQUY7uU72YaR9cXAQcO2LB8vqaGshI3xDA/LI3FT3yxTTR60+UiQb3tFl9AFDI/N35I/0HwM56lsfH6l2uMq+qT9K3FAlJJLmCrbEkxrFW7ZbjgdIUKrsQFIqQG6ba0vixv3MTUaV+yb/VFStX2z6iShcStj7Zcpr/admrTeapyVmKdGGvjiOL1Qd49xAXnYZEYK0plxEYrr8ZQCqlIpMmZo5a8RmUPqT8K2nSnEoVeFIabzGhgaQMpVi2jjytOsn5PiSqu399O3CWDYeGF8PJuQzErV8MKhO9wfwT2bk3QGB7toQalovjOLSKF5dWqFVX93dnyHplrKHNwAAEABJREFUJ2UVG5jkOEGcP32cVGBVB4DrNF44ubX7bUvlA9+KqzPhx+75jz/+JRKZdz/+4saCmuFbLBb+eGPF3X8e8viBleEFmcpFMKzO9K2Ij85//Ojj83H34/D10hPi4JEwjK4Tpy4i97u5MrEqk8KIKzrBbybABPYdAXaYCTABJsAEmAATYAJMgAk8XwQaSP4iUfuHYVrw931sVepWiPz139MhJGaZuCnBlOWWJsRqvWCpb6pB6KgJ+VMUZARoBQRa7iAQiafTkUAgnlX2kA+KBOgEvQORtPzPuTpVu0WS1O93mDpaxz6MIP3UI5cdxb4q9fWL6QicgStKGVspCQRMP+G7+WCiOnZkoz3RaC+ajlidVaZMMz1AYUIQarnf6lQq1IWjHbQLhnBSGYcOfII2khpE1mIIHRCFXBXZC3rmmjrE9gn6sNvT0xuN9uCFBqTZLIziEAWmpQR2VKm1D3lZn3xNZ2UV0rQMQgcmcYQdVehsT4Wf5EgkbZ6lA6ibQwAh9aKnIT9t3HrIHdu4lP2s7FdZThUs/8lFBAj5AJtxepKdOZQ44zC+yE/ZTmDkVZxT8MORUqFukU0EIFlHT6UEVWX80ikhaLkJqkHhoyRgQEVx6JFhik4o1DhB1St5Qoii9O3ju13tUovWeKEhmMVwYgcFp2r5EEPzLoBeVdwfEBvUWcCnfhEVGBHy/XBheGVTiJaL5y+kTh7tajUMACs3RAeET+rSpra/kJbHF8hkcEIIf0rtomX79euojyplOVV4TuJkl+63q+diseoHvl2dmTr45yt9V/780tQMLfIAxLIUCz+8qbSnflAZYSkWt3+YseQzpWm/htHVenTs9IX5Y5T6RQ75jlLmLRNgAkyACTABJsAEmAATYAJMgAnsEwLPuZuNJH+fcwQO3evsC40mpmNhfzgW8m6Yj29z0Nsromy2Ij2nc4vSUpSn0io3aEdn/2nkxayZ1nwaI7tQd7/4uQsommpi/3IrFm8vfN13Ze6LNeF2d49ULf6rg7B/+6vr0Q7Kn+n9tlgs3C5ob4mN9drT291/QKytrYSvfP3HgpXcb6wuazEBJsAEmAATYAJ7jQD7wwSYABNgAkzgeSPAyV+HEUWS9OzgYDLffqJdLI6bv9l30GMRE3guCeTurVetZbA73XxW7T6pd8j/FlajM1NvTk2dU7/of1KNF+P8No3Xfr/fFotXZWy8OfPDVc78Pnehzx1iAkyACTABJsAEmAATYAJMgAnsewKc/HUewmI2m45H8Iqn98eMVOdusHR7CLxYVmiZCNvqBLvW+WfV7q518DlraBvHi++3z1lscHeYABNgAkyACTABJsAEmMD+JcCeM4HnjwAnf+uNqeHxh2OxsMeop7R95wxPOBb2b5+9epZk1/weY5e6pnOFlvuUiHUKTyOnPoa3p4876qeuj2gUAfHMx6jknkFXQ4xeYYcVsUtqO7qDMcU1UsXEaB07M/RLJILy7dG6IQ2k1Ind9R+NPh/jCPjyYn3GN41mA8ww3jtDsfFLZOjbk637zPlmO8v6TIAJMAEmsL0E2BoTYAJMgAkwASbABJ4DAi9K8hdpC2QBmx+wDp/X2364+Xpbq3G43evr8NTNXm3NcG2tzr5QUIjsHliecicRd/h8HbV910mQe5+mVD+lh2TCjg5Kyh3NhAKZmlav2JYCTzWLgGgu+hzj3DD8MeWL2lK3qI+qjSa2d+cXFhbywrWLl0Stdx2uyjE1WscunL/obllbm+uLxWhZBoJv9ZHHsZag2Po4NnUROLTcrKjr6Mm/Dw1ROXm0y7oxGhjyM1IoTyHfXzJbOoUsb0lIyzLEXroy9/1my1vHzt86udX8b8kg7zABJsAEmAATYAJMgAkwASbABJgAE9hHBBpK/vrCl7/7xiwjx83e2YSfBttNoWg//RdT01F4uVRdVngl+P9salK0QxvkOkN9nc0aL9Kj/Hsi6fLjgJq10Jz+3fzuLLWKjFifry2zMNucezugXbQQ74DtLZh0tXmDQwNWRZfL2hNN+YlcayIoFqPytShGExN+K29VMrhDO45xXiymR+BLclG0rSexMzW5taQ//TY/nZ7P75DvWzT7Wu/FFiE2V4ZnVm9bJngcLRJOn1seR+ti3aX7oWEcHel3z926MXzj1py7f+Q1W2fo8Wq3Pr9FZeJRWR48fb5/8xb0hfu8PSkMjcLquRsra0K4j536rHW3rke0y4UJMAEmwASYABNgAkxgHxNg15kAE2ACzwWBRpK/r7SJuU/eH34XJTr3qw+GfdTz7p5DlvCrwjsfnn6VhK8EP+z/71dSsyzsHhl7/ceoFJari1cDn373zf+8c4iqbeObJv0ty9d0rJRxQzJuLNjWFkzIE8vTjf3o2xOenp6mGjBU8tDRPs2rtGwir2r/ZbSjfsmaw06bb+zaElotTUFVOjo7HrQNbSrocPnH+LSChHR+mcSGMlLeDgwFRWrKlvt1tANuJTdo9iiRI1OQw2wspvCQStmy055OH04CMZVY9WIXqKLcR0ONzJyFKcsddJictBzxDUmey9NVcut85efGxoZ3tDpXC+PkJN6N+dnZ4RKZhXhWvuKR3sGptDXDWtcvNKHxX3QMXIoRiwrOUp9G3c4HxnVxjnxf7q7sai6XzZrJO39sORYOwzhMqw91ycA4aNH4oss457HzlEYa2xhwaHo67PeTcThLI2CaQhNoFzK7/7CqjXPTxPK1IXn7gaoshvHeETf21tZyd/BRKjyOQAHI2zKOMIWy0/dD4+i3ciLv388cNYOkWFw9F5uKrhZuF1b/9RgulMrBIy2PZxf+eXV1FeV2wYxnJIsH3GufL/wT+rOPN986Ys8WU92HC58j+yta+jtfpkPwoQ9+MwEmwAQaJMBqTIAJMAEmwASYABNgAkxgfxJoJPl7PxW//m/VvVdaDz0oyNmptyb+YAlv3vmHOtt+7A0xN31THtyc/Zt4/bg5I7iwkZfC/IP/yk9s/j396bvv/9+/PcDuthXkmhK+fHKwt6enZ3DRNXrtkkfO8CqmI9HUxkZqEHKUQLyhZ7jl5qPR6OB4puyezv7s1KIIDqnEGWlbM0Z1+qSjf68nB/FKimBiYkBp6ewguTY06lofl/0dX1SMUQXyiURQJKm/xGHM5IBTqgyc8G4szpemf0Lf0Q6U28qTX3Fklbv5DZzIJ6O9vb1oIDgW9pj5Gkuj8lOnLxHThNRKdfgzMepaLI1jjf+V6gJJnGsJn0hGwW0wiYG3ZW/bBDhI+XptVrfKDh0uRscz3tClykniTfqZm19EChl5N+Q9PYaBxCtZFkLXr3r+C28w1E4xPViOMbLjNL5biHOvT0xFU2ikfSE6vu49YUacEG1eF8YXV4AMxHJsiyZexWJ6Yb0tODpKF+XgYMqyr/NfG+ee8FgQ8UDDuAjX7C68/OsDONycyz3Eh63s6Dgafsf4fF7HUWGVF8HO3g9bWtwoqrnStuvkmb8PReIH1mb/WZJhxx3/+ONfIpFfhs68J2/yEImXD7o3N3FzN1pPfnRArB042FU6Rafxzm5uYutuOYgtFybABJgAE2ACTIAJMAEmwASYABNgAvUJPCdnG0n+yq4eH6aVH/yFT0o5XynG5tXA27998MDMDuO4utyaiBZ+Z64F8fZ/opeRvqlW2abjYjrSE4jfPTzg9/sP31vcaCuvl3q4HVnA5ppBzi6bRSahXEtrX2b7rMQZmlq/l6NaWn06qXlvLE7N5tDu7AiSkCdU0k1vh7Kq3tBE2O/JpuPxtOUtkruZ8Yg8zE0it+ezr3iBFFXIm0lOShdNLzR2IDYVaj7g5+QspY9z99ZrTjoInPSLErGakFpRhfxPxuUE1dxkMmMbxwo166CT1rBIor/gBg4BWqjDnAwo0K7kmZtdyAhXR2VS1zJQ8Tk7lUIqv5QFxblm/Sxm42d7kYXOt4dCiaWl6dJ8YU2/6vkvMuNnR2hkc/fgiVnIjvP4IvhMncY+zDjYSCHqKmvgzCx45oBjoyFuldXNI4qgzHgAHchm4xEaGDqh8V8b5+hVBvEAd7KTU4vyyycyQ++DR1row+ENx3kchcgkcZ1ms085juArL1brDoNjIbTjtaX7IU3zjb0Ui700s2pdvLIVkduce7y51nJgoDyR99HPa2vhK3+Gdt/agfiFE5VJ3tdSp1o+v0FzfJWB0rZYvP3ocemId5gAE2ACTIAJMAEm0BQBVmYCTIAJMAEmsF8JNJz8vXn53feH3/1SfPSNWvbB6vDx4T91/fRJ/JZ1XPv5SvDD1r+iLkr0pzfMBSJq1bZBYhi0CMJY6AReoVCw6XTvk1zQ2UdycH5xw5w2icTWRl4lNHX6T2pHnUfezEy66eyg3cmzg4NJJBkTy/L386pmZ4dLeEfpN/XLy0tLiWBbRfYUqUaRKi9EgCo6Ozj1TAr8txCq9k0O6sBxW6nvqNKoEKnbZMY7OtH3xAp1/ARSZOMjgUBv7/i6azTmN2Ctjr7ef+/o0hIGd2lp1GWNGuzUGV80tKdKbdd0/hua67ezw1Vr5Il95HF8IqKnVDA044Xg38b74e3CD9GZqe65x291m0neYrEQnZm5Kld7uLNw6/uWlvJ6N6Jl5EL3zzeup56yb1ydCTyBAJ9mAkyACTABJsAEmAATYAJMgAnsGwINJ39Vj/IrPz5obWtXB3LdXr/DXGDztPo4PvDOgzvmbN/89b8+6A9Yj4xT57dx23kp5F0fDwQieJ09a1+wYXsaqWNfzXXzGwZyv5mk+UCtOvoNOHS4NFm5jp3Ozlw2HY8Eemj5hVFz6QmajJsZ77G9Ss+sMwz/UFAsztun/ZIvjnboxDN6V6SrhTmTuo4vlfp1FJ9wStmZnUpteH0Vi8s61xNK3zpp+omvIFS2F3K59EF5yrGjPtQq5RCUSmac1tZIZmzzXeuMb6na9u2U43C7bOr8rxPnWj6Pfqbf8bccqfodv9LncbQN2faPY53x2pb7oWG0lqf0Ptpcq0jy2npm321xi1tfR5EXPtjifvzotrXWtlIxjK6DtErI2qbtGXHqFG+ZABNgAkyACTABJsAEmAATYAL1CfBZJrB/CTSQ/G0//Zdwt9nD9mNvHCqoBXx94ct/OvS/79pXgUBqWFi5XeR8xU8380LcLzzoejto5ou7e7oK/7lvGtv2D0oqiQ6PYRge/6Vro15bA3fztAgETkHmCcdifttcMYgaK3XsC5XtmJig+ZnWg9Tq6QtB0+amp0tZQqFebcGhAVqboBNZ5A0zSauzY3jCY4ny+rbl5RdmFzLekFqHFyhiMezSzFO0QPmaTFKtqIBDVbR26DQtnQEjVTzpjObt3C+NcpXY4yE/czRvkPzHQA4goZ9ZKD0wDfq19k19OaaoInOvjuNrJmdhBKXWDoSqyEmjbW36qeP1/bybF96Quc4y0MkFlinbbvrpoQC198uU6/0vZtMjcvUOVCUP9eO7LXFOTSBfreIQ/DCrC5IAABAASURBVDfMOJTyio3ioER1eCqF8lbjvy7OJZ8TfnTe8AwMVc7of6ieBFb7cC9qjcdR7OQ46saL0Ksxa+p+WPPAN/Fa77y1pMNvOt1qPV8YN1pP/j0yNNaK66g1eKL7rU1a5xdy8TA3R18F0NPcgkfcDinel0+7aZWQtUdVK0RTZX4zASbABJgAE2iCAKsyASbABJgAE2ACTGAfEWgg+YuU7qHB79SivWOv/xiVi/a2n/5dlxBdlvybyyM0n/d+6su5X31wmZQ/aP3bl/KJcPnrv/+q8M6YFH4zKL76NIWMsJCzhr/5n3cOtdKp/3f61W1hNjuVEr7E0tJSItS+OD6ecYWsJ3fR0rGuUZxaXl5O+MTCLCXjmm5Tb9/8pbPXlYqa037JuF6fzgpRnV+kyXkbrlCCnEQWuWRKYwe5rWjKNbq0ND29vIReWcsCFIvpkfF1gIAdoBB589luSIzS6rgLVnJaOSGEzg4y2sl1sg8j7YuDg4BrXzxYVkdbCxnhG7KvkVvTL6mpNrX6Mk00uow+YGjks93IH+k/BnLUtz4+Uu1wFTdTf5S4oUpIJM0VbImnalbIdsvxoKRVdpRQbYHcNteWZI37mZuMKvdN/qmoyrabfiIKlxL2fpnyWv+pWeuN5mkJW/piAH1xHF+oOsa5gbzsMiIEaVO5iMR0+csAVCkVmZI1c9aIzaD0J+FbT5XiUKrCkQ2vOV5jQwNIyUoxberwpNPWW+s/oDtdv+CTzMirF4Ho2rBPty4Wry6t0Oqu7u7PkAy0Wih/wiSPI+JwJ8ZRAK7TeIH+1u6HLZUPfCuuzoQfu+flg93m3Y+/uLGgZvIWCz8Mzz3uP//xo4/Px92Pw19b8mLhjzdW3P3nf4lE4gdWhhcqUryG0XXi1EXkfjdXJlYrZwTD4acpXJcJMAEmwASYABNgAkyACTABJsAEmMBeJtBA8lfcT/1hmBb8fR9bM3Ur8td/T4eQmGXipuxmWW5pQqzWC5b6ppoQ/57+1LI5XDF9GPpbLcg40AoItNxBIBJPpyOBQDyrjCHfFAnQCXoHIum6//lHktTvd5g6Wsc+WsnG0QAaLD+tqL5+MR2BM3AFdVWRkkAAZnCip2yqjh3ZaE802tvTgy6bnYU1mDLN2OVqud/qVCrUhaMdtAuG5Is0Ah34BG0k44isxRA6IAq5KmgaVSr6pWrq9HG2p6c3Gu3BCw1ItSyM4hAFpqVEGce21j6EZX0Ckc7KKqRpGYQOTOIIO6rQ2R7rEWRSRI5E0nKXEuIB2xBASL3uachPG7cecscKQhgp+1nZr7KcKlj+k4sASREFm4iviHyIH+zgjMP4Io9vO4FBU3FOwQ9HSgUUJB8EIFlHt6UEVWWPqTkhaLkJqkFhpSRolori0CPDFJ1QqHGCqlfyhFDZxk5VgXKt/9RH8ypFqxXXL8aOnAEcape8Lhl8uDC8silEy8XzF1Inj3a1GgYaxbgqBektdU8dYislPI4qwgkowNYfx126H66ei8VeQrE/8O3qzNTBP1/pu/Lnl6ZmaDEHjJ8st1dn3oQqytTMVRnMUiyQF7bkP6hMMeSG0dV6dOz0hfljlPpFDvkOhFyYABNgAkyACTABJsAEmMDWCXBNJsAEmMC+ItBI8ndfdWhbnO3sC40mpmNhfzgW8m6Yj2/bFss7YySbrUjP6RqhtBflwbTKDdrR2X8aeTFbzlw/jZ2drrtf/NxpDnvHfrF4e+HrvitzX6wJt7t7pGrxX52fPI46Mg7yZ3o/LBYLtwvaW5aDtw4iT293/wGxtrYSvvL1Hwu2ZLGDLouYABNgAs0SYH0mwASYABNgAkyACTABJrC3CXDy12F8kCQ9OziYzLefaBeL4+Zv9h30WMQEnksCuXvrVWsl7O1uIv9bWI3OTL05NXXuWf6if69R2qZx3O/3w2LxqoyNN2d+uFqR+c3d22sjxv4wASbABJgAE2ACTIAJMAEmwASYwH4gsM985OSv84AVs9l0PIJX3PqhvbMeS5nAc0eAlokIVCyt0GAXDcNjXwK4wVqstkMEtjyOtf48l/dD8KntKUuYABNgAkyACTABJtAkAVZnAkyACTABJrDXCXDyt94IGR5/OBYLe4x6Stt3zvCEY2H/9tmrZ0l2ze8xdqlrOleQLlSIdQpPI6c+hrenjzvqp66PaBQB8czHqOSeQUMVo1fYYUVsqA1MJMasRyzicC8UxACuqSqGRuvYmaFfIhGUb4/WvQQwBNRpTX93qINodH+Nu44D4O/m/VPnRrNyw3jvDMXGL5Ghb0+2PuM7ZLPOs/6zJsDtMwEmwASYABNgAkyACTABJsAE9hyBFyX5izQEsoDN4+/web3th5uvt7Uah9u9vg5P3WzU1gzX1ursCwWFyO6B5S93EnGHz9dR23edBLn3aUr1U7pHJuDooKTc0UQoCDI1rV6xLQWeahYB0Vz0Oca5Yfhjyhe1pW5RH1UbTWzvzi8sLOSFq/aS8MivSUIuIdr7qvprGK1jQ0N/P3O0iYa2U7XDVRkDcOfC+YvulrW1ub5YjJaJoMGymPC4O7DXj7uDcoWoqYumoubWDozWo98i2FBOHu2y3UgpCM8M/X2Isrl2y11HT0JIxaZPy0TEXroy9/1my1vHzt86yflfOzLeZwJMgAkwASbABJgAE2ACTKCSAB8xgb1PoKHkry98+btvzDJy3OyUTfhpsN0UivbTfzE1HYWXn1DdMrPtn8h1hvo6mzVbzMYDPT2R9FM+bqjhZu/md2epVWS4+nxtmYXZhj3bKcWihXinGmjOrqvNGxwasOq4kMs095vyE7nWRFAsRuVrUYwmJvy2PJRpcWc+HOO8WEyPwJfkomhbT2JnanJrSX/67X86PZ+vdp36mwiJhfw6nWkPJa7F/GZyGUm34OnzF1ta3HRqT7xf673YIsTmyvDM6m3LIR53i4TTp27cnXQrZNbFvUv3TwTbZ6f63Wu3hm/cWnP3Xz7xcskbBGH/JsmF+/y3R0vBeXSk3z136wb059z9I6+V1GmnsHruxsqaEO5jpz5r3a3rlxrmNxNgAkyACexnAuw7E2ACTIAJMAEmwAT2IIFGkr+vtIm5T94ffhclOverD4Z91I/unkOW8KvCOx+efpWErwQ/7P/vV1KzLOweGXv9x6gUPqE6mXjKN03iW5avaSSgrP/k+2Njwba2YEKeWJ5u7EfcnvD09DTVgKGSV472aV6lZRN5VfsvnR31S9Ycdtp8Y9eW0GppCqrS0dnxoG1oU0GHyz/GpxUkpPPLJDY5KFO0HRgKitSULffraMeA8fKMSH+MyJEpyGE2FlN4yFOyqX/r9OEkEFOJVS92gSrKfTRUNZPUsR2YstxBh8lJS803JHkuT1fJrfOVnxsbG97R6lwtjJOTeDfmZ2eHS2QW4ln5ikd6B6fS1gxrXb/QhMZ/0TFwKUYsKjhLfRp1Ox8Y18U58ne5u7KruVw2aybjMKKxcBjGYVp9+GWSC8ZBi8YXXcY5j52nNFK5kf1NTs4iLbyxODVydjCqQstoPZq6cD5+YC08hyRaZR2nIwMdmJ4O+/3kDDpHI2Y2DZfgJ2T2/sKG9rowTSxfG5K3K6jKYhjvHaE89Npa7o4UmBsed4AA5KbGHVXqlJ2+fxrWHN8zR80gEeLgkZbNudw/bxdWJ9Y23S0HlXuGcXTAvfb5AslnH2++dcTM8haLq+diU9HVAvT/9VjpVmwfLnxOgdvS31lOI1co1D/gs0yACTABJsAEmAATYAJMgAkwASbABPYCgUaSv/dT8ev/Vs6+0nroQUHOTr018QdLePPOP9TZ9mNviLnpm/Lg5uzfxOvHzRnBhY28FOYf/Fd+CuFU3Ty19Q/kjhK+fHKwt6enZ3DRNXrtkkcms4rpSDS1sZEahBwlEM820kZuPhqNDo5nyro6+7NTiyI4pBJnpG3NGDX8MUd/SEf/Xk8O4pUUwcTEgNLStYtk2dCoa31c9nd8UTFGFcgnEkGRpP4ShzGTA06pMnDCu7E4X5r+CX1HO1BuK09+xZFV7uY3cCKfjPb29qKB4FjYU8q/WDr2T52+REwTUu3KQsCfiVHXYmkca/wXlS8kra4lfCIZBbfBJAbelr1tE+Ag5eu1Wd1KM/JoMTqe8YaqFq5t0s/c/CJSyMijIY/pMQwkXqVpbb/q+S+8wVA7xfRgOcaIj9P4biHOvT4xFU2hkfaF6Pi694QZcUK0eV0YX1wBMhDLsa16UrlV/b02MeYDbSHQXxVaxcLq7K25vq+vpyr1dUfFYnphvS04OkoX8eBgyvJH11/tdeEJjwURPzTsi+iKvb2Xf30Ah8gQPsSHrfC4KxjNjLuqodvKi2Zn758tLW6UkgNI5k6siIvnL3x7Zmj+mPhi6Z/mqZcPujc3cdM3Wk9+dECsHTjYJf8uqLNdJ8/8fSiCryhmLXUll9vs5iY+3SqNjHjDARcmwASYABNgAkyACTABJqAlwCeYABNgAnuSQCPJX+n48WFa+cFf+KSU85VibF4NvP3bBw/M7DCOq8utiWjhd+ZaEG//J3oZ6Ri7ypOq23WfsI/kV08gfvfwgN/vP3xvcaOtvF7q4XaZl3qCgYrTlMPKImNQFmrty+yXlThDU+v3clRLq08nNe+NxanZXDabnR1BEvKESrrp7VBW1RuaCPs92XQ8nra8RXI3Mx6Rh7lJ5PZ89hUvkGoMeTPJSemi6YXGDsSmQs0H/JycpRxf7p78sX+NQpXASb8oEasJqRXq5H8yLieo5iaTGds4VqhZB520hkUS/QU3cAjQQh3m5FaBdiXP3OxCRrg6Glj5Y3YqhVR+KQuKRpr1s5iNn+1FFjrfHgollpamY9a8Zk2/6vkvMuNnR2hkc/fgiVnIjvP4IvhMncY+zDjYSCHqKmvgzCx45oBj4wnczP7Sqg9twYStv0JcXV29bc16rrTvfEQRlxkPoMPZbDxCA0l6mv5qrwtQyCB+4H52cmpRfllFZuh98EgLfTi80VEedyEySVzX2Wwj4+4A0SaSF7d1R5Jy7Xht6f5J03ZjL8ViL82sWhe7EB7d6JIDr6VOtXx+g+by0lHpnduce7y51nJgwJwQXDohisXbjx7bDtOR8gHvMQEmwASeSIAVmAATYAJMgAkwASbABJjA3iDQcPL35uV33x9+90vx0Tdq2QfL/ePDf+r66ZP4Leu49vOV4Ietf0VdlOhPb5gLRFhqT65uaTbwaRj+2PTyWOgEXqFQsOl075Oa0NlHcnB+ccOcNolE1UZeJTR1+k9qR51HHsxMuunsoN3Js4ODSSQZE8vy9/CqZmeHS3hH6Tfyy8tLS4lgW0X2FKlGkSovRIAqOjs49UwK/LcQqvZNDurAcVup76jSqBCpzGTGOzrR98QKdfwEUmTjI4FAb+/4ums05jdgrY6+3n/v6NISBndpadRljRrs1BlfNLT7Bf2lVR+Qqqap4GZ/t+ZGLQpdfw3N9d7Z4ao18kRdZSMIAAAQAElEQVRndnDcq/0px7Pez/0x7k+kalcwNOOF4NmW+6dx9Ez8wFrfn78+NzN1cO5x//nT75Vn+LaMXOj++YbDJPTbhR+iM1Pdc4/f6j5hnxFs91ztw3+1w1smwASYABNgAkyACTABJsAEmAATYAJOBPaorOHkr/I/v/Ljg9a2dnUgXg18+p3fYS6weVp9HB9458Edc7Zv/vpfH/QHrEfGNVRdGWls23kp5F0fDwQieJ09a1+wobH6T9KqY1/NXfMbBnK/maT5QK06+k9qCucPlyYr17HT2ZnLpuORQI/MuZlLT9Bk3Mx4j+1VemadYfiHgmJx3j7tF20JRzt04hm9K9LVwpxJXceXSv06ik84pezMTqU2vL6KxWI19ZS+ddL0E19BqGwv5HIpg/KUY0d9qFXKISiVzDitrZHM2Oav1hnfUrXt2ynHoc4mre4alutNb+BrD/KunN3U1WlGThYzDvFc57rQ8nz0M/2Ov+XIwUoHlD6Pu43Kk8fdptzQbp3x2pb7528OHlhby5kzzf/585o48OvSWr0tbnHr62ihKA62uB8/UjqG0VrO9j7aXGtpkUFc7othdB2kVULWNh+REP7TB7+ZABNgAkyACTABJtAQAVZiAkyACTABJrBXCDSQ/G0//Zdwt+lv+7E3DhXUAr6+8OU/Hfrfd+2rQCA1LKzcLnK+4qebeSHuFx50vR0088XdPV2F/9wnYw7VSfxUb0oSiQ6PYRge/6Vro16bsbt5WgQCpyDzhGMxf9V/8yF+cqljX6jsxcQEzc+0HqRWT18ImgY3PV3KEgr1agsODdDaBJ3IIm+YSVqdHcMTHkuU17ctL78wu5DxhsIeAyaBImY9tA2HyF94M0m1ogIOVdHaodO0dAaMVPGkM5q3c780ylVij/Q5R/MAyX8M5AAS+pmFtG3pgFr7pr4cU1SRuVfH8TWTs6rRWjtKjq2cBNrWpp86Xt/Pu3nhDZnrLAOdXGCZsu2mnx4KUHu/TLne/2I2PSJX70BVuCf047stcU5NIF+t4hD8N8w4lPKKTYmDCI5dG/O1ifa+SxMhr76CrXYd/jYtuavpr+66kDxP+AHL8AwMVf4C4KF6slfpoV/SvrXhcRfNjLvC1vg46saL7Kgxa+r+WfPAtzuPHrvdne+10n3vN68deUs8/pda2flhbo5S/pQJDh5xm6lctPpa7/wFc7bvbzrdal1giMvl5dNuWkdi7ZG0I/0vn+Q9JtAMAdZlAkyACTABJsAEmAATYAJMgAk8MwINJH+R0j00+J1atHfs9R+jctHe9tO/6xKiy5J/c3mE5vPeT30596sPLpPyB61/+1I+ES5//fdfFd4Zk8JvBsVXn6aQEXau/tQUZqdSwpdYWlpKhNoXx8czrpD15C5aOtY1ilPLy8sJn1iYpWRc0+3p7Zu/XPa6UlFz2i8Z1+vTWSGq84s02W7DFUqQk8gil0xp7CBXFU25RpeWpqeXl9Ara1mAYjE9Mr4OELADFCJvPtsNiVFaHXfBSk4rJ+gJXXFHO8hoJ9fJPoy0Lw4OAq598WBZHW0tZIRvyL5Gbk2/pKba1OrLtM/oMvqAoZHPdqN+Sf8xkKO+9fGRaoeruJn6o8QNVUIiaa5gSzxVs0K2W44HJa2yo4RqC+S2ubYka9zP3GRUuW/yT0VVtr2YjZsnlhL2fmn9p2atN5qnJWnpiwH0xXF8oeoY5wbyc8uIEKRB5WIC0/hegBJk0LcXmWI1c9aIzaDkmfCtp0pxKLXhyIbXHK+xoQGkWOH/2cFokr58cLWLhejgWdVfqV5vU4e/vZq2vxgkp+sd/iQz8mpH4Lo2hJrWKy0Wi1eXVmjVV3f3Z62GE4SpFI874raRcZdEadPgOArNeMHE1u6fLVUPfFud6Vtr+ej8x79EIvPd4osr16/KL42KxcIfb6y4+89DHj+wMrwgU7m4763OhB+75z+W+u7HX9xYUDOC4Q+KYXSdOHURud/NlYlVaQf+Q86FCTABJsAEmAATYAJMgAkwASbQCAHWYQJ7h0ADyV9xP/WHYVrw931sZeoW7uev/54OITHLxE1IhSjLLU2Ib8r1gqV+jVpldSg/RUEGgVZAoOUOApF4Oh0JBOJZZQ/5o0iATtA7EEmr/8yrczVbJEn9foepo3Xsw0Y2jgbQYPnpQ/X1i+kInIErqKuKlAQCMIMTPWVTdezIRnui0d6eHnTZ7CyswZRpxi5Xy/1Wp1KhLhztoF0wJF+kEejAJ2gjuUZkLYbQAVHIVUHTqFLRL1VTp4+zPT290WgPXmhAqmVhFIcoMC0lyji2tfYhLOsTiHRWViFNyyB0YBJH2FGFzvZYjxSTInIkkpa7gvpoGwIIpaQhP23cZAesIISRsp+V/SrL7f6TiwBJEQWbiK+IfIgf7OCMw/gin2U7gUFTcU7BD0dKBRQkHwQgWUe3pQRVZY+pOUGr9yKoyJuqTK7i0CPDFJ0wUWezd/GlznoS111WPqkPTpZKcXXmpZnV0qHaoeYq+UOufMFOVYFybX+JiXlVI/grrneMtequvJyolyWDDxeGVzaFaLl4/kLq5NGuVsNAo4gDpSB7RzjUIbZSwuOurgjEA41DadyJT7r6PrZL98/Vc7FY9QPfbv8w86aSTs3QIg/wT5Zi4QdL/oM9w3t1Zurgn6/0XfnzSzZ9w+hqPTp2+sL8MUr9Iid8R9rAF0jlG6yS8JYJMAEmwASYQIMEWI0JMAEmwASYABNgAs+QQCPJ32fo3jNqurMvNJqYjoX94VjIu5FXj297Rr400mxtus2xFqWxKK+lsnsOKg3acaj51KJidn8kVvaLn089IE0byE1GB2vmaDdtZecrFIu3F77uuzL3xZpwu7tHqhb/1bXP464j4yDfV/fPYrFwu1B1S/T0dvcfEGtrK+ErX/+xIL8pcejmVkVcjwkwASbABJgAE2ACTIAJMAEmwASYwG4S4OSvA20kSc8ODibz7SfaxeK4+Zt9B72nEHFVJrB3CeTurVetfdCAr0XkR/dJmgz538JqdGbqzampc+Yv+hvo4POvsqVxr8Wy3++fxeJVGRtvzvxwlTO/tePLEibABJgAE2ACTIAJMIGmCXAFJsAEmMAzJcDJX2f8SGSl4xG84tYP7Z31WMoEmidgGB6P04KzzVvakRq0TESgYqmEHWmGje4xAts47nz/3GNjy+4wASawlwiwL0yACTABJsAEmAATYAJMYHcJcPK3Hm/D4w/HYmGPw4Oh6lXb6jnDE46F/Vut3Vw92TW/pzIFKYW719/mPH522sjVYmCqWD2NOwMTiTHrUYRPY6eq7rb7WWWfD7eZgM0cLj1c+1UxZrSOnRn6JRJB+fZo5aVqq9r07q7FCTq1m/fPpkFoKhjGe2eI+S+RoW9Ptu7SzV/jC4uZABNgAkyACTABJsAEmAATYAJM4Dkg8Iy78KIkf5GGQKazedgdPq+3/XDz9bZW43C719fh2b4sTx0vOvtCQSGy1b/T393+1vFPc6rZcUQ6fdp8xbYUAMoPDExzUaDz0yO/Tgi5hGjvs/uzp/w0DH/MhCY/6OuAbU6BafmESy1XjJdOXw3Pc7HtcPk67B0xWscunL/obllbm+uLxczlKfZUnNi91ezv9v3EaD357dDQ31HOHO2qvJEaRut7J8/g1FhlPrdWTss+xF66Mvf9Zstbx87fOlmpr+kpi5kAE2ACTIAJMAEm0CABVmMCTIAJMAEmsNsEGkr++sKXv/vGLCPHTRdtwk+D7aZQtJ/+i6npKLzsVL0stKxs/ydynaG+zmbtFrPxQE9PJF31OKBmzTSsfzff/FKrDRu3KRqGp8/XllmYtclod7f7S202925qHJHDTATFYlS+FsVoYsJfmQ9qru1mtB39JH8SIbGQXydT7aHEtZifkqok30t+FovpETBLLoq29SR2piZrviSgDjzNW8tHw8FR/2kc2Pt1X+u92CLE5srwzOpt5e1eixPlVZ3tLt9PkPm9dd4tbt0YvnHjc9E/f/q1km9G69HUx+c/atn8/MaNqO3xbjo5KhZWz91YWRPCfezUZ627dd9Au1xeMALcXSbABJgAE2ACTIAJMAEmwASYwI4TaCT5+0qbmPvk/eF3UaJzv/pg2EdedfccsoRfFd758PSrJHwl+GH/f7+SmmVh98jY6z9GpbBc3dEmmXjKN82MW5avaSTWKLMGg0iajAXb2oIJeWJ5OuyB8InFE56enqYaMFRSdrRP8yQtm8ir2n/p7Khfsuaw0+Ybu7aEVqcrp1vq7HjQNrSpoMPlftEKEtL5ZRKbHMrNDQwFRWqqMve7+/3FuMC9WExhph6XPHT0H/pNjWNnh0tkFuJZ+YpHegen0tZMZ5hSeOCAfQaubFeemQa4Cm4dA5didGbrfkp/kpOz83mxsTg1cnYwqoags2Nv+YlRKGazubv4FCKXy2bNLz8ADbhqxwvQQIvkuGIIj8kN+vKIDg0c0JUn9/0xx3Hs1IwXqjrqGzgxPR32+8NyYOCb30rSwSUlI6GHGpWdEY7XkT+2HAuTDXirPkp2VK2q7Xa1C7Mlf64NydsqRLIYxntH3NhbW8vdwYcqnRo+OEsk6CawXNVfyYGidhkj5C9zQJWnj2cYqVN2+n5iHC3N8bX6dbDFvXbr3GrhdqGQuj73vfvIezIeDKP1s1P97pUr8gluhZLPOnlJ4eHC58j+ipb+zpdLMt5hAkyACTABJsAEmAATYAJMgAk8FQGuzAR2n0Ajyd/7qfj1fyvXXmk99KAgZ6femviDJbx55x/qbPuxN8Tc9E15cHP2b+L14+aM4MJGXgrzD/4rP4VwtGme2/KH4Y8lfPnkYG9PT8/gomv02iWP/M9/MR2JpjY2UoOQowTi2UaayM1Ho9HB8UxZV2d/dmpRBIf8si3SdrloK4ROX9R9rScH8UqKYGJiQCnq7BiGf2jUtT4u+zu+qBijCuQTiaBIUn+Jw5jJAadUGTjh3Vicr5rO+Qz6eze/0eYS+WS0t7cXjgbHwh7K4+j8b3Ycc/OLG95RZL2QH/QYBhKaqvtkf9S1WIoTiw8yZdcSPpGMgv9gEgFknynsDYbaKbYGy2NNdpw46/xU/lybGPO1kSPwRw2Bku8dP8k5x7dmvEi3zevCOOKKkYFbuhYwvHS28l2fTy0HnX6xmF5YbwuOjtJFPziYWveekFeMblx01xG88/rEVDQlvMH2hei4ZQdyx7Jd7SLexoKIQwq3RSFkUFgNvvzrA9jdnMs9xIdZ9k2cSH934X7S0uJGka3JzaPNNXf3t0dbu1pbPzvd/5Y48GuVtH25s79l7fOcgLyrdJdGDZ0cp8yS3dzEnrvlILYC40Uf/GYCTIAJMAEmsH0E2BITYAJMgAkwASbABHaBQCPJX+nG8WFa+cFf+KSU85VibF4NvP3bBw/M7DCOq8utiWjhd+ZaEG//J3oZaQ5TRW/TVGjyA0minkD87uEBv99/+N7iRlt5ndbDY43PDwAAEABJREFU7RWplUYMU24uW5Em1tqXWRmVeBICTa3fy1ELWn06qXlvLE7N5rLZ7OzIeMZ7QiXR9HYoG+cNTYT9nmw6Hk9b3iK5mxmPyMPcJHJaPvuKF0hhhLyZ5KR00ebFM+vv5CzlQHP35GII0iG9/4ArNRraFLPxs73I4ubbQ6HE0tJ0zHqYHtlPxuWE1txkMmPFSSethZEEN/AHzwAt+GFOehUiM352hAjn7pXbJjvOnB39NP2hVR/agomyP6Z8ca/4We5g7R7is3a8SA0RNQtuudmp1IarQ62wgvCkUw7venxqOciLysGKENRCZjyAgclm4xEaMFLTjIv+OhLwnq6HjRSuPrLwpPf2tAsKGcQhsGUnpxbll2pWwwePtFi7pc/9FCdC7PT9pLh6LhZ7CWVm1bxIi4Ufuq+sie5Tl0+d6hcr31PeVsI72OIW7vj585DPf/zxt0fpGyY6oZPTOXoXi7cfPaYd9cb9Qe3s0JbNMgEmwASYABNgAkyACTABJsAEmAAT2AkCDSd/b15+9/3hd78UH32jln2wnDk+/Keunz6J37KOaz9fCX7Y+lfURYn+9Ia5QIRU09mUJ7ewMQxaBGEsdAKvUCjYdLr3SU3q7BeL2fnFDa/K/iLxtJFXv5jX6ddpx3YK+SUziaazg3Ynzw4OJpE0TKjfe6vqnR0u4R1VvwJfWkoE26zspjxNKYxUeQEEKXPeGBqeaHcH+lv2obOu/2W9BvbgKrLikUCgt3d83TUa8xuoBPvWEOEIxeSMvUo5BKXiHV1aAuSlpVGXRQ926nAu1bTvwB9a9QGpZJrqbPoDBcj3lJ9w6ZkURw71PakdMt24GJp4rm9fd/bp2+3scNUa0TWn5I58auzsXjwrrxrcGhr+6NR23U+Q/z03NfXm1FT39UeiIn2+Fr7yZ8gPXllx959Wy0FIt3VyeZI3TIAJMAEmwASYABNgAkxgRwmwcSbABJjArhBoOPmrvMmv/Pigta1dHYhXA59+53eYC2yeVh/HB955cMec7Zu//tcH/QHrkXHqvKi0aQq39NF5KeRdHw8EInidPWtfsGFL5moq1bGv5v76DQO530zSfEBWHf0a27WCw6XJynXsdHbmsul4JNAjc4nm0hM0iTYz3mN7lZ5ZZxj+oaBYnKdpjrVNVknqtLsD/S03Xsf/slIDe/gqQGV7oSt/qi9KWbGKdLgwZ2pDrVIOQalkxmltimTGNj+zWT9pFdSwXJd5A18PUG3lz17zs9TnLe2U47bZ6nU4NGWKyGYc4r9OPDdlX6e8hXa18fboZ5q32nJErjdgNliHT6WdXYpn062GP+rw35b7iWG0drUaNnce/6u0aMbmZlbtP3y0VloOAqo6OU4JYRhdBw8IIdY2H2HLhQkwASawwwTYPBNgAkyACTABJsAEmAAT2BkCDSR/20//Jdxttt5+7I1DBbWAry98+U+H/vdd+yoQ+ZUfhZXbRc5X/HQzL8T9woOut4Nmvri7p6vwn/tCaGyarWz1g5IvosNjGIbHf+naqNdm525+A/kRnILME47F/DIHh4NmSh37QmUvJiZoXqj1ILV6+kLQNLjp6VJ2UqhXW3BogH4z34ks8oaZpNXZMTzhsUR5XdrysgmzCxlvKOyhPAhQxGzPjqP8SyapVjxQDdbZ6tqlKjk5V+/p+0u2at56/+uMYy3Pu3nhDZnrHYODXOiYst7Sd+KDQBnAFwaZBfUgOFMuYwOnZK6tIk6K2fSIXEXDYxBb0aSfsC+CY9fGfG2ive/SRMi7oQZ4r/lZMx6NCFwdKm7B0+yWqkVLrwB+I9ejjgMM1Rl3nK0umnGpF8/VJsrHtXFVPle112S7iIcN7wk/gsnwDAzZfqkAsw//JdcbeOvIazgwi46PtPMM4lm51TifevxlH040dT+pfeDba73z50+/12ogCxw80f3W2s9Xi3JFiH/+/H3LsZHXaAHg35w48pawksI6ueoYti+fdtP04bVHMnEMHyHjwgSYABNgAkyACTABJsAEmAATYAJMYJsI7JKZBpK/SOkeGvxOLdo79vqPUblob/vp33UJ0WXJv7k8QvN576e+nPvVB5dJ+YPWv30pnwiXv/77rwrvjEnhN4Piq09TyAg72nz6Ls9OpYQvsbS0lAi1L46PZ1yhS5RIhWFa2tU1ilPLy8sJn1iYpSQg5M0VvX3zl8teVypqTvsly3p9OitEW1vl0hQ0aXLDFUqQk8gil0xp7BSz8WjKNbq0ND29vIReWcsRFIvpkfF1gIAdoBB589luSGjSqrYLVnJaOVFnq2kXNbanvzBkFfi8kBG+IXpiF/Yd/Ydu/XGs4pmbjEoMSyaHVFRlvYmbOrGUGPWtj4+YQEz5KPGnGBJJhxVgKQNkJuib9RP2zw5Gk5Skd7WLhejgWeXPXvPTQD5vGRGFdKRc7GIa3yPIZDcGwCroe2m8pKwtKLklfOupUtzm5pPrFJ8IwvbFwUFcnNbi047jqOMA+476kDsW+OYcP/p4ttuRKVzzOwMlr4orJazdNtsu4iGZkXclAHJtCHw9ZRktFq8urazhyN39GZKZ2EHR8YEdM9B3N57hkioN8hF6/lu7n7RUPvCtuDrTtyI+Ov/xo4/Px92Pw9f/qdwrFleDc2vu/vO/RCLzbvHFlesqKayTq1qG0XXi1EXkfjdXJlZlEhmc1SneMgEmwASYABNgAkxgBwiwSSbABJgAE2ACO0WggeSvuJ/6wzAt+Ps+tjJ1C2fy139Ph5CYZeImpEKU5ZYmxGptX6lvqjnahObTFWQQaAUEWu4gEImn05FAIG4+Aw15mUiATtA7EEnL/8zrWkOS1O+vmPKpNOvYh0I2jgbQoJxrhmMh6usX0xE4A1ekLm2kJBCAGZzoKZuqY0c22hON9vb0oMtmZ2ELpkwzdrla7tdMdULLLM+sv/CeemkSo/GKpJVPzv4TUmgRHXpXjiOqQFjBs5it0LaCAU2UT1QaKcsJaDor44SCh54lRn7SWNCT4EzUaNSBs97PYjZ7F19+rCcRn1n5xDk4A5t7yk/ZX7C0ijVGSH7RFSWZwG34DHjYkSUz3osgJGoqow2hrV8UnGq0IUehJixwiFB1Pdr00TRVgaYqjvo4ZbeJw1JxHBfYd7w/4EJE2JR6h7ry4qPhhkE67KHhx36pbEu7sAaG6CqKvOzJCwhVebgwvLIpRMvF8xdSJ492tRoG/C/pK9BKE9ty3GJIrAGqkFOF7Y9nNFHLZ5fuJ6vnYrGKB77Bmds/zLyppFMzKsMLIQrywiV5tGCOrE5uGF2tR8dOX5g/RqnfL24s3IEmFyawuwS4NSbABJgAE2ACTIAJMAEmwASYwLYRaCT5u22N7RtDnX2h0cR0LOwPx0Lejbx6fNse9r6URqzvYym9Va223/pb7f++Os5NRgetucZPcpzPv7gEisXbC1/3XZn7Yk243d0j9sV/9zqUfX8/8fR29x8Qa2sr4Stf/7FgS6bvdfLsHxNgAkyACTABJsAEmAATYAL7lgA7zgR2jgAnfx3YIkl6dnAwmW8/0S4Wx821Ahz0nhfRi9bfZztuxSJy9eW5h8/Wme1pPXdv3fYcvO2xyVaEQP63sBqdmXpzauqcWnlgX1DZ7/eTYvGqZP7mzA9XOfO7L0KOnWQCTIAJPH8EuEdMgAkwASbABJgAE9hGApz8dYaJBF06HsErnjZ/4O+s97xIX7T+Pi/jtif6IddkqFiyYE+4xU48OwJ8P9lG9myKCTABJsAEmAATYAJMgAkwASbABJjA0xDg5G89eobHH47Fwp7qp13Vq/MU5wxPOBb2OxrYdqHsmt9j7FLXtt3/Bg3S8qNyCBvU31E1g6IpRq+ww4rSO9r0thgHTATocx8z28JKZwTXHa7x3Wfo2K7ROnZm6JdIBOXbo3vvVsDxpouixuWO466rDmV5s9xnfxQM470zFMO/RIa+Pdladh73W11PWc4EmAATYAJMgAkwgb1OgP1jAkyACWwrgRcl+Yv/1iLT2Ty6Dp/X2364+Xpbq3G43evr8OxKFqazLxQUIvsCLGfpOIRbjYetjatV6+78wsJCXrgaDyl8HTBtvmL2AHaUG4Y/Nh3zO8WPo77lVuOfCNDmrgZHztJPs1f0QV+vlFM2jXtTR9O5XeCh9uR7Bxqt44/tVIfL12E73LXd6naN1rEL5y+6W9bW5vpiMXNZCV2cOMrlOHK80Qg+L/HmeLOkDu7o2zCOfjt0ZszK28rDob8P2crJo8oBoxWaUn7yaJd1o6NlOmIvXZn7frPlrWPnb5207Ii786oWb5nAvifAHWACTIAJMAEmwASYABNgAk9HoKHkry98+btvzDJy3GzQJvw02G4KRfvpv5iajsLLpepWhe6Rb2qF1snt+0SuM9TX2ay9YjYe6OmJpHdrhda7+d1ZOtUwPH2+tszCbLNA9p1+0RrCKs+3Fg9VRpo9pN/Cp9Pz+UbrIZebCIrFqHwtitHEhF/mO3RysttGm6p3Pf0q1e0+dORcLKZH0KfkomhbT2JnanLbv4RwbBedUw1Go2jbl7h2aXe+aEG721O21cprvRdbhNhcGZ5Zva0M6+JEJ6daHG9EQTwf8WbdLHfr751Eh03wdP9bLQewY5bXjrgf3xq+cevzWyhray0ta4/+iVOG0frZqX73Gp1ac/dfPvEyhKVSWD13Y2VNCPexU5+1yvsk7rels7zDBJgAE2ACTIAJMAEmwASYABPYVwS22dlGkr+vtIm5T94ffhclOverD4Z95EN3zyFL+FXhnQ9Pv0rCV4If9v/3K6lZFnaPjL3+Y1QKy9VJW4hXgv/v7V89UPvbs6UZasvyZZsCafhjY8G2tmBCnliebuxH957w9PQ01Yj5y9MSHe3ThELLJvKq9l/OOurX62qbb+zaElqdrpyZqLPjQdvQpoIOlxcToBUkpPPLJC77bzY9MBQUqSlb7tfRDriV3KBZfkSOTEEOs7GYwkMqpln9h6N9qOv8lHLZgWl0gBolZXTWwlLhDxyang77/eGYqoIRoyowgiGkEqtYTAPqjvGAEUe//DJxQOM4vRzzkx00rSu6funkOjuO8s4Ol8gsxLPyFY/0Dk6l5UxtndzRCIR19IFCIlumjnvKnQU6a3jL/GEKpWPgksRcMe5Sn6LQbgfGHTnDCPIyubv4FCKXy2bNZBP0Ub02rmAcUUByOZZhy0/okxPmePljtvjUtYsmJc305Eg0JYJDAxBQQROyU41yoKZld+FwaUa2QVKHOEQDpev32pC8fUKkL3Xs6Pws2Sd/JBBlviSvatcw3jvihsraWu4OPlTp5HiTIAD5hYo32WmBu5+6odtveqX4sccVbsOlv6F0n7StjOSor+zT7N4hms575mj5PoNTxtEzcffm2iZ2zVJcnXkT30gUVq+urmYPut/aXJmg3C/OHjzSsjmX++ftwurE2qa75SBE9vJw4XNkf0VLf2dFWtiuwvtMgAkwASbABGwurJsAABAASURBVPYjAfaZCTABJsAEmMDTEmgk+Xs/Fb/+b9XQK62HHhTk7NRbE3+whDfv/EOdbT/2hpibvikPbs7+Tbx+3JwRXNjIS2H+wX/lp9r4wv/zf9Kf/nX7kr/IvSR8+eRgb09Pz+Cia9Sa2VdMR6KpjY3UIOQogXhDz3DLzUej0cHxjHKWtjr7s1OLyCP5SzkXl4u0hdDpi7qv9eQgXkkRTEyYqSmdHcPwD4261sdlf8cXFWPYhnwiERRJ6i9xGKue4ThwwruxOF+abgl9Rzsw1WZ2Bbu2cje/gRP5ZLS3txcNBMdK+TibUnlXZx9yRz+RfLmW8IlkFBwGkxhIc8YrLKJZbKtKsZheWG8Ljo7S4A8Opta9JxQ5OYTJRdFWWUEXD7nJ6Di1piqjzkZeJSix61TgvyM3ndzJRj1Zbn5xwzuKPBTy2h7DQMJUaevk6mztVqcPPydGXYul68WKkzr8hfAGQ+10jQ2WY57sOMWbjnOth6akTly1eV2IN1yR8sIoXWvO8dDk9a7zX8eB9J246eIQdsaC4EzhvCiqo9Hsu+1Da8fwTzhx1t4fPGFtuy//mmZaIpP2sNywLk508nLNyj2dvo4b+Oiud443oNVxK2rue+CpHXeY0xR5s9zZv3ctLW4Ue/uGcTTV7/5+7sacXWrt4+zIMfHFjYXb8kuvYnF1YkVcPH/h2zND85AvmSlhSx2f2U1KIrtr0sI49dwU7ggTYAJMgAkwASbABJgAE2ACTKBpAo0kf6XR48PffXP5O3/hk1LOV4qxeTXw9m8fPDCzwziuLrcmooXfoS6Vt/8TvYz0B1ReDXz6uwf/d0JlinG8HQXJpp5A/O7hAb/ff/je4kZbeX3Sw+1VCcAnt4dcWzZbkSbW2pfZDjPhKNDU+r0c2dfq00nNe2NxajaHdmdHxjPeEyrJpbdD2TJvaCLs92TT8Xja8hbJ3cx4RB4ioZkSPvuKF0gNhLyZ5KR00fRCYwdiU6HmA35OzlL6OHdvveZkjQCG2hr3s5PWpEjCf3BAvwK08IacHAozNaaVgM5kxgNAkM3GI1QB8qIcQsf8LQYJClUF+rOT0ZQrJHPZUDHHsUrNdohmnfoldHJb1QZ2i9n42V5kv/PtoVBiaWk6Zs5fLmad5TqTOjuC4iQZlxNvc5PJjHW9aPlTA5nxsyPALHL36Ei9yY5zvAGiUml0q40rROws4iE3O5XacHWoFVyAWWNX2653FMn0WCx27RrSqClz8rvGfy0H0nfgBl/Io5o4pFtCBvpwPzs5tSi/PINuveJsh9p14Ky9P4CCrt2DR1pq2tfFiU5eY8AUaPXJf3Cga5njDfc38LLfn59hvMETebO0/oLgWAhtXG3p711x9Vws9hLKzCoFAFqgZRwu9LtXrgRrs7g4LUTwdP9ba7eiBVMfMk9t1EJqlWLx9qPH1gF/MgEmwASYABNgAkyACTCB54UA94MJPD2BhpO/Ny+/+/7wu1+Kj75Ryz5YTR8f/lPXT5/Eb1nHtZ+vBD9s/SvqokR/ekMtEIFah/7399P3a7WfRmIY/tj08ljoBF6hULDpdO+T2tbZR9JwfnHDq7K/SHBsmBNGdfpPakedR/7HTHLp7KDdybODg0kkBxPq9+qqZmeHS3hH1a/Sl5YSwTYrqydPI8UgUuYCAlIgdHbU2aff6uzX8dNC2ETjW6hSa51cTa7TcgAYx8xCWs44q1VTElJ24q+Tq1pNbWEKWf1IINDbO77uGo35DVVdJ1dna7eO+uBfCc2MN1SvlENQKt7RpSUE29LSqMuKItipE2+lmntiJzMejS7kXV6xPo4virJyfOv478gB+pXyMjf0sfIUBKJGn4RPfDvaceRsaO57nR2uWiP123WME1TRyXHKsTjq1/hT5qb3k+OtNn7K3AC/Fl0NZ2htpRiauMLgbs/fO7nstNt96taFUxdbWi6eOv1e6dczQhitJz9yb35hm95LC0QcWOv789fnZqYOzj3uP1+hL/jFBJgAE3gxCHAvmQATYAJMgAkwASawBQINJ3+V7fzKjw9a29rVgXg18KnjXGDztPo4PvDOgztqtq/IX//rg/7AcfHq/2kVXYPf0Vzgyxe7xG8/uPyXwCtK/Wm2nZdC3vXxQCCC19mz9gUbnsZquW4d+2oulN8wKGeYNB9gVUe/bFS7d7g0WbmOnc7OXDYdjwR6aPmF0SE4AHu5e+siM95je5WeWWcY/qGgWJy3T/tFDeFoh05s09vRfh0/K9LV2+RDo2ZmFzLeExMnGkqcOfYLDenkONV4wVcZtmxvemFdqKyPTq6zXEe/knN5pnOl3G44M05rfSQztvmrdcbRXnOb9svXxdYMZrPpyWhKeNX8brJRx38dh0p5mRuZc3pX6jtpNCDT+Vnn/qBt99HP9Pv4liP2ZVN1caKT61yuo1/pT5lbpdxumOONaFTyMbnRCc27Ul+j9CRxnbjalr93xdWZvitX+m7cGL5x64vNzS9uXb8qv4xRfv2m0+2unPb7m4MH1tZyagkI8c+f18SBX1eu7WsYXQdpNZO1zUfKBm+ZABNgAkyACTABJsAEmAATYAJMgAg0kPxtP/2XcDfp4t1+7I1DBbWAry98+U+H/vdd+yoQSA0Lyu1CUSDnK366mRfifuFB19tBM1/c3dNV+M998e/pT2ke8fv0FLgvbot/fDW8LbOAKTkiOjyGYXj8l66NeskP8303T4tA4BSOPeFYzF9+NhokDZY69oX63/DEBM2HtB6kVk9f0IrA09PTpeyeUK+24NAA/aa9E1nkDTNJq7NjeMJjifJ6uOXlFyh9aea2gEI+j8dQ5un/8xnzl9dKgq3hCTvbwTlBS2fASBVPOqN5G8j9VPZLa1/jZ47mlYXCcoxoLGOgVBqvpv2xu+nxmBzqxAOtpJnxer3VKfLG+6Xtr90VuV/yB0e19u/mkaI012vGEMiFmilrr5PDiGPR6ZucPXTBDOCLE2umsyl35k8tFLNpel6arw9V6VgzjjhVhzPONlNcHeq6gJ/WdSGrO8dD/XaL2TjSv0FrjWOh8V/HwZSj84bHzk3647CR+if8Sn+o+hcJtePuYEKJdH7iyx6n+169dh/+6zHZfOvIa/Sh3ro40clVrdqtTl/6Q/clXNR2bqbcT9c4TuH+UXV/5njbkN9VAI6dWy15JZE8tyHedH93qBXVRlN/745+O1TzwLfbhQLKnYcyWSs3ZFy+PS0t3/9csR7EnUeP3e7O91rpHv6b1468JR7/y7ZiNVV6+bSb1oVYe1Qlp3P8ZgJMgAkwASbABJjAc0GAO8EEmAAT2BKBBpK/SOkeMmfpfjf2+o9RuWhv++nfdYnS7N3vvrk8chzt3099OferDy7j8LsPWv/2pXwiXP76778qvDMmhd8Miq8+TSEjDN2dKLNTKeFLLC0tJULti+PjGVfoEiVS0RQtMekaxanl5eWETyzMUhIN8uaK3r75S1ivKxU1p/2SZb0+nRWira1yaQqa1LjhCiXISWSRS6Y0dmQOyzW6tDQ9vbyEXlk/w0f6cmR8HSBgByhE3ny2G3IHtJrugpWcVk4IobODjHZynezDSPvi4CDg2hcPltXR1kJG+IYG5JG5qeqXzj7qOvpJ+vB/lDjQWIrklBqv3PwT/TE9sH3INMXoMhhh6K18X/14QOpQVGQYTXON9otyi8QNbdrHRVmx+zM2NICUoJJjW2U/NxkFBhW0GAKRilrr8zrLYUEI9TN5jDyV6TAl1HR2TM5oYCkx6lsfHzEDw5TX8pcNmBt0Q5hfVOjGEZqOnA3kO5cRsUiDSm/hpUEJHeiXCmxWxlVbUPqT8K2nSteFPh4c2y0Zx042HhhfDyYmKG7RVlNxaPKp4QazjgX6yYy8+2AUXRuiZlpm1bg7GoFQ56fQ3x907RaLV5dW1mDT3f1ZqwVfFyc6OapzvEkI4rmMN11coctb+3vXUvPAN5hyLIbRKp9IWHGSZgqvtXx0/uNfIpH5bvHFlYqZwobRdeLUReR+N1cmVm0ziCtM8AETeM4IcHeYABNgAkyACTABJsAEmEBjBBpI/or7qT/QFF05V9dK3eav//79kpB2zEe3leWWJvy4KdcLlvqmGoRWWYwP1wqtk8194n+ktAICLXcQiMTT6UggEDefYIO8SSRAJ+gdiKTr/ucQSVK/nIZW1Xwd+9BEOqlHLiOKfVXq69PjdHrMR5OZ+ukILARMP+G7+aCbOnZkoz3RaC8qRqzOwhqMm2Z6gMKEINRyv2aKD1rl4mgH7YIhEZNGoAOfUAfJLCJrMYQOiEKuCppGFSBWh2qLuhA26qcQWRhFBVlgPCvb0vmDJmBf+Yb9qkLe9vT0RqM9eEHJNFXZgBT6Y8vIQ6I6kvAZa+0OHKrSVL/gD1qL1owLTCl/euQwl7pGchr9yngoVmKwxtfGAY2Ux5eCHAJbQXfJssYOTpUbgCsSAoQoZTkFVtriDxcxsBSW8CEegLdmaAGOQ7zhewXbCQSRuu6q/YSXsmkiY+3DB4wQnMKOLPTzf+oZdZccgBA+QIeEMB3PgjlqQ45CTVgO4aTZrnQfZ1XBETqg9m1uUgNKiK0jhwo5XJTOQ4hi9wGHpWL5iWGHWyZDdRZNowsQqUO11dmBMupDn4alFA8AZ97d4HzFfa9Ouw8Xhlc2hWi5eP5C6uTRrlbDsPFECzBlDa4mfggyFG1F8dfZQdfKPKu4lRyljnG8EVMQUtddPW5xuhNDoaqUcAboPoPgMi8ZqCGEYB0i7KuyS3/vVs/FYi+hlB74plrHtlgsRKem7A92k5LYOevRcNBR5fYPM2/CBMrUTEnfMLpaj46dvjB/jFK/X9xYuKOUecsEmAATYAJMgAkwASbABJgAE3juCGyxQ40kf7doeh9X6+wLjSamY2F/OBbybpiPb9vD/clmy/+3r+MmckSUKrDlqqqUG7RTVavxw522X8eTYtbMZNXRmV3ItPmGwrHpUW9mwSlFrqur65dOrrPDciawawSKxdsLX/ddmftiTbjd3SP2xX93zQduaE8Q2G9/72qgeXq7+w+ItbWV8JWv/1jQ/4GrqcgCJsAEmAATYAL7mgA7zwSYABNgAkygUQKc/HUghSTp2cHBZL79RLtYHDd/a++gx6Lni0AxHaFRx5gPjqQ5g7B3Bjd3b932fLm949d+9wT538JqdGbqzampc/xL+fJovmDxtt//3hWLV2UMvznzw9UXOPNbjl/eYwJMgAkwASbABJgAE2ACTIAJVBHg5G8VEPOwmM2m4xG84uknzxg16/DH/icgRx1j3tBM6r3X3efTI1peIBDhdPzzObp7r1cvYLzx37u9F4bsERNgAkyACTABJsAEmAATeAIBPs0EGifAyd96rAyPPxyLhT3VT6OqV+cpzhmecCzsfwoDTVSVXfN7rGc9NVFzX6nScpZyCPeC1wZFU4xeYXoO215wqSkfABMB+tzHTFNMmlXGdYdrfPcZPk27urgocRhJAAAQAElEQVTVyZ/IxGgdOzP0SySC8u3RvXcL4jh/4gg+UaGpeIOyvEnv0t/ZJzrfoIJhvHeGYviXyNC3J1v3mfMN9pHVmAAT2EcE2FUmwASYABNgAkyACdQh8KIkf/HfS2Q664DQnOrweb3thzUnt118uN3r6/DsSjaksy8UFCL7Aixu4DiEW42Hpxvyu/MLCwt54Wo8pPB1wLT5itkD2FFuGP7YdMzvFD+O+s13BgHa3NXgyFn6afaKPujrlW1OnTi3CzzUnnzvQKON8exw+Toa09xerXK79CWTZFDaILbqNaaLW528ni1htI5dOH/R3bK2NtcXo2d60Sx7XXw6ymX8cJwTZcc4p9tAeWjDu/MHhbypeJfjrULsfOB4k3ZW3UapYRz9dujMWGXe1jBa3zt55u9DQ7XysaGhv585WnKAlpuIvXRl7vvNlreOnb91stJOSY13mAATYAJMgAkwASbABJgAE2ACz5xAQ8lfX/jyd9+YZeS46bNN+Gmw3RSK9tN/MTUdhZedqsOyTdmytL2fyHWG+jqbtVnMxgM9PZE0pSearbsV/bv57VratH7rhuHp87U191Cz+hb36tmiNYRVDm4tHqqMNHtIv61Op+fzjdZDEicRFItR+VoUo4kJv0zs6uRkt402Ve96+lWq233oyLlYTI+gT8lF0baexM7U5LZ/CeHYLjqnGoxG0bYvce3SM8qLwZFnXFxikcgDvixTs7k6DuniVievYwqnXuu92CLE5srwzOptHKLo4lMnRxXBcU4UxPMR59ZNerf+zkp02ARP97/VcgA7pWK0Hk19fP6jls3Pb9yIFsr+ICMcPH3+YkuLu6Rq7RRWz91YWRPCfezUZ63y/myd4U8mwASYABNgAkyACewiAW6KCTABJlCXQCPJ31faxNwn7w+/ixKd+9UHwz6y2N1zyBJ+VXjnw9OvkvCV4If9//1KapaF3SNjr/8YlcJyddL+h9KE2fc/TTWcEaOa+jfNFFuWL9sUSCQRxoJtbcGEPLE8HW7oR/ee8PT0NNWI+cvTEh3t04RCyybyqvZfsDrq690Xos03dm0JrU5XzkzU2fGgbWhTQYfL/ZKT+0i6TOKy/2bTA0NBkZqaNY/w4WgH3Epu0Gw7IkemIIfZWEzhIRVYqF8c7aOKzk8pl/Sn0QFqlJTRWQtLhT9waHo67PeHY6oKRoyqwAiGkEqsYjENqDvGA0Yc/fLL/8DTOE4vx/xkB03riq5fOrnOjqO8s8MlMgvxrHzFI72DU2rdW53c0QiEdfSBQiJbpo57yp0FOmt4y/xhCqVj4JLEXDHuUr863mDckTOMIG+Yu4tPIXK5bNZMskAfbtTGFYwjCkguxzJs+Ql9csIcL3/MFp+6dtGkpJmeHImmRHBoAAIqaEJ2qlEO1LTsLhwuzcg2SOoQh2igdP1eG5K3T4j0pY4dnZ8l++SPBKLMl+S17d4l8hIGNvIXAOS+0/WlTDW+rXMdGcZ7Ryh/traWu1My2MlxLllgcF+oOJedFogW9YfEfrMtxa09nnH7L/3tpvuzbUUmR31ln2b3Dv1dztkt399wyjh6Ju7eXNvErlmQ4f3sVL975Yp8clzBlApBGeEL5+MH1sJzSPKK2tfDhc/pREt/58u1J1nCBJ4FAW6TCTABJsAEmAATYAJMgAlUEmgk+Xs/Fb/+b1XtldZDDwpyduqtiT9Ywpt3/qHOth97Q8xN35QHN2f/Jl4/bs4ILmzkpTD/4L/yc4c2SF4kfPnkYG9PT8/gomvUmtlXTEeiqY2N1CDkKIF4Q89wy81Ho9HB8UzZWZ392alF5JH8pZyLy6Xq6PTVWd12PTmIV1IEExNmakpnxzD8Q6Ou9XHZ3/FFxRhmIZ9IBEWS+kscxqpnOA6c8G4szpemW0Lf0Q5MtZldwa6t3M1v4EQ+Ge3t7UUDwbFSPs6mVN7V2Yfc0U8kQa4lfCIZBYfBJAbSnPEKi2gW26pSLKYX1tuCo6M0+IODqXXvCUVODmFysXqaoC4ecpPRcWpNVUYjG3mVoMSuU4H/jtx0cicb9WS5+cUN7yjyQchrewwDCVOlrZOrs7VbnT78nBh1LZauFytO6vAXwhsMtdM1NliOebLjFG86zrUempI6cdXmdSHecEXKC6N0rTnHQ5PXu85/HQfSd+Kmi0PYGQuCM4XzIr7fMXur/dDaMfwTTpy19wdPWNtum29oYoKWn44hd11Oijny1DqqOVHvOnr51zTTcnMu97BcWRefOnm5ZuWeTl83XhgX3X2G4xxoddyKmvsteGrjDeY0Rd6kd/bvbEuLG8XevmEcTfW7v5+7MWeXvtzZ37L2eU50tbZ2lf6aC1EsrM7emuv7+nrKrlyxn92kJLK75WCFlA+YABNgAkyACTABJsAEmAATYAK7ReAJ7TSS/JUmjg/Tyg/+wielnK8UY/Nq4O3fPnhgZodxXF1uTUQLvzPXgnj7P9HLSH8old9+cJlsflNeC0LJt7xFsqknEL97eMDv9x++t7jRVl6f9HB7W7NmkWvLZivSxFr7MutgJhwFmlq/J39FrdWv48rG4tRsDu3OjoxnvCdUkktvh7Jl3tBE2O/JpuPxtOUtkruZ8Yg8RCImJXz2FS/wX/SQN5OclC6anmjsQGwq1HzAz8lZSh/n7q3XnKwRwFBb43520poUSfgPDuhXgBbekJNDYabGtBLQmcx4AAiy2XiEKkBelEPomL/FIEGhqkB/djKacoVkLhsq5jhWqdkO0axTv4RObqvawG4xGz/bi+x3vj0USiwtTcfM+cs6uc6kVp/iJBmXE29zk8mMdb1o+VMDmfGzI8AscvfoSL3JjnO8AaJSaXSrjStE7CziITc7ldpwdagVXIBZY1fbrpeS6Uh6XruGNKo1+V3jv5YD6Ttwgy/kUU0c0i0hA324n52cWpRfnkG3XnG2Q+06cNbeH0BB1+7Gen5BvWzXB7Vaz6sGz9W7jg4eaamxootPnbzGgCnQ6hM38Kd7CMc57qvgZf+78AzjHJ7Im7T1lwvHSLamI85/x7f0d7a4ei4WewllZpUCAC3QDN8LNMM3+E8c2crBFrdwx8+fv3zq1PzHH397tPylyNXV1dtydrxNu7xbLN5+9Lh8yHtMgAkwASbABJ41AW6fCTABJsAEmEA1gYaTvzcvv/v+8Ltfio++Ucs+WIaOD/+p66dP4res49rPV4Iftv4VdVGiP71hLhAhFuNyIQgSlpaSqK3bnMQw/LHp5bHQCbxCoWDT6d4ntaazj2TH/OKGV2V/kWjYMCeM6vSf1I46j0yMmeTS2UG7k2cHB5NIDibU79VVzc4Ol/COql+lLy0lgm1WVk+exn/1RcpcQEAKhM6OOvv0W539On5aCJtofAtVaq2Tq8l1Wg4A45hZUMss1KopCSk78dfJVa2mtjCFrH4kEOjtHV93jcb8hqquk6uztVtHffCvhGbGG6pXyiEoFe/o0hKCbWlp1GVFEezUibdSzT2xkxmPRhfyLq9YH0eCKSsTOnX8d+QA/Up5mRv6WHkKAlGjT8Invh3tOHI2NPe9zg5XrRGr3fz87GyaXlkFwZJvzyfibbLh6whNQp/jHBy2reyfOK/tsqGJZwTJ9vydlctOu92nbl04dbGl5eKp0++V5/muha/8+c2pqYNXVtz9dnmtm/tFwn4yASbABJgAE2ACTIAJMAEmwAREw8lfxSq/8uOD1rZ2dSBeDXz6nd9hLrB5Wn0cH3jnwR1ztm/++l8f9AesR8ap86LSpinc0kfnpZB3fTwQiOB19qx9wYYtmaupVMe+mpPkNwzKGSbNB1jV0a+xXSs4XJqsXMdOZ2cum45HAj20/MLoEByAody9dZEZ77G9Ss+sMwz/UFAsztun/aKGcLRDJ7bp7Wi/jp8V6ept8qFRM7MLGe+JiRN1EmdlS479wmmdHKcaL/gqw5btTS+sC5Vl1Ml1lv2xaUc70K/kXJ7pXCmHYqlkxmmtj2TGNn+1zjiWqm3fTvm62JrNbDY9GU0Jr5rfTTbq+K/jUCkvcyNzTu9KfSeNBmQ6P+vcH7al3QZcc1JxvI4e/Uy/j285Yv99vC6edXKnxkhWR7+SQ3m8KuVkxHpznBOJSj5lbnTO6V2p76TRgKxOPG/L39ni6kzflSt9N24M37j1xebmF7euX5VfApFrm5tZtSDJw0dr4sCvG1vD1zC6DtJqJmubj8gGv5kAE2ACTIAJMAEmwASYwLMlwK0zgVoCDSR/20//Jdxt1mw/9sahwoZcXNYXvvynQ//7rn0ViPzKj8LK7SLnK366Cc37hQddbwfNfHF3T1fhP/dhrHvEySZOPE2h5Ijo8BiG4fFfujbqtdm6m9/A/0txCjJPOBbzl5+NBkmDpY59of5XOjFB8yGtB6nV0xeCpjdNl7NyQr3agkMD9Jv2TmSRN8wkrc6O4QmPJcrr4ZaXX6C0i5nbAgr5XBxDmaf/V2fMX0ArCbZaOzgnaOkMGKniSWc079p+ae1r/MzR/K5QWI4RjWUMlErj1bQ/djc9HpNDnXigFS0zXq+3OkXeeL+0/bW7IvdL/uCo1v7dPFKU5nrNGAK5UDNl7XVyGHEsOn2Ts4cumAF8cWLNdDblzvyphWI2Tc9L8/WhKh1rxhGn6nDG2WaKq0NdF/DTui5kded4qN9uMRtH+jdorXEsNP7rOJhydN7w2LlJfxw2Uv+EX+kPVf8ioXbcHUwokc5PfNnjdN+r364yWbN15lmlZo9b+ym73Pk6evivx1ThrSOv0Yd66+JTJ1e1arc6fcmB7oe4mdjHy5T76d6CUzJ3TPslyxznG/I7EsCxcyvxqdqRPLchznV/76g51UZTf2ePfjtU88C324UCyp2HMlkrN2T8nz9/33Js5DXK+P7mxJG3xON/qUQwnav7fvm0m1YzWXvUoH5dY3ySCTABJrC9BNgaE2ACTIAJMAEmwARAoIHkL1K6hwa/U4v2jr3+Y1Qu2tt++nddQnRZcnPd3vupL+d+pVby/aD1b1/KJ8Llr//+q8I7Y2p530Hx1acpZITFf/5TaxPuPGWZnUoJX2JpaSkRal8cH8+4QpcokQqrtNSjaxSnlpeXEz6xMEtJNMibK3r75i9Sva5U1Jz2S5b1+nRWiLa2yqUpaFLjhiuUICeRRS6Z0tiROSzX6NLS9PTyEnpl/QwfaZeR8XWAgB2gEHnz2W74PzytprtgJaeVE0Lo7CCjnVwn+zDSvjg4CLj2xYNldbS1kBG+oQF5ZG6q+qWzj7qOfpI+/B8lDjSWIjmlxis3/0R/TA9sHzJdMLoMRhh6K99XPx6QOhQVGUbTXKP9otwicUOb9nFRVuz+jA0NICWo5NhW2c9NRoFBBS2GQKSi1vq8znJYEEIty4CRpzIdpmSWzo7JGQ0sJUZ96+MjZmCY8lr+sgFzg24I84sK3ThC05GzgXznMiIWaVDpLbw0zKQ8qqgCm5Vx1RaU/iR866nSdaGPB8d2lWW1Yy9ESgAAEABJREFUzcYD4+vBhHymItpqKg5NPjXclOXaLfSTGXn3wSi6NgS+hqpUqhr3ypPlI52fQn9/qN9u2bTa0/PE+Rx9JWNeR/a41clRpfY6KhavLq2s4ZS7+7NWa9B18amTozrHuYQgmopzXfwgPumGMlp9vzXlux7nunhGl7f2d7al5oFvMFVbisXV4Nyau//8L5HIvFt8ccU2I7hW25IYRteJUxeR+91cmVgtzSC2zvInE2ACTIAJMAEmwASYABNgAkxgLxBoIPkr7qf+YK3P+75K3QqRv/7790tC2pm4KbtTlluaEN+U6wVLfVPN0SY0n67gf4a0AgItdxCIxNPpSCAQN58kg//3RgJ0gt6BSLruf9KQJPXL6WBV7tSxD02kk3rkMqLYV6W+Pj2mqcd8NJmpn47AQsD0E76bD6ipY0c22hON9qJixOosrMG4aaYHKEwIorPPJ6yHXEHJVhztoF0wJGLSCHTgEyohKUBkLYbQAVHIVUHTqALE6lBtURfCRv0UIgujqCALjGdlWzp/0ATsK9+wX1XI256e3mi0By8omaYqG5BCf2wZeUhURxI+Y63dgUNVmuoX/EFr0ZpxgSnlT48c5lLXSE6jXxkPxUoM1vjaOKCR8vhSkENgK+guWdbYwalyA3BFQoAQpSynwEpb/OEiBpbCEj7EA/DWDC3AcYg3fK9gO4EgUtddtZ/wUjZNZKx9+IARglPYkYV+hk89o+6SAxDCB+iQEKbjWTBHbchRqAnLIZw025Xu46wqOEIH1L7NTWpACbF15FAhh4vSeQhR7D7gsFQsPzHscMtkqM6iaXQBInWotjo7UEZ96NOw2OJBd99zbLeKs2oR2zo86Sx8QsO1cVsjr38dPVwYXtkUouXi+Qupk0e7Wg3D1i41ULqP6eU0dFAtFTXuOn04Xx7HqvEqASKgHOdEFITU9V6PW5z+AkChqpRwBihOENTmpQo1hC6sQ4R9VXbp7+zquVis4oFvqnVsi8VCdGoqWrA5uTrzptKemrHLoYxSXJ15aWYVO6oYRlfr0bHTF+aPUer3ixsLd5Sct0yACTABJsAEmAAT2EME2BUmwASYgCTQSPJXKr5Qm86+0GhiOhb2h2Mh74b5+LY9TCCbLf/3tY6buqRPqUqDdkr6ze7stP06/hSzZpqyjs7sQqbNNxSOTY96MwvmLNg66uVTun7p5OWavMcEnjsC9a+jYvH2wtd9V+a+WBNud/eIffHf544Ed6gugf32d7amM57e7v4DYm1tJXzl6z8WbF8C1WiygAnsDQLsBRNgAkyACTABJsAEmMCLSoCTvw4jjyTp2cHBZL79RLtYHDd/a++gx6Lni0AxHaFRx5gPjqT5f/J7Z3Bz99Ztz5fbO37tV0922O8nXkfI/xZWozNTb05NneNfypdH4wWL8/3+d7ZYvCpj+M2ZH65y5rccxrzHBJgAE2ACTIAJMAEmwASYwB4iYLrCyV8TRNVHMZtNxyN4xdNPnjFaVZcP9y8BOeoY84ZmUu/fbu4vz+UaDhFOx++jUePraAuD9QLGOf+d3UKccBUmwASYABNgAlslwPWYABNgAkzgxSXAyd96Y294/OFYLOypfhpVvTpPcc7whGNh/1MYaKKq7JrfYz1zqYma+0qVlpWUQ7gXvDYommL0CtNz2PaCS035AJgI0Oc+Zppi0qwyrjtc440zbFZ/p/1p1v5+13fkb7SOnRn6JRJB+fbo3ruF8nX69FHnOO46s1CWf2R26d8JOjealAvDeO8MxfAvkaFvT7buM+eb7SzrMwEmwASYABNgAkyACTCBF5zAi5L8xX/PkOlsfrA7fF5v++Hm622txuF2r6/DsyvZhM6+UFCI7AuwuIHjEG41HrY2rlatu/MLCwt54Wo8pPB1wLT5itkD2FFuGP7YdMzvFD+O+kJYjjX6iQBt7mpw5Cz9NHtFH/T1yjanHpzbBR5qT753oNHGKHa4fB2NaSqtZvVVrca3T7bP42WnabSOXTh/0d2ytjbXF4uZy1bori9HueTJ1ylBfV6uU8c/MtTBHXobrUe/HRr6O8qZk101N3zDwNkzY7Z8btfRk6QM/ZNHS/q0bEXspStz32+2vHXs/K2TNv0dcpvNMgEmwASYABNgAkyACTxbAtz6i0ygoeSvL3z5u2/MMnLcxGUTfhpsN4Wi/fRfTE1H4eVSdVR4NfCpaTbcjcMdLch1hvo6m22imI0Henoi6d1aBOBufneWNjUMT5+vrbmHmjXLbm/oF60hrHJna/FQZaTZQ/qNczo9n2+0HnK5iaBYjMrXohhNTPjl//N1crLbRpuqdz39KtXtPnTkXCymR9Cn5KJoW09iZ2py27+EcGwXnVMNRqNo25e4dml3vmhBu/u68HjZh++13ostQmyuDM+s3lZy3fWlk1Mtvk6Jgng+rlPrj8wu/TsBud3U+X732q3hGzc+F8fmT78mWZY3wdP9b7UcKB1Df6TfPXfrxvCNW3Pu/pFK9cLquRsra0K4j536rFX+fSlV5B0mwASebwLcOybABJgAE2ACTOCFItBI8veVNjH3yfvD76JE5371wbCPCHX3HLKEXxXe+fD0qyR8Jfhh/3+/kpplYffI2Os/RqWwXF0g8/unrp9Ms/FbVHs73jTTalm+bFMgDX9sLNjWFkzIE8vTjf3o3hOenp6mGjG/UXLN0T5NKLRsIq9q/wWoo37JmsNOm2/s2hJana6cmaiz40Hb0KaCDpcXE6AVJKTzyyQu+2+2ODAUFKmpWfMIH452wK3kBs1WI3JkCnKYjcUUHlKBhfrF0T6q6PyUctmBaXSAGiVldNbCUuEPHJqeDvv94ZiqghGjKjCCIaQSq1hMA+qO8YARR7/88j/ANI7TyzE/2UHTuqLrl06us+Mo7+xwicxCPCtf8Ujv4JRa91YndzQCYR19oJDIlqnjnnJngc4a3jJ/mELpGLgkMVeMu9SnKLTbgXFHzjCCPHjuLj6FyOWyWTNpAn1Ur40rGEcUkFyOZdjyE/rkhDle/pgtPnXtoklJMz05Ek2J4NAABFTQhOxUoxyoadldOFyakW2Q1CEO0UDp+r02JG+fENUtOv1t8RMtN2ufxwvQUAzjvSNufK6t5e7gQ5XOfX6dImx11wuPuxriOlv81VB/CO1/LErXF90f5A0KFvDnq/RvD/r7YltRylEfVVBoFu8QTds9c9S6P7980C3WPl/45+1CIbW0snbgYGkyr9Q/E3dvrm1i1yzF4uq52FR0tXC7sPqvx6bQ/vFw4XNkf0VLf+fLdjHvMwEmwASYABNgAkyACTABJvD8EGgk+Xs/Fb/+b9XlV1oPPSjI2am3Jv5gCW/e+Yc6237sDTE3fVMe3Jz9m3j9uDkjuLCRl8L8g//KTyG6A6cKX5QsmMKn/cB/YhO+fHKwt6enZ3DRNWrN7CumI9HUxkZqEHKUQLyhZ7jl5qPR6OB4puyVzv7s1CLySH7r/3jC5VJ1dPrqrG67nhzEKymCiQkzNaWzYxj+oVHX+rjs7/iiYgyzkE8kgiJJ/SUOY9UzHAdOeDcW50vTLQ3D72gHptrMrmDXVu7mN3Ain4z29vaigeBYKR9nUyrvwh9H+5A7+okM17WETySj4DCYxECaM15hEc1iW1WKxfTCeltwdJQGf3Awte49ocjJIUwuirbKCrp4yE1Gx6k1VRl1NvIqQYldpwL/df1ylDvZqCfLzS9ueEeR9wz7kWA0kIhR2jq5Olu71enD/4lR12LperHipA5/IbzBUDtdY4PlmCc7TvGm41zroSmpE1dtXhfiDVekvDBK15pzPDR5vev813EgfSduujiEnbEgOFM4L4rqaDT7bvvQ6VO7Tpyh73i9kL6Tn9B39If0nezbXKvcfQHH6+Vf04zKzbncwzIK3fWlk5drVu7p9GlcNOPoOO7SKl+nQsdtu65TyVnIPzI7+++ElhY3imqOtg9zw1eWrsolm37T6XY/fnRb7uOUYRxN9bu/n7sxh4PK0nXyzN+HIvEDa7P/rDxBR9lNSha7Ww7SAb+ZABNgAkyACTCBF4IAd5IJMIEXjEAjyV+J5PgwLdHgL3xSk7F9NfD2bx88MLPDUrdyc2siWviduRbE2/+JXkb6Q7Qf+pV4/aIpvPyXwCuVVbZ4hGRTTyB+9/CA3+8/fG9xo628Punh9qoE4JObQK4tm61IE2vty/+1mwlHgabW7+XIvlafTmreG4tTszm0OzsynvGeUEkuvR3KvnhDE2G/J5uOx9OWt0juZsYj8hAJzZTw2Ve8QOon5M0kJ6WLphcaOxCbCjUf8HNyltLHuXvrNSdrBDDU1rifnbQmRRL+gwP6FaCFN+TkUJipMa0EdCYzHgCCbDYeoQqQF+UQOuZvMUhQqCrQn52MplwhmcuGijmOVWq2QzTr1C+hk9uqNrBbzMbP9iL7nW8PhRJLS9Mxv6qkk6uztVutPsVJMi4n3uYmkxnretHyJ9OZ8bMjwCxy9+hIvcmOc7wBolJpdKuNK0TsLOIhNzuV2nB1qBVcgFljV9uul5LpsVjs2jWkOa3J7xr/tRxI34EbfCGPauKQbgkZ6MP97OTUovzyDLr6Au8d9aldB85N+9mkfb2jQrxo43XwSEsNDt31pZPXGDAFWn0ad8QP3QP5OsXfBfCy/11rOv4F3aDF01+n8EMI+UfG+surJOmI879DtvTvBJq2G3spFntpZpUCAC0Ui4XbhQJ2uo6euXxMfLFkZnMNo/WzC/3ulStBUwAVW8ltzj3eXGs5MFC57AM0isXbjx7jk8sLTIC7zgSYABNgAkyACTABJvC8E/j/NdrBm5fffX/43S/FR9+oZR+seseHafWGeJ11G14Jftj6V9RFif70hrlAhBAPrFUj3k/899T/v7xqsGV4C5+G4Y9NL4+FTuAVCgWbTvc+qUmdfSQN5xc3vCr7i/+ob5gTRnX6T2pHnUceyUxy6eyg3cmzg4NJJAcT6vfqqmZnh0t4R9Wv0peWEsE2K6snT+O/yiJlLiAgBUJnR519+q3Ofh0/LYRNNL6FKrXWydXkOi0HgHHMLKhlFmrVlISUnfjr5KpWU1uYQlY/Egj09o6vu0ZjfkNV18nV2dqtoz74V0Iz4w3VK+UQlIp3dGkJwba0NOqyogh26sRbqeae2MmMR6MLeZdXrI8jQZOVM+bq+O/IAfqV8jI39LHyFASiRp+Edd46fch1nGsbhX3oV8pNP2vk0KXSWfe+QRq7/94P4wUqjtdXHTlOORZHOzXjZY4jLFSOLwSlwtdp7XVX5gZMtehqOENrK8XQ/DsEg7uN/07oOjk0339g7srX0YKZFBZyOWq3+9StC6cutrRcPHX6vdKvkYS4XfghOjPVPff4re4TXTb5VnrIdZgAE2ACTIAJMAEmwASYABPYbwRqkr/1O5Bf+fFBa1u7qfRq4NPv/A5zgc3T6uP4wDsP7tBsXxzmr//1QX/AemQcBLLcWr7d+n+2Y+5v5zxtdh4AAAo0SURBVKWQd308EIjgdfasfcEG2c5Tb+rYV3N6/IZBOcOk+QCrOvoN+HK4NFm5jp3Ozlw2HY8Eemj5hdEhOADLuXvrIjPeY3uVnllnGP6hoFict0/7RQ3haIdObNPb0X4dPyvS1dvkQ6NmZhcy3hMTJ1y12YFaC479gppOjlONF3yVYcv2phfWhcpe6OQ6y3X0KzmXZzpXyu2GM+O01kcyY5u/Wmcc7TW3ab98XWzNYDabnoymhFfN7yYbdfzXcaiUl7mROad3pb6TRqXMUX8b/WzWfqV3TR09X+P16Gf6fXzLEfvv43XXl06uw1dHv3K8yvFWKbcb5uuUaFTyKXOjc07vSn0njQZkdf5eb9e/Eyjz634c/rMt8ytEcXWm78qVvhv0YLcvNje/uHVdLQ1hGK3lbO+jzbWWlvLDAWR3DKPrIK1msrb5SB7zhgkwASbABF44AtxhJsAEmAATeP4JNJD8bT/9l3C3SaL92BuHCmoBX1/48p8O/e+79lUgkBoWVm4XOV/x0828EPcLD7retib2dvd0Ff5zXwi7prCEZhtb/6DkiOjwGIbh8V+6Nuq1Wbqbp0UgcAoyTzgW81f99wfiJ5c69oX6X93EBM2HtB6kVk9fCJoeND1dyu4J9WoLDg3Qb9o7kUXeMJO0OjuGJzyWKK+HW15+gdKXZm4LKORzZQxlnv5fmjF/Qawk2Grt4JygpTNgpIonndG8a/ulta/xM0fzo0JhOUY0ljFQKo1X0/7Y3fR4TA514oFWhMx4vd7qFHnj/dL21+6K3C/5g6Na+3fzSFGa6zVjCORCzZS118lhxLHo9E3OHrpgBvDFiTXT2ZQ786cWitk0PS/N14eqdKwZR5yqwxlnmymuDnVdwE/rupDVneOhfrvFbBzp36C1xrHQ+K/jYMrRecNj5yb9cdhI/RN+pT9U/YuE2nHX6m+Tn83ad+jSk0XP6Xg9VE/MeuuI7bfzuutLJ9fB0+nL8aL7OW6G9ngz5X66N+KUzB3Tfsk+X6cb8jsewLFzK/Gp2pE8m7hOq6qXDnV/r0lBtdHUvxOOfjtU+cA3o/UkrfZww8ztklnrfbtAK0LceSiTuHJDZ17rnb9gzvalNYI3N7Mktb1fPu2m1UzWHtFK1jY57zIBJsAEmAATYAJMgAkwASbwvBBoIPmLRO2hwe/U+rxjr/8YVYv2nv5dlxBdlvybyyM0n/d+6su5X31wmZQ/aP3bl/KJcPnrv/+q8M6YFH4zKL76NIWMsLif+kNCKM2y8Kmhzk6lhC+xtLSUCLUvjo9nXKFLlEiFXVoq0TWKU8vLywmfWJilJBrkzRW9ffMXnV5XKmpO+yXLen06K0RbW+XSFDRJbsMVSpCTyCKXTGnsyByWa3RpaXp6eQm9sn6Gj/TlyPg6QMAOUIi8+Ww3/B+YVtNdsJLTygkhdHaQ0U6uk30YaV8cHARc++LBsjraWsgI39CAPDI3Vf3S2UddRz9JH/6PEgcaS5GcUuOVm3+iP6YHtg/53+3RZTDC0Fv5vvrxgNShqMgwmuYa7RflFokb2rSPi7Ji92dsaAApQSXHtsp+bjIKDCpoMQQiFbXW53WWw4IQ6ufeGHkq6uHyOjsmZzSwlBj1rY+PmIFRzMapgVr+sgFzg24I84sK3ThC05GzgXznMiIWaVDpLbw0zKQ8qqgCm5Vx1RaU/iR866nSdaGPB8d2lWW1zcYD4+vBxATFLdpqKg513JTl2i30kxl598EoujZEzfTCqnHX6W+Xn83a5/E6bA1qsXh1aWUNR+7uz1qtoNVdXzo5qvN1KiGIfX2dqi44bDV/r6G5tX8ntFQ98A2GRMvF8x//EonIcsa+vAOdrHwXV2fCj93zH5P+vPvxFzcWSg+Ig6JhdJ04dRG5382ViVW5DA6EXJgAE2ACTIAJMAEmwAReKALc2ReBQAPJX0rUDtOCv+9jq1K3QuSv/54OITHLxE2Jqyy3NCG+KdcLlvqmGoTi1oSUwLJNSCe2/Mb/rGgFBFruIBCJp9ORQCBuznFB3iQSoBP0DkTSdf+TgySpX06nqvKkjn1oIp3UI5cRxb4q9fXpMW495qPJTP10BBYCpp/w3VzLr44d2WhPNNqLihGrs7AG46aZHqAwIQi13K+Z4oNWuTjaQbtgSMSkEejAJ9RB8ojIWgyhA6KQq4KmUQWI1aHaoi6EjfopRBZGUUEWGM/KtnT+oAnYV75hv6qQtz09vdFoD15QMk1VNiCF/tgy8pCojiR8xlq7A4eqNNUv+IPWojXjAlPKnx45zKWukZxGvzIeipUYrPG1cUAj5fGlIIfAVtBdsqyxg1PlBuCKhAAhSllOgZW2+MNFDCyFJXyIB+CtGVqA4xBv+F7BdgJBpK67aj/hpWyayFj78AEjBKewIwv9jJ16Rt0lByCED9AhIUzHs2CO2pCjUBOWQzhptivdx1lVcIQOqH2bm9SAEmLryKFCDhel8xCi2H3AYalYfmLY4ZbJUJ1F0+gCROpQbXX6UEZ96NOwWPGAKs362ZR9gimbNDegLLv8Yo7Xw4XhlU1BybcLqZNHu1oNwxaHIFSOH72cQg+qpQKiGESdPk6Vx7cq3koDSQHB1ykRBSF1v6rHLU5/waBQVUo4A3R/xkVp3mqghksP1iHCviq79O+E1XOxWOUD3wo/vKlE5nZGLe+gvMK2WCxEp6bKawELcXVm6uCfr/Rd+fNLUzMluWF0tR4dO31h/hilfpETvoO6XJgAE2ACTIAJMAEmwASYABN4Lgk0kvx9Ljtet1OdfaHRxHQs7A/HQt4N8/FtdWs825PZbPn/qHU8qUrW1Go2aKe2YoOSnbZfx41i1kxT1tGZXci0+YbCselRb2bBKUWuq6vrl06us8NyJsAE9jiBYvH2wtd9V+a+WBNud/eIffHfPe55s+6x/hMI7Kt/JyAjfLtQ9e8ET293/wGxtrYSvvL1HwvyG50ndJlPMwEmwASYABNgAkyACTABJrA/CXDy12HckCQ9OziYzLefaBeL4+Zv7R30XgDRC9XFYjpCo44xHxxJ8/+E987Y5+6t254vt3f8Yk+cCTzv44X8b2E1OjP15tTUOf6lfDkGnvdxL/dU7u33fycUi1dlDL8588NVzvzKIeUNE2ACTIAJMAEmIAQzYAJM4DklwMlf54EtZrPpeASvePrJM0adTbB0HxKQo44xr5ohtQ978hy5TMsOBCKcjt8vQ8rjtV9Ganv9fAHHnf+dsL0hxNb2HAF2iAkwASbABJgAE2ACTOB5IcDJ33ojaXj84Vgs7Kl+GlW9Ok9xzvCEY2H/Uxhooqrsmt9jPbOoiZr7SpWWZZRDuBe8NiiaYvQKe/aCP836AJgI0Oc+ZprF0pQ+rjtc440zbFa/KWeg3JB96MlitI6dGfpFPmXq26N779bB8SlH6ak2zcXD7v59fKqO2Sobxntn1JPShr492bpLf9xt7fMuE2ACTIAJMAEmwASYABNgAkxgtwn8fwAAAP//X6f1/QAAAAZJREFUAwDpELhGspAGuQAAAABJRU5ErkJggg==;" vertex="1" parent="1">
          <mxGeometry x="530" y="240" width="1876" height="198" as="geometry" />
        </mxCell>
      </root>
    </mxGraphModel>
  </diagram>
</mxfile>
